<?xml version="1.0" encoding="utf-8"?>
<!-- Generator: Adobe Illustrator 16.0.0, SVG Export Plug-In . SVG Version: 6.00 Build 0)  -->
<!DOCTYPE svg PUBLIC "-//W3C//DTD SVG 1.1//EN" "http://www.w3.org/Graphics/SVG/1.1/DTD/svg11.dtd">
<svg version="1.1" id="Layer_1" xmlns="http://www.w3.org/2000/svg" xmlns:xlink="http://www.w3.org/1999/xlink" x="0px" y="0px"
	 width="1417.32px" height="1417.32px" viewBox="0 0 1417.32 1417.32" enable-background="new 0 0 1417.32 1417.32"
	 xml:space="preserve">
<g>
	<path fill-rule="evenodd" clip-rule="evenodd" fill="#1E557E" d="M754.332,611.646c-0.085,13.692-4.969,25.778-14.622,35.572
		c-24.451,24.806-49.177,49.342-73.801,73.979c-2.568,2.568-3.855,2.48-6.47-0.129c-28.402-28.342-56.81-56.678-85.228-85.004
		c-4.07-4.059-3.965-4.729,0.274-8.653c4.242-3.927,8.259-8.101,12.354-12.187c20.226-20.187,40.263-40.566,60.729-60.506
		c14.522-14.148,31.944-17.935,51.291-11.905c6.106,1.903,11.778,5.052,16.456,9.457c9.793,9.222,19.706,18.375,28.312,28.736
		C750.872,589.732,754.204,600.084,754.332,611.646z M689.122,542.667c-20.012,0.18-31.739,5.099-41.438,14.755
		c-17.493,17.414-34.918,34.896-52.372,52.35c-6.514,6.513-12.979,13.077-19.572,19.509c-1.842,1.796-2.136,3.164-0.055,4.897
		c2.257,1.879,4.486,3.813,6.572,5.879c8.474,8.394,16.954,16.784,25.277,25.327c1.984,2.037,3.341,2.098,5.603,0.454
		c9.125-6.636,18.4-13.065,27.604-19.593c31.065-22.032,62.124-44.073,93.184-66.112c2.243-1.592,2.682-3.302,0.542-5.413
		c-4.696-4.634-9.354-9.308-13.97-14.024C710.136,550.105,698.389,542.476,689.122,542.667z"/>
	<path fill-rule="evenodd" clip-rule="evenodd" fill="#51B5FE" d="M96.481,1209.639c-0.035-3.305-0.102-6.609-0.102-9.915
		c-0.007-342.851-0.008-685.701-0.007-1028.551c0-1.298,0.056-2.596,0.085-3.894c0.441-0.156,0.917-0.251,1.318-0.478
		c5.551-3.137,11.232-4.702,17.882-4.67c57.39,0.276,114.782,0.159,172.173,0.158c2.952,0,5.909,0.088,8.855-0.044
		c2.439-0.108,3.916,0.632,4.779,3.136c0.665,1.928,1.17,3.752,1.17,5.804c-0.028,282.352-0.03,564.702-0.032,847.055
		c0,0.826-0.062,1.661,0.035,2.477c0.081,0.681,0.144,1.551,0.574,1.972c3.894,3.818,7.272,7.828,13.817,7.822
		c153.634-0.151,307.268-0.117,460.901-0.117c1.182,0,2.362,0.006,3.543,0.004c2.921-0.006,4.277,1.523,3.526,4.278
		c-0.61,2.238-0.461,4.439-0.525,6.665c-0.172,5.872-0.289,11.681-3.223,17.113c-1.372,2.539-2.122,5.584-1.677,8.567
		c1.408,9.422-2.247,17.836-5.022,26.437c-1.283-1.965-1.229-4.374-0.282-6.055c3.885-6.9,4.304-14.311,3.795-21.873
		c-0.231-3.433,0.279-6.89,2.05-9.471c2.234-3.257,2.215-6.53,2.28-10.048c0.07-3.86-0.586-7.784,1.059-11.531
		c0.698-1.591-0.194-2.492-1.797-2.628c-1.173-0.1-2.36-0.041-3.541-0.041c-153.071-0.001-306.141-0.011-459.212,0.042
		c-5.17,0.001-9.694-0.213-13.776-4.493c-2.793-2.928-4.72-5.275-4.719-9.528c0.082-280.511,0.073-561.022,0.085-841.533
		c0-1.638-0.057-3.26,0.338-4.917c0.86-3.604-1.438-5.987-5.117-5.612c-1.17,0.12-2.36,0.053-3.541,0.053
		c-60.236,0.002-120.472-0.012-180.708,0.042c-3.032,0.003-6.098,0.398-9.086,0.95c-4.517,0.833-4.575,1.12-3.957,5.843
		c0.152,1.163,0.068,2.358,0.068,3.539c0.002,342.519,0.002,685.038,0.002,1027.556c0,6.394,3.128,9.483,9.606,9.483
		c212.716,0,425.432,0,638.147,0c1.063,0,2.126,0.02,3.189,0.005c0.944-0.013,1.597,0.329,1.777,1.325
		c-3.188,0.031-6.375,0.09-9.563,0.09c-209.711,0.006-419.423-0.009-629.135,0.073c-5.675,0.002-11.039,0.046-15.042-4.781
		C97.291,1209.724,96.82,1209.737,96.481,1209.639z"/>
	<path fill-rule="evenodd" clip-rule="evenodd" fill="#286DA1" d="M88.893,1165.41c0,14.991-0.009,29.981,0.004,44.972
		c0.006,6.281,6.33,12.653,12.547,12.651c18.886-0.005,37.771-0.034,56.656-0.013c1.203,0.002,2.864-0.616,3.424,0.983
		c0.412,1.178-0.596,2.243-1.427,3.048c-12.028,11.651-23.215,24.163-35.883,35.158c-5.232,4.541-11.876,6.599-17.848,9.837
		c-0.959,0.52-2.313,0.374-3.488,0.422c-2.358,0.097-4.738-0.061-7.076,0.193c-15.197,1.655-27.598-4.478-38.159-14.493
		c-9.142-8.669-18.457-17.242-26.282-27.214c-2.716-3.461-4.417-7.482-6.445-11.336c-5.277-10.033-3.619-20.914-2.115-31.03
		c1.134-7.626,5.854-15.036,11.713-20.925c14.819-14.893,29.673-29.75,44.495-44.64c1.995-2.004,3.918-4.085,5.814-6.184
		c0.804-0.89,1.498-2.001,2.887-1.538c1.45,0.482,1.236,1.873,1.238,3.013c0.017,7.081-0.017,14.164-0.021,21.245
		c-0.007,8.617-0.002,17.233-0.002,25.85C88.915,1165.41,88.904,1165.41,88.893,1165.41z M87.146,1153.699c0.005,0,0.011,0,0.016,0
		c0-10.394,0.021-20.787-0.03-31.181c-0.005-1.085,0.689-2.667-0.697-3.158c-1.042-0.368-1.716,1.026-2.442,1.752
		c-15.043,15.021-30.035,30.095-45.123,45.071c-5.717,5.675-9.924,12.45-12.29,19.902c-4.82,15.181-2.869,29.588,6.845,42.748
		c2.309,3.129,3.808,2.773,6.424,0.897c14.905-10.685,29.871-21.284,44.849-31.867c1.047-0.739,1.877-1.43,1.749-2.793
		c-0.458-4.85,0.81-9.602,0.738-14.444C87.051,1171.652,87.146,1162.675,87.146,1153.699z"/>
	<path fill-rule="evenodd" clip-rule="evenodd" fill="#87CCFE" d="M96.481,1209.639c0.339,0.099,0.81,0.085,0.996,0.31
		c4.003,4.827,9.367,4.783,15.042,4.781c209.712-0.082,419.423-0.067,629.135-0.073c3.188,0,6.375-0.059,9.562-0.09
		c1.02,0.172,1.938-0.135,2.82-0.603c0.923-0.054,1.403-0.519,1.359-1.467c0.008-1.884,0.017-3.768,0.023-5.651
		c3.287-7.419,6.042-14.933,5.015-23.303c-0.361-2.942-0.201-6.025,1.136-8.653c3.839-7.546,4.031-15.588,3.779-23.736
		c-0.066-2.157,0.226-4.381,1.287-6.139c2.897-4.799,3.193-9.958,3.029-15.326c-0.186-6.04,0.488-11.914,3.545-17.374
		c1.253-2.238,1.62-4.895,1.307-7.538c0.013-3.772,0.024-7.546,0.036-11.319c2.775-8.601,6.431-17.015,5.022-26.437
		c-0.445-2.983,0.305-6.028,1.677-8.567c2.934-5.433,3.051-11.241,3.223-17.113c0.064-2.226-0.085-4.427,0.525-6.665
		c0.751-2.755-0.605-4.284-3.526-4.278c-1.181,0.002-2.361-0.004-3.543-0.004c-153.633,0-307.268-0.034-460.901,0.117
		c-6.545,0.006-9.923-4.004-13.817-7.822c-0.43-0.421-0.493-1.291-0.574-1.972c-0.097-0.815-0.035-1.65-0.035-2.477
		c0.002-282.353,0.004-564.703,0.032-847.055c0-2.052-0.505-3.876-1.17-5.804c-0.863-2.504-2.34-3.244-4.779-3.136
		c-2.946,0.132-5.903,0.044-8.855,0.044c-57.392,0.001-114.783,0.118-172.173-0.158c-6.65-0.032-12.332,1.533-17.882,4.67
		c-0.401,0.227-0.877,0.322-1.318,0.478c-0.279-1.92,1.098-2.6,2.143-3.919c3.892-4.915,8.921-3.128,13.484-3.137
		c61.708-0.117,123.416-0.085,185.125-0.085c1.533,0,3.066,0.074,4.599,0.113c0.261,3.774,3.024,6.689,3.023,10.737
		c-0.107,281.068-0.103,562.136-0.108,843.204c0,1.771,0.001,3.543-0.001,5.314c-0.002,0.95-0.016,1.897,0.696,2.664
		c3.531,3.8,6.807,6.986,12.997,6.979c153.407-0.204,306.813-0.161,460.219-0.16c1.181,0,2.37-0.078,3.542,0.03
		c4.597,0.425,5.624,2.096,4.088,6.425c-0.228,0.642-0.198,1.377-0.289,2.068c-0.015,3.771-0.029,7.542-0.043,11.314
		c-1.325,2.664-0.261,5.975-1.877,8.416c-3.581,5.408-3.167,11.401-3.107,17.374c0.035,3.429,0.242,7.134-1.421,10
		c-3.451,5.946-3.812,12.237-3.51,18.737c0.251,5.423-0.701,10.523-3.4,15.286c-0.662,1.169-1.578,2.486-0.26,3.863
		c-0.018,0.679-0.034,1.357-0.05,2.037c-1.582,0.438-1.244,1.751-1.248,2.854c-0.012,3.818,0.022,7.638,0.038,11.457
		c-0.014,0.464-0.026,0.928-0.039,1.392c-1.671,4.173-4.547,7.949-4.215,12.781c-0.014,3.536-0.028,7.071-0.042,10.606
		c-1.566,1.825,0.005,4.251-1.075,6.088c-3.818,6.493-4.262,13.571-3.944,20.838c0.146,3.312,0.006,6.854-1.578,9.642
		c-1.941,3.417-2.549,6.969-3.181,10.658c-0.877,5.115-1.068,5.205-6.325,5.205c-213.475,0.003-426.952,0.003-640.427,0.027
		c-4.368,0.001-8.772,0.475-12.115-3.285c-0.309-0.348-1.114-0.254-1.688-0.364C96.471,1211.507,96.476,1210.573,96.481,1209.639z"
		/>
	<path fill-rule="evenodd" clip-rule="evenodd" fill="#51B5FE" d="M1225.189,633.307c-1.604,0.567-3.441-0.358-4.957,0.774
		c-0.446,0.063-0.893,0.125-1.339,0.187c-0.753-0.032-1.582-0.218-1.794,0.867c-0.762-0.188-1.343,0-1.643,0.779
		c-1.443,0.144-1.639,1.202-1.718,2.346c0,0,0.084,0.097,0.085,0.098c-0.665-0.033-1.33-0.067-1.996-0.101
		c-0.478-0.209-0.956-0.417-1.434-0.626c-1.201-0.792-2.287-1.077-2.916,0.661c-0.484,0.253-0.969,0.506-1.453,0.761
		c-1.057-0.026-2.028,0.011-2.847,0.936c-2.036,2.3-4.631,2.891-7.568,2.181c-0.896-0.202-1.429,0.18-1.66,1.041
		c-0.512,0.269-1.128,0.431-1.518,0.82c-3.871,3.862-10.039,3.371-13.846,7.332c-1.005-0.175-1.956-0.222-2.363,1.007
		c-3.085-0.516-3.322,3.089-5.54,3.829c-1.272,0.234-2.928-0.687-3.648,1.209c-3.247,2.294-6.584,4.475-9.698,6.937
		c-1.332,1.053-2.508,2.016-4.276,1.875c-0.926-0.139-1.438,0.28-1.593,1.181c-1.451,2.244-4.126,2.969-5.931,4.618
		c-5.33,4.869-10.27,10.162-15.361,15.29c-0.83,0.224-1.651,0.452-0.695,1.501c-0.001,0.951-0.002,1.902-0.004,2.854
		c-1.104,1.357-0.566,2.959-0.566,4.437c-0.026,168.813-0.025,337.627-0.025,506.44c0,1.417,0.006,2.833-0.002,4.249
		c-0.006,0.97,0.001,1.924,1.14,2.328c-0.155,1.135-0.31,2.269-0.465,3.402c-0.58,0.326-0.681,0.857-0.621,1.455
		c-0.479,0.468-0.958,0.934-1.437,1.401c-4.016-0.326-7.935,0.715-11.961,0.708c-60.107-0.095-120.215-0.078-180.322-0.037
		c-3.792,0.002-7.522-0.078-11.124-1.403c-1.09-0.64-2.007-1.417-2.197-2.769c-1.673-3.722-0.622-7.598-0.622-11.408
		c-0.01-178.996-0.009-357.992-0.009-536.988c0-0.826,0.05-1.656-0.008-2.479c-0.182-2.622,1.231-0.455,1.861-0.632
		c0.348,1.205,0.693,2.41,1.038,3.615c-2.965,3.3-0.722,7.013-0.724,10.5c-0.06,175.148-0.052,350.296-0.057,525.444
		c0,1.525-0.11,3.015-0.454,4.544c-1.237,5.5,2.009,9.463,7.557,9.463c64.013,0.001,128.024-0.001,192.037-0.002
		c0.708,0,1.418,0.004,2.126-0.004c2.764-0.03,4.021-1.57,3.364-4.115c-0.609-2.355-0.512-4.679-0.512-7.021
		c-0.014-170.306-0.013-340.612-0.012-510.917c0-1.182-0.031-2.364,0.019-3.543c0.068-1.622,0.669-3.225,2.06-3.915
		c2.333-1.158,3.683-3.247,5.461-4.923c4.893-4.611,9.762-9.248,14.625-13.89c1.001-0.956,2.322-1.108,3.538-1.489
		c0.776-0.243,1.565-0.297,2.285-0.818c4.576-3.314,7.788-8.797,14.385-8.978c0.615-0.017,1.069-1.527,1.811-2.029
		c4.098-2.774,8.944-4.256,12.857-7.376c0.219-0.174,0.726,0.068,1.04-0.045c4.733-1.711,8.862-5.03,14.146-5.303
		c0.265-0.014,0.537-0.443,0.756-0.718c2.019-2.536,4.725-3.401,7.842-3.169c1.989,0.147,3.728-0.167,5.036-1.874
		c1.987-2.591,4.769-3.337,7.864-3.081c3.197,0.265,6.104-0.043,8.127-2.985c0.72-1.046,1.878-1.219,3.123-1.33
		c3.022-0.266,6.777,0.287,8.89-1.293c4.832-3.613,9.993-3.723,15.444-3.643c1.488,0.022,3.268,0.551,4.349-0.854
		c3.161-4.116,7.625-4.136,12.129-4.081c5.405,0.065,10.903,0.629,15.205-3.809c0.404-0.417,1.325-0.337,2.009-0.476
		c7.136-1.441,14.351-0.391,21.523-0.653c2.84-0.104,5.706-0.308,8.316-1.243c5.607-2.008,11.363-2.964,17.247-3
		c16.534-0.098,33.069-0.085,49.604,0.009c2.835,0.016,3.979-0.755,3.977-3.793c-0.07-64.366-0.068-128.733-0.026-193.1
		c0.002-3.165-1.17-4.547-4.385-4.427c-8.354,0.313-16.713,0.499-25.069,0.757c-0.578,0.018-1.191,0.113-1.721,0.335
		c-7.847,3.285-16.204,3.446-24.479,3.799c-4.412,0.188-8.739-0.085-12.161,3.441c-0.513,0.529-1.49,0.771-2.278,0.839
		c-3.626,0.313-7.26,0.649-10.896,0.707c-2.021,0.032-3.733,0.337-4.982,2.03c-1.393,1.888-3.298,2.184-5.55,2.399
		c-3.102,0.297-6.781-0.5-9.218,1.394c-5.735,4.459-13.166,4.232-19.177,7.7c-0.274,0.159-0.723-0.014-1.044,0.1
		c-1.208,0.425-2.556,0.511-3.554,1.462c-1.109,1.057-2.323,3.057-3.352,2.972c-6.027-0.504-8.982,5.973-14.676,6.079
		c-2.398,0.045-3.075,3.442-5.465,3.583c-4.527,0.269-6.411,5.542-10.981,5.58c-2.521,4.65-8.19,4.673-11.818,8.191
		c-4.076,3.952-10.173,5.463-14.585,9.77c-2.759,2.692-5.764,5.886-10.228,6.936c-1.846,0.434-4.207,2.248-5.571,3.974
		c-6.936,8.769-16.501,14.285-25.146,20.941c-0.94,0.724-1.856,1.484-3.16,1.34c-0.042-0.252-0.083-0.504-0.125-0.756
		c3.599-4.071,7.607-7.618,12.306-10.433c2.595-1.555,5.189-3.332,7.239-5.518c2.908-3.101,6.578-5.378,9.292-8.537
		c3.52-4.097,8.96-4.891,12.84-8.462c1.986-1.829,3.648-4.176,6.203-5.571c4.379-2.392,9.124-4.277,12.622-8.09
		c0.532-0.581,1.331-1.013,2.09-1.272c4.703-1.61,8.374-4.884,12.503-7.431c3.788-2.336,8.212-3.643,11.616-6.728
		c0.226-0.205,0.684-0.135,1.019-0.241c4.871-1.532,8.877-5.022,14.036-6.039c1.38-0.272,2.208-2.803,3.88-2.833
		c4.405-0.08,7.784-2.267,11.178-4.627c1.33-0.926,2.942-0.772,4.472-0.735c1.723,0.042,3.447-0.195,4.54-1.549
		c2.545-3.156,6.045-3.36,9.595-3.332c2.2,0.017,4.336-0.114,5.907-1.752c2.271-2.369,5.028-2.747,8.093-2.666
		c5.014,0.133,9.858-0.525,14.111-3.575c1.252-0.898,2.785-1.302,4.345-1.292c8.717,0.058,17.121-0.917,25.714-3.231
		c10.646-2.867,21.995-1.9,33.064-1.637c2.842,0.068,4.879,1.685,4.461,5.093c-0.129,1.045,0,2.122,0.011,3.184
		c-0.049,1.178-0.141,2.355-0.141,3.532c-0.006,61.97-0.006,123.939,0.003,185.909c0,1.413,0.11,2.825,0.169,4.237
		c0.011,0.686,0.021,1.371,0.031,2.057c-0.312,0.431-0.622,0.861-0.933,1.293c-0.717,0.113-1.434,0.226-2.15,0.337
		c-2.338-0.06-4.677-0.12-7.015-0.18c-0.637-1.043-1.354-1.018-2.134-0.161c-0.473,0-0.944,0-1.417,0
		c-1.646-1.011-3.293-1.016-4.94-0.001c-8.518,0.001-17.035,0.001-25.554,0.003c-1.179-0.931-2.215-1.089-2.917,0.544
		c-1.143,0.092-2.285,0.183-3.428,0.275c-1.432-0.048-2.863-0.096-4.294-0.142c-1.587-0.77-3.162-1.468-4.335,0.627
		c-0.674,0.023-1.349,0.047-2.022,0.069c-1.018-0.98-1.274-0.177-1.521,0.648c-0.438,0.025-0.874,0.05-1.312,0.075
		c-1.003-1-1.276-0.214-1.527,0.625c-0.673,0.021-1.345,0.041-2.018,0.062c-1.244-0.893-2.311-1.055-2.912,0.705
		c-0.456,0.129-0.912,0.257-1.368,0.386c-0.796-0.234-1.427,0.163-2.062,0.542c-2.381,0.09-4.859-0.901-7.109,0.639
		c-3.771,0.053-7.539,0.107-11.309,0.159c-1.887-0.544-3.8-0.094-5.699-0.162c-2.183-0.651-3.907-0.1-5.073,1.925
		c-0.878,0.097-1.757,0.194-2.635,0.292c-0.93-0.171-1.442,0.247-1.616,1.144c-0.542,0.094-1.071,0.209-1.33,0.784
		c-1.161,0.083-2.32,0.166-3.481,0.249c-3.105-0.286-6.211-0.573-9.24,0.51c-0.47,0.045-0.938,0.09-1.407,0.134
		c-0.504-0.047-1.007-0.094-1.511-0.141c-1.118,0.089-2.521-0.415-2.836,1.356c-0.226,0.498-0.451,0.997-0.677,1.496l0.008-0.013
		c-1.388-0.055-2.62,0.278-3.528,1.417c-1.165,0.053-2.33,0.104-3.494,0.157c-2.659-0.507-5.364-1.652-7.822,0.576
		c-1.787-0.045-3.315,0.447-4.297,2.074c-1.414,0.702-2.828,1.404-4.242,2.106c-2.609,0.02-5.219,0.039-7.828,0.058
		C1229.99,628.553,1228.046,631.747,1225.189,633.307z"/>
	<path fill-rule="evenodd" clip-rule="evenodd" fill="#C6E7FE" d="M785.975,1037.514c0.09-0.692,0.061-1.428,0.288-2.069
		c1.536-4.329,0.509-6-4.088-6.425c-1.172-0.108-2.361-0.03-3.542-0.03c-153.406-0.001-306.813-0.044-460.219,0.16
		c-6.19,0.008-9.465-3.179-12.997-6.979c-0.711-0.767-0.698-1.714-0.696-2.664c0.002-1.771,0.001-3.543,0.001-5.314
		c0.005-281.068,0.001-562.136,0.108-843.204c0.001-4.048-2.762-6.963-3.023-10.737c0.495-0.025,0.991-0.052,1.487-0.079
		c0.018,1.001-0.007,2.031,1.386,2.143c0.01,0.228,0.022,0.456,0.038,0.684c0.07,2.798,2.278,4.737,2.276,7.876
		c-0.16,280.744-0.149,561.487-0.151,842.231c0,2.126-0.003,4.252-0.005,6.378c0,1.074-0.095,2.203,1.386,2.435
		c1.991,3.949,5.003,5.703,9.615,5.701c155.077-0.079,310.153-0.064,465.23-0.063c0.757,1.029,1.859,0.62,2.849,0.687
		c0.468,0.012,0.936,0.024,1.402,0.036c2.089,2.172,1.465,4.62,0.719,7.079c-0.031,0.686-0.064,1.371-0.095,2.057
		C787.289,1037.449,786.632,1037.481,785.975,1037.514z"/>
	<path fill-rule="evenodd" clip-rule="evenodd" fill="#C6E7FE" d="M1129.558,1212.52c0.155-1.134,0.31-2.268,0.468-3.402
		c0.087-1.173,0.244-2.345,0.244-3.517c0.011-170.109,0.012-340.22-0.013-510.329c0-1.222,0.528-2.638-0.78-3.608
		c0.002-0.952,0.003-1.902,0.006-2.854c0.704-0.282,0.787-0.851,0.693-1.501c5.092-5.127,10.031-10.421,15.361-15.29
		c1.805-1.649,4.479-2.374,5.932-4.617c0.962,0.186,1.459-0.252,1.592-1.182c1.769,0.141,2.944-0.822,4.276-1.875
		c3.114-2.462,6.451-4.643,9.699-6.935c1.347-0.011,3.075,1.125,3.647-1.212c2.218-0.739,2.455-4.344,5.541-3.826
		c1.089,0.365,2.042,0.414,2.362-1.01c3.807-3.961,9.975-3.47,13.846-7.332c0.39-0.39,1.006-0.552,1.519-0.818
		c0.957,0.294,1.461-0.131,1.659-1.043c2.938,0.709,5.532,0.119,7.568-2.181c0.818-0.925,1.79-0.961,2.847-0.936
		c-0.912,3.08-2.729,4.958-6.156,5.168c-3.17,0.194-6.366,0.589-8.379,3.6c-0.064,0.096-0.159,0.228-0.253,0.239
		c-4.546,0.563-7.982,3.631-12.033,5.26c-2.376,0.956-5.1,0.988-6.297,3.811c-0.126,0.3-0.452,0.632-0.753,0.722
		c-3.53,1.047-6.676,2.503-9.479,5.169c-1.182,1.124-3.134,1.73-4.188,3.363c-0.303,0.47-0.79,0.976-1.297,1.138
		c-5.373,1.718-9.274,5.343-13.277,9.174c-3.261,3.122-6.247,6.572-9.813,9.378c-1.947,1.533-2.433,3.446-2.431,5.875
		c0.055,107.573,0.051,215.145,0.053,322.717c0.002,65.063-0.002,130.126,0.021,195.189c0.002,3.591-1.058,6.022-4.096,8.633
		c-2.949,2.532-5.634,2.523-8.763,2.524c-62.347,0.012-124.694,0.018-187.042-0.032c-2.03-0.002-4.515,1.023-6.063-0.72
		c-3.466-3.903-8.581-6.868-8.087-13.268c0.191-2.465,0.028-4.957,0.028-7.437c0-181.964,0-363.929,0.006-545.892
		c0-1.297,0.081-2.593,0.123-3.889c2.336,2.246,1.275,5.143,1.275,7.716c0.061,181.84,0.055,363.681,0.056,545.521
		c0,1.181-0.188,2.403,0.053,3.534c0.419,1.973,0.191,4.352,2.661,5.328c0.19,1.352,1.107,2.129,2.197,2.769
		c1.708,3.264,4.856,2.813,7.691,2.814c62.334,0.036,124.669,0.028,187.005,0.026c0.943,0,2.071,0.306,2.796-0.099
		c1.874-1.047,4.648,0.644,5.915-2.01c0.479-0.468,0.958-0.934,1.437-1.401C1129.867,1213.798,1130.643,1213.556,1129.558,1212.52z"
		/>
	<path fill-rule="evenodd" clip-rule="evenodd" fill="#89A9C0" d="M497.44,705.929c18.524,18.606,37.045,37.215,55.573,55.818
		c10.154,10.196,20.31,20.389,30.485,30.563c1.244,1.245,2.609,2.367,3.918,3.547c1.725,3.066-0.38,4.995-2.095,7.038
		c-0.968,0.854-1.985,1.658-2.896,2.568c-69.79,69.77-139.571,139.547-209.348,209.327c-1.58,1.58-3.106,3.213-4.657,4.822
		c-2.16,0.81-3.968,2.284-6.559,2.26c-13.924-0.128-27.851-0.021-41.777-0.064c-4.927-0.015-8.909-4.05-8.941-8.917
		c-0.199-29.247,0.435-58.499-0.569-87.743c-0.259-7.545,0.045-15.107-0.07-22.659c-0.073-4.739-0.075-9.416,2.137-13.778
		c0.445-0.467,0.891-0.934,1.336-1.401c0.952-0.372,1.405-1.118,1.568-2.084c13.045-12.976,26.119-25.922,39.13-38.932
		c44.882-44.879,89.744-89.779,134.604-134.681c0.91-0.91,1.714-1.927,2.567-2.895C493.604,707.57,495.005,705.714,497.44,705.929z
		 M509.549,721.363c-0.076-0.967-0.434-1.7-1.516-1.838l-0.159-0.159c-0.338-1.313-1.222-2.017-2.521-2.258l-0.023-0.022
		c-0.333-1.542-1.27-2.479-2.812-2.812l-0.023-0.023c-0.42-1.592-1.412-2.66-2.956-3.221c-0.407-1.184-1.289-1.74-2.485-1.881
		c-0.66-1.298-1.323-1.291-1.989-0.004c-0.523,0.239-1.171,0.353-1.551,0.733c-22.395,22.476-44.733,45.009-67.15,67.464
		c-34.93,34.988-69.913,69.925-104.862,104.894c-1.163,1.163-2.209,2.444-3.31,3.67c-0.993,0.284-1.396,1.007-1.466,1.976
		l-0.027,0.037c-1.68,1.061-2.126,2.711-2.125,4.544c0.003,14.696,0.025,29.393,0.014,44.089c-0.001,1.436,0.2,2.599,1.926,2.771
		c-0.03,3.387-0.06,6.773-0.089,10.161c-1.056,2.169-1.147,4.491-1.207,6.851c-0.468,18.511,0.912,36.998,0.673,55.505
		c-0.072,5.543,1.685,7.311,7.337,7.313c12.037,0.006,24.077-0.15,36.109,0.069c4.254,0.078,7.396-1.326,10.338-4.271
		c60.047-60.114,120.144-120.179,180.224-180.259c0.831-0.83,1.574-1.746,2.358-2.622c0.619-0.537,1.276-1.037,1.854-1.616
		c9.725-9.761,19.271-19.709,29.262-29.188c2.901-2.753,2.055-4.008-0.189-6.025c-1.924-1.729-3.597-3.739-5.521-5.468
		c-8.737-7.85-15.686-17.534-25.22-24.562c-0.188-0.943-0.556-1.782-1.259-2.479c-9.631-9.529-19.255-19.067-28.88-28.603
		c-0.032-0.896-0.497-1.361-1.394-1.395c-0.244-0.244-0.488-0.488-0.731-0.731c-0.116-1.282-0.814-1.983-2.095-2.107
		c-0.245-0.245-0.491-0.491-0.736-0.735c-0.123-1.276-0.823-1.977-2.099-2.1c-0.245-0.245-0.491-0.49-0.735-0.735
		c-0.041-0.888-0.503-1.351-1.391-1.39c-0.481-0.481-0.963-0.964-1.444-1.445c-0.124-1.273-0.818-1.977-2.097-2.096L509.549,721.363
		z"/>
	<path fill-rule="evenodd" clip-rule="evenodd" fill="#87CCFE" d="M921.896,1211.875c-2.47-0.977-2.242-3.355-2.661-5.328
		c-0.24-1.131-0.053-2.354-0.053-3.534c-0.001-181.84,0.005-363.681-0.056-545.521c0-2.574,1.061-5.471-1.275-7.716
		c-1.86-6.961-4.932-13.483-7.354-20.241c-0.529-1.475-1.415-2.663-3.018-3.253c-7.933-2.92-15.843-5.905-23.771-8.838
		c-5.07-1.876-9.934-4.313-15.234-5.581c-1.388-0.332-2.302-1.433-2.174-2.863c0.141-1.583,0.947-3.116,2.577-3.508
		c11.59-2.789,22.182-8.358,33.487-11.914c4.634-1.458,7.71-3.894,9.634-8.794c3.928-10.002,6.29-19.987,5.976-30.881
		c-0.524-18.167,0.117-36.365-0.252-54.539c-0.207-10.189-0.32-20.496-2.72-30.482c-3.582-14.905-1.585-30.011-2.07-45.022
		c-0.117-3.631,2.197-5.567,5.759-5.613c1.18-0.016,2.361,0.023,3.541,0.003c2.46-0.042,5.134,0.594,6.796-2.074
		c1.744,3.681,5.331,3.937,8.667,4.659c1.332,0.415,2.699,0.745,3.993,1.261c2.386,0.952-0.805,0.924-0.306,1.574
		c-6.013,0.02-12.024,0.048-18.037,0.057c-7.688,0.012-7.254-0.913-7.069,7.29c0.165,7.278-0.978,14.646,0.829,21.822
		c2.645,10.509,4.255,21.073,4.147,31.974c-0.223,22.87-0.062,45.743-0.04,68.615c0.002,1.527,0.149,3.053,0.23,4.579
		c-0.096,1.391-0.228,2.779-0.28,4.172c-0.119,3.126-2.063,5.84-2.003,9.001c-0.061,0.448-0.121,0.897-0.183,1.345
		c-0.629,0.396-0.961,0.975-1.196,1.678c-1.496,4.464-2.999,8.926-4.553,13.37c-1.063,3.037-3.08,5.345-6.074,6.475
		c-11.337,4.28-22.538,8.93-34.087,12.642c-1.196,0.384-2.748,0.714-2.76,2.327c-0.011,1.504,1.505,1.585,2.567,1.982
		c11.47,4.286,22.936,8.58,34.42,12.829c2.454,0.908,4.382,2.392,5.314,4.829c3.983,10.409,7.979,20.817,10.508,31.71
		c-0.628,0.177-2.041-1.99-1.859,0.632c0.058,0.823,0.008,1.653,0.008,2.479c0,178.996-0.001,357.992,0.009,536.988
		C921.273,1204.277,920.223,1208.153,921.896,1211.875z"/>
	<path fill-rule="evenodd" clip-rule="evenodd" fill="#E4F0F8" d="M312.643,888.71c-2.212,4.362-2.209,9.039-2.137,13.778
		c0.115,7.552-0.189,15.114,0.07,22.659c1.004,29.244,0.37,58.496,0.569,87.743c0.033,4.867,4.015,8.902,8.941,8.917
		c13.926,0.044,27.853-0.063,41.777,0.064c2.591,0.024,4.399-1.45,6.559-2.26c-0.626,3.486-3.742,3.575-6.023,3.561
		c-6.899-0.044-13.698,1.328-20.718,0.34c-6.537-0.92-13.316-0.439-19.966-0.112c-3.854,0.188-6.833-0.959-9.468-3.555
		c-0.818-0.806-1.567-1.874-3.002-1.233c-1.605,0.717-1.231,2.034-1.02,3.307c-1.482-0.231-1.387-1.36-1.387-2.435
		c0.002-2.126,0.005-4.252,0.005-6.378c0.001-280.744-0.009-561.488,0.151-842.231c0.002-3.139-2.207-5.078-2.276-7.876
		c4.215,1.812,3.486,5.903,4.208,9.287c0.241,1.129,0.041,2.353,0.041,3.534c0,236.108,0,472.217,0,708.324c0,0.709,0,1.417,0,2.126
		C308.97,890.754,308.97,890.754,312.643,888.71z"/>
	<path fill-rule="evenodd" clip-rule="evenodd" fill="#206394" d="M637.61,748.46c-0.286,1.145-0.758,2.229-1.616,3.075
		c-6.054,5.961-12.199,11.832-18.153,17.892c-2.5,2.544-4.114,1.076-5.884-0.695c-17.696-17.706-35.378-35.425-53.086-53.118
		c-11.026-11.017-22.085-22-33.137-32.99c-2.954-2.937-2.981-3.751-0.077-6.655c5.594-5.593,11.192-11.183,16.795-16.767
		c3.167-3.156,3.964-3.117,7.183,0.106c28.625,28.655,57.254,57.305,85.894,85.943C636.459,746.18,637.397,747.057,637.61,748.46z
		 M577.607,692.343c-0.099-1.617-1.441-2.371-2.393-3.37c-8.786-9.219-18.39-17.638-26.684-27.342
		c-1.472-1.723-2.994-2.301-4.974-0.216c-4.796,5.049-9.683,10.026-14.783,14.765c-2.58,2.397-2.429,3.985,0.117,6.191
		c8.108,7.026,15.464,14.844,23.136,22.331c1.143,1.115,1.729,2.876,3.538,3.276c0.119,0.203,0.201,0.442,0.361,0.603
		c11.852,11.879,23.73,23.73,35.546,35.646c1.882,1.896,3.549,1.312,5.318,0.063c5.458-3.856,10.864-7.789,16.372-11.573
		c2.438-1.675,3.06-2.919,0.569-5.355c-11.105-10.862-22.014-21.926-33.009-32.902C579.828,693.567,579.109,692.361,577.607,692.343
		z"/>
	<path fill-rule="evenodd" clip-rule="evenodd" fill="#C6E7FE" d="M96.466,1212.44c0.574,0.11,1.379,0.017,1.688,0.364
		c3.343,3.76,7.747,3.286,12.115,3.285c213.476-0.024,426.952-0.024,640.427-0.027c5.257,0,5.448-0.09,6.325-5.205
		c0.632-3.689,1.239-7.241,3.181-10.658c1.584-2.787,1.724-6.33,1.578-9.642c-0.317-7.267,0.126-14.345,3.944-20.838
		c1.08-1.837-0.491-4.263,1.074-6.088c1.83,3.684-0.147,7.111-0.717,10.634c-0.007,0.229-0.018,0.459-0.031,0.688
		c-0.941,0.395-1.408,1.104-1.41,2.124c-0.553,0.318-0.681,0.846-0.702,1.426c-0.843,0.527-0.696,1.358-0.665,2.156
		c-0.015,4.478-0.031,8.955-0.047,13.434c-1.069,1.405-1.044,2.822-0.043,4.249c-0.003,0.461-0.006,0.921-0.008,1.382
		c-1.971,1.409-2.873,3.471-3.485,5.71c-0.5,1.699-0.74,3.415-0.778,5.207c-0.124,5.915-1.692,7.393-7.701,7.509
		c-2.007,0.039-4.015,0.021-6.021,0.021c-211.958,0.001-423.916-0.001-635.874,0.014c-3.553,0.001-6.993-0.354-10.4-1.504
		C96.628,1215.91,96.027,1214.578,96.466,1212.44z"/>
	<path fill-rule="evenodd" clip-rule="evenodd" fill="#89A9C0" d="M641.641,383.37c-0.081-1.376,0.392-2.178,1.826-2.589
		c13.559-3.888,26.425-9.705,39.685-14.439c12.137-4.333,23.957-9.563,36.223-13.588c2.377-0.78,2.918-3.074,3.629-4.926
		c5.335-13.91,10.239-27.99,15.813-41.801c3.195-7.917,5.609-16.127,9.271-23.871c1.343-2.839,1.787-6.088,2.93-9.04
		c1.154-2.98,3.035-2.995,5.009-0.399c1.346,1.771,1.538,3.935,2.285,5.892c5.949,15.581,11.595,31.278,17.658,46.813
		c2.969,7.608,6.029,15.17,8.556,22.941c0.682,2.097,2.112,3.657,4.262,4.456c18.158,6.752,36.314,13.507,54.471,20.264
		c6.931,2.58,13.855,5.175,20.79,7.743c2.455,0.91,2.97,2.568,1.318,4.56c-0.912,1.102-1.968,2.073-3.404,2.43
		c-7.217,1.791-13.95,4.878-20.847,7.56c-8.393,3.264-17.1,5.753-25.38,9.264c-7.892,3.346-15.83,6.692-24.009,9.002
		c-7.598,2.147-7.865,8.538-10.123,13.826c-2.42,5.667-4.139,11.629-6.338,17.396c-4.518,11.847-9.163,23.645-13.733,35.473
		c-1.608,4.164-3.235,8.323-4.68,12.545c-0.629,1.836-1.712,2.979-3.549,2.706c-1.658-0.247-2.846-1.289-3.292-3.22
		c-2.338-10.131-6.943-19.45-10.599-29.11c-2.205-5.831-4.243-11.724-6.433-17.561c-3.579-9.539-7.208-19.059-10.852-28.574
		c-0.463-1.211-1.679-1.575-2.788-1.998c-10.514-3.999-20.924-8.305-31.57-11.915c-9.438-3.201-18.388-7.622-27.978-10.464
		c-5.012-1.486-9.618-4.293-14.844-5.439C643.133,386.91,641.41,385.766,641.641,383.37z M753.781,492.394
		c1.568,0.004,1.802-1.262,2.214-2.35c8.979-23.69,17.986-47.37,26.896-71.085c1.169-3.112,3.063-5.059,6.187-6.225
		c23.739-8.859,47.445-17.806,71.155-26.745c1.072-0.404,2.48-0.671,2.579-2.1c0.119-1.72-1.482-1.946-2.638-2.383
		c-23.92-9.032-47.842-18.061-71.791-27.019c-2.503-0.936-4.307-2.384-5.242-4.867c-9.007-23.922-18.003-47.848-27.015-71.768
		c-0.474-1.258-0.479-3.214-2.268-3.134c-1.577,0.071-1.979,1.868-2.458,3.167c-1.673,4.534-3.189,9.125-4.901,13.644
		c-6.848,18.071-14.002,36.032-20.472,54.237c-1.964,5.526-5.113,8.394-10.395,10.324c-22.791,8.332-45.473,16.959-68.188,25.499
		c-1.065,0.4-2.439,0.685-2.354,2.234c0.07,1.281,1.24,1.657,2.214,2.025c7.716,2.914,15.452,5.776,23.17,8.683
		c16.102,6.065,32.196,12.147,48.294,18.225c3.038,1.148,5.033,3.175,6.189,6.32c4.675,12.713,9.487,25.376,14.287,38.043
		c4.176,11.02,8.413,22.017,12.596,33.035C752.228,491.167,752.451,492.227,753.781,492.394z"/>
	<path fill-rule="evenodd" clip-rule="evenodd" fill="#C6E7FE" d="M1392.639,412.343c-0.011-1.062-0.14-2.139-0.011-3.184
		c0.418-3.408-1.619-5.025-4.461-5.093c-11.069-0.264-22.419-1.23-33.064,1.637c-8.593,2.315-16.997,3.29-25.714,3.231
		c-1.56-0.01-3.093,0.394-4.345,1.292c-4.253,3.049-9.098,3.708-14.111,3.575c-3.064-0.081-5.821,0.296-8.093,2.666
		c-1.571,1.638-3.707,1.769-5.907,1.752c-3.55-0.028-7.05,0.175-9.595,3.332c-1.093,1.354-2.817,1.591-4.54,1.549
		c-1.529-0.037-3.142-0.19-4.472,0.735c-3.394,2.36-6.772,4.548-11.178,4.627c-1.672,0.031-2.5,2.562-3.88,2.833
		c-5.159,1.017-9.165,4.506-14.036,6.039c-0.335,0.105-0.793,0.036-1.019,0.241c-3.404,3.085-7.828,4.391-11.616,6.728
		c-4.129,2.547-7.8,5.82-12.503,7.431c-0.759,0.26-1.558,0.692-2.09,1.272c-3.498,3.813-8.243,5.699-12.622,8.09
		c-2.555,1.395-4.217,3.742-6.203,5.571c-3.88,3.571-9.32,4.365-12.84,8.462c-2.714,3.159-6.384,5.437-9.292,8.537
		c-2.05,2.187-4.645,3.963-7.239,5.518c-4.698,2.815-8.707,6.362-12.306,10.433c-1.708,0.175-2.644,1.128-2.846,2.822
		c-0.472,0.473-0.943,0.946-1.415,1.419c-1.035,0.002-1.778,0.418-2.084,1.461c-0.235,0.236-0.472,0.472-0.707,0.708
		c-1.217,0.532-2.064,1.36-2.208,2.753c-1.636,1.672-3.271,3.345-4.906,5.018c-1.384,0.029-2.089,0.74-2.129,2.12l-0.001-0.001
		c-1.001,0.365-1.464,1.082-1.394,2.144c-1.429,0.938-2.623,2.107-3.531,3.562c-1.704,0.518-2.306,2.816-4.337,2.757
		c-4.626-0.135-9.862,1.506-12.61-4.284c-0.176-0.37-1.013-0.426-1.543-0.628c-0.236-0.237-0.474-0.474-0.71-0.711
		c-0.268-1.274-0.408-2.6-1.455-3.555c-0.006-1.183-0.012-2.367-0.019-3.551c1-0.711,1.007-1.417-0.012-2.116
		c-0.005-0.688-0.01-1.376-0.015-2.064c0.373-3.397,0.205-6.787-0.625-10.084c-1.465-5.821-1.532-11.922-3.591-17.617
		c-0.033-4.456-0.065-8.913-0.099-13.369c0.314-5.824-3.8-10.282-4.84-15.688c0.047-2.384,0.176-4.776-0.685-7.073
		c-0.596-2.321-2.337-3.713-4.115-5.074c-0.01-0.676-0.019-1.352-0.028-2.028c1.031-1.114,0.674-1.82-0.659-2.239
		c-0.054-0.428-0.108-0.857-0.163-1.286c0.053-1.064-0.389-1.791-1.437-2.104l-0.009,0c-0.482-1.708-0.947-3.426-2.643-4.406
		c-0.02-0.215-0.049-0.428-0.087-0.639c-0.004-1.524-0.312-2.793-2.257-2.686c-0.448-0.02-0.896-0.04-1.343-0.06
		c-3.808-0.961-7.581-2.161-11.551-2.183c-9.056-0.05-18.112-0.015-27.17-0.026c-0.912-0.001-2.465,0.387-1.026-1.389
		c0.777-0.896,2.591-0.373,2.804-2.043c9.3,0.228,18.663-0.939,27.885,0.741c4.1,0.747,7.937,2.764,12.155,3.261
		c0.22,0.026,0.529,0.147,0.617,0.317c2.209,4.282,6.813,7.342,6.837,12.694c0.011,2.356,0.652,4.142,2.477,5.511
		c2.087,1.566,2.851,3.591,2.579,6.174c-0.42,4.002,0.353,7.606,3.082,10.858c1.957,2.331,1.68,5.535,1.809,8.425
		c0.258,5.755-0.9,11.71,0.989,17.226c3.395,9.901,3.384,20.046,3.304,30.261c-0.035,4.492,5.355,8.75,9.778,8.815
		c5.966,0.088,8.692-3.749,11.932-7.669c2.12-2.567,4.803-4.742,7.13-7.211c3.905-4.144,7.825-8.298,12.036-12.122
		c4.092-3.716,8.479-7.083,13.112-10.18c5.916-3.955,10.749-9.297,16.16-13.868c2.95-2.493,6.658-4.552,10.217-6.489
		c0.61-0.333,1.321-0.579,1.791-1.057c3.991-4.059,8.365-7.381,13.891-9.292c2.523-0.873,4.801-3.169,6.641-4.922
		c3.437-3.276,8.005-4.296,11.64-7.264c3.095-2.528,7.405-4.867,11.519-6.275c2.356-0.807,4.768-0.768,5.994-3.373
		c0.139-0.292,0.542-0.703,0.774-0.674c6.62,0.821,10.027-7.052,16.673-6.149c1.012,0.138,2.017-0.332,2.411-1.202
		c1.483-3.28,4.283-3.227,7.178-3.059c1.935,0.113,3.871-0.004,5.265-1.517c2.638-2.864,5.964-3.684,9.638-3.391
		c2.54,0.203,4.585-0.391,6.241-2.454c1.074-1.338,2.652-1.948,4.417-1.84c4.743,0.29,9.384-0.369,13.979-1.468
		c6.053-3.048,12.558-2.986,19.091-2.846c1.216,0.026,2.604,0.484,3.607-0.725c0.457-0.005,0.915-0.011,1.374-0.015
		c0.795-0.139,1.685-0.095,2.371-0.447c5.163-2.649,10.642-3.411,16.369-3.089c1.32,0.074,2.848,0.578,3.979-0.708
		c7.325-0.005,14.65-0.011,21.976-0.015c0.728,1.12,1.857,0.688,2.86,0.741c0.24,0.242,0.481,0.484,0.722,0.727
		c2.394,3.982,2.763,8.456,2.767,12.896c0.054,61.649,0.037,123.298,0.03,184.947c0,1.177,0.1,2.402-0.188,3.518
		c-0.323,1.258-0.371,3.008-2.466,2.813c-0.011-0.686-0.021-1.372-0.032-2.058c2.078-0.8,1.227-2.612,1.228-3.981
		c0.047-34.908,0.037-69.817,0.037-104.726c0-27.007,0.014-54.014-0.038-81.021C1393.893,414.933,1394.764,413.104,1392.639,412.343
		z"/>
	<path fill-rule="evenodd" clip-rule="evenodd" fill="#E4F0F8" d="M1392.701,608.079c2.095,0.195,2.143-1.556,2.466-2.813
		c0.288-1.115,0.188-2.34,0.188-3.518c0.007-61.649,0.023-123.298-0.03-184.947c-0.004-4.44-0.373-8.914-2.767-12.896
		c0.463,0.072,1.304,0.075,1.332,0.228c0.69,3.748,4.428,5.898,4.416,10.29c-0.171,62.994-0.117,125.987-0.117,188.98
		c0,5.078-0.996,6.251-6.347,7.488c-0.025-0.507-0.05-1.013-0.075-1.519C1392.079,608.94,1392.39,608.51,1392.701,608.079z"/>
	<path fill-rule="evenodd" clip-rule="evenodd" fill="#89A9C0" d="M1060.06,417.475c-0.213,1.671-2.026,1.147-2.804,2.043
		c-2.439-0.306-4.29,1.134-6.292,2.127c-0.763-0.003-1.525-0.005-2.289-0.008c1.606-1.626,3.606-2.524,5.743-3.235
		c0.84-0.28,1.955-0.602,1.89-1.798c-0.059-1.065-0.96-1.559-1.864-1.893c-5.057-1.865-10.138-3.667-15.177-5.575
		c-8.126-3.077-16.239-6.188-24.33-9.356c-2.122-0.831-3.743-2.161-4.602-4.522c-4.615-12.695-9.359-25.343-14.072-38.003
		c-0.439-1.182-0.684-2.889-2.269-2.75c-1.735,0.153-1.842,1.841-1.914,3.282c-0.059,0.688-0.117,1.377-0.176,2.064
		c-0.154,0.264-0.311,0.528-0.466,0.792c-0.099,0.423-0.197,0.847-0.295,1.271c-1.579,1.36-2.784,2.875-2.112,5.157
		c-0.234,0.645-0.47,1.291-0.705,1.936c-1.403,1.429-2.446,3.002-2.048,5.148c-0.753,3.672-3.504,6.654-3.641,10.539
		c-0.216,0.479-0.432,0.958-0.647,1.437c-1.645,4.01-3.289,8.021-4.933,12.031c-2.352,0.318-3.398,2.798-5.592,3.379
		c-2.896,0.536-5.262,2.792-8.388,2.582c-0.877-0.222-1.337,0.245-1.63,0.988c-0.647,0.263-1.296,0.525-1.942,0.789
		c-1.627-0.629-2.784,0.049-3.722,1.338c-0.646,0.228-1.293,0.456-1.938,0.684c-0.964-0.688-1.281,0.031-1.605,0.736
		c-0.212,0.012-0.412,0.069-0.6,0.17c-6.521,0.958-12.192,4.547-18.553,6.013c-0.709,0.164-1.18,0.784-1.134,1.579
		c0.055,0.947,0.832,1.304,1.52,1.762c1.385,0.921,3.625,0.488,4.222,2.653c-3.337-0.721-6.924-0.978-8.668-4.658
		c-0.081-1.681,0.786-2.391,2.356-2.968c11.234-4.132,22.298-8.774,33.672-12.466c6.667-2.164,10.909-5.229,13.087-12.412
		c3.365-11.099,8.132-21.773,12.288-32.633c0.164-0.429,0.175-0.917,0.257-1.376c0.636-0.264,0.783-0.779,0.721-1.403
		c0.477-0.477,0.953-0.955,1.43-1.433c1.926-0.314,3.19,0.671,4.206,2.145c1.049,3.308,1.741,6.785,3.224,9.885
		c2.761,5.778,4.505,11.901,6.746,17.853c1.36,3.613,2.884,7.179,3.991,10.87c1.607,5.358,5.561,7.159,10.575,7.644
		c0.426,1.165,1.338,1.371,2.427,1.231c0.384,0.051,0.769,0.101,1.154,0.151c2.219,2.228,5.181,2.721,8.042,3.448
		c1.085,0.281,2.17,0.561,3.256,0.84c0.434,1.158,1.365,1.327,2.433,1.225c1.891,0.71,3.781,1.421,5.672,2.132
		c0.281,0.63,0.806,0.748,1.421,0.674c1.098,0.352,2.195,0.703,3.295,1.052c0.856,1.467,2.34,1.556,3.789,1.722
		c0.627,0.134,1.253,0.267,1.881,0.398c1.295,1.643,3.334,1.852,5.076,2.635C1060.037,416.084,1060.049,416.78,1060.06,417.475z"/>
	<path fill-rule="evenodd" clip-rule="evenodd" fill="#C6E7FE" d="M772.355,1122.504c-1.318-1.377-0.402-2.694,0.26-3.863
		c2.699-4.763,3.651-9.863,3.4-15.286c-0.302-6.5,0.059-12.791,3.51-18.737c1.663-2.866,1.456-6.571,1.421-10
		c-0.06-5.973-0.474-11.966,3.107-17.374c1.616-2.441,0.552-5.752,1.876-8.416c1.167,0.998,0.479,2.367,0.712,3.553
		c-0.008,0.702-0.016,1.405-0.023,2.108c-0.904,0.687-0.909,1.395-0.051,2.123c-0.005,0.459-0.009,0.917-0.013,1.376
		c-1.848,1.488-3.241,3.251-3.472,5.722c-1.435,5.377-0.409,10.863-0.723,16.291c-0.947,3.396-1.265,7.01-3.366,10.01
		c-0.893,1.273-1.325,2.689-1.539,4.198c-0.019,5.421-0.036,10.843-0.055,16.264c-1.031,0.763-0.622,1.864-0.675,2.857
		c-0.015,0.7-0.03,1.401-0.045,2.103c-1.079,1.572-3.036,2.646-2.827,4.953C773.815,1121.417,773.845,1122.497,772.355,1122.504z"/>
	<path fill-rule="evenodd" clip-rule="evenodd" fill="#C6E7FE" d="M1348.559,609.37c8.519,0,17.036-0.001,25.554,0
		c-0.01,0.299-0.018,0.597-0.027,0.896c-0.251,0.236-0.503,0.474-0.755,0.711c-6.105-0.002-12.21-0.003-18.315-0.007
		c-2.116-0.478-4.401,0.597-6.428-0.699C1348.577,609.971,1348.568,609.67,1348.559,609.37z"/>
	<path fill-rule="evenodd" clip-rule="evenodd" fill="#E4F0F8" d="M1318.843,613.787c0.635-0.379,1.266-0.777,2.062-0.545
		c0.903,2.04,2.57,1.108,3.951,0.925c3.348-0.441,6.514-1.875,9.948-1.881c0.925-0.002,1.604-0.292,1.776-1.3
		c0.459,0.009,0.918,0.018,1.377,0.026c0.805,0.906,1.922,0.434,2.882,0.654c-0.137,0.6-0.369,1.175-1.055,1.251
		c-6.156,0.684-12.063,2.943-18.331,2.907c-0.922-0.005-1.909,0.194-2.644-0.629
		C1318.821,614.725,1318.832,614.256,1318.843,613.787z"/>
	<path fill-rule="evenodd" clip-rule="evenodd" fill="#E4F0F8" d="M1373.33,610.977c0.252-0.237,0.504-0.475,0.755-0.712
		c1.668,0.002,3.335,0.004,5.002,0.007c0.447,0.657,0.896,0.659,1.348,0.003c0.762-0.135,1.648,0.092,2.169-0.745
		c2.338,0.06,4.677,0.12,7.015,0.177c0.03,0.437,0.06,0.875,0.089,1.314C1387.49,612.888,1375.479,612.855,1373.33,610.977z"/>
	<path fill-rule="evenodd" clip-rule="evenodd" fill="#E4F0F8" d="M766.082,1174.266c0.569-3.522,2.547-6.95,0.717-10.634
		c0.015-3.535,0.029-7.07,0.043-10.606c0.448-0.012,0.898-0.023,1.349-0.035c1.332,5.495,0.915,11.035,0.172,16.529
		C768.137,1171.191,769.19,1173.845,766.082,1174.266z"/>
	<path fill-rule="evenodd" clip-rule="evenodd" fill="#E4F0F8" d="M1367.001,402.452c-1.132,1.287-2.659,0.783-3.979,0.708
		c-5.728-0.322-11.206,0.44-16.369,3.089c-0.687,0.352-1.576,0.309-2.371,0.447c1.722-2.872,4.884-3.41,7.631-4.14
		C1356.853,401.245,1361.962,401.293,1367.001,402.452z"/>
	<path fill-rule="evenodd" clip-rule="evenodd" fill="#E4F0F8" d="M1342.907,406.711c-1.004,1.208-2.392,0.751-3.607,0.725
		c-6.533-0.141-13.038-0.203-19.091,2.846c0.153-2.055,2.012-2.959,3.332-3.18C1329.95,406.031,1336.424,405.264,1342.907,406.711z"
		/>
	<path fill-rule="evenodd" clip-rule="evenodd" fill="#E4F0F8" d="M1233.715,628.546c2.609-0.02,5.219-0.039,7.828-0.058
		c1.152,1.488,2.395-0.431,3.572,0.095l0.047,0.047c-1.2,2.292-3.376,2.101-5.435,2.064c-3.513-0.063-7.03-0.429-9.506,3.023
		c-0.42,0.586-1.972,2.412-2.819-0.084c0.347-0.271,0.706-0.526,1.038-0.813C1230.154,631.342,1232.723,630.916,1233.715,628.546z"
		/>
	<path fill-rule="evenodd" clip-rule="evenodd" fill="#E4F0F8" d="M786.642,1052.38c-0.233-1.186,0.455-2.555-0.712-3.553
		c0.015-3.772,0.029-7.544,0.044-11.314c0.658-0.031,1.315-0.063,1.972-0.097c0.023,4.074,0.063,8.149,0.063,12.224
		C788.009,1050.751,788.339,1052.089,786.642,1052.38z"/>
	<path fill-rule="evenodd" clip-rule="evenodd" fill="#E4F0F8" d="M1294.726,614.422c1.899,0.068,3.813-0.382,5.699,0.162
		c-0.037,0.703-0.046,1.765-0.802,1.74c-4.064-0.135-7.156,2.57-10.832,3.521c-0.936,0.243-1.832,0.437-2.597-0.383
		c1.044-1.546,4.159,0.092,4.32-2.811C1291.934,615.939,1293.875,616.211,1294.726,614.422z"/>
	<path fill-rule="evenodd" clip-rule="evenodd" fill="#E4F0F8" d="M1257.904,623.732c1.164-0.053,2.329-0.104,3.494-0.156
		c1.917,1.372,2.895,0.405,3.528-1.417l-0.008,0.013c1.048,0.095,2.047,0.107,2.204-1.303c0.3-0.59,0.819-0.715,1.419-0.668
		c1.085,0.925,1.253,0.115,1.4-0.738c0.469-0.045,0.938-0.09,1.407-0.134c0.002,0.297,0.004,0.594,0.006,0.891
		c-3.629,4.407-9.007,6.358-13.489,4.894C1257.878,624.651,1257.891,624.191,1257.904,623.732z"/>
	<path fill-rule="evenodd" clip-rule="evenodd" fill="#E4F0F8" d="M1348.587,610.271c2.026,1.295,4.312,0.221,6.428,0.699
		c-0.253,0.37-0.494,1.05-0.763,1.061c-4.025,0.161-8.076,0.886-12.058-0.369c0.006-0.491,0.013-0.981,0.02-1.471
		c1.143-0.092,2.285-0.184,3.429-0.273C1346.624,610.036,1347.605,610.154,1348.587,610.271z"/>
	<path fill-rule="evenodd" clip-rule="evenodd" fill="#E4F0F8" d="M777.455,1094.208c0.214-1.509,0.646-2.925,1.539-4.198
		c2.102-3,2.419-6.614,3.366-10.01c1.845,2.725,0.383,5.668-0.465,7.929C781.077,1090.111,779.773,1092.718,777.455,1094.208z"/>
	<path fill-rule="evenodd" clip-rule="evenodd" fill="#C6E7FE" d="M771.097,1138.854c-0.017-3.82-0.051-7.64-0.039-11.458
		c0.004-1.104-0.334-2.416,1.248-2.854c0.041,4.758,0.084,9.518,0.127,14.276C771.986,1138.829,771.542,1138.841,771.097,1138.854z"
		/>
	<path fill-rule="evenodd" clip-rule="evenodd" fill="#C6E7FE" d="M768.19,1152.99c-0.45,0.012-0.9,0.023-1.349,0.035
		c-0.332-4.832,2.544-8.608,4.214-12.781c0.579,0.31,0.657,0.872,0.725,1.439c-0.017,0.698-0.033,1.396-0.05,2.095
		c-1.721,0.909-1.642,2.721-2.127,4.248c-0.556,0.315-0.684,0.841-0.704,1.422c-0.584,0.313-0.7,0.845-0.672,1.443
		C768.215,1151.592,768.203,1152.291,768.19,1152.99z"/>
	<path fill-rule="evenodd" clip-rule="evenodd" fill="#E4F0F8" d="M788.04,1035.359c0.746-2.459,1.37-4.907-0.719-7.079
		c1.938-0.027,2.918,0.678,3.366,2.658C791.199,1033.197,790.601,1034.891,788.04,1035.359z"/>
	<path fill-rule="evenodd" clip-rule="evenodd" fill="#87CCFE" d="M1233.715,628.546c-0.992,2.37-3.561,2.796-5.274,4.275
		c-0.332,0.287-0.691,0.542-1.038,0.813c-0.737-0.107-1.475-0.214-2.213-0.324C1228.046,631.747,1229.99,628.553,1233.715,628.546z"
		/>
	<path fill-rule="evenodd" clip-rule="evenodd" fill="#C6E7FE" d="M1257.904,623.732c-0.014,0.459-0.026,0.919-0.038,1.38
		c-2.59,0.027-5.18,0.053-7.77,0.078c-0.005-0.295-0.01-0.589-0.015-0.882C1252.54,622.08,1255.245,623.225,1257.904,623.732z"/>
	<path fill-rule="evenodd" clip-rule="evenodd" fill="#C6E7FE" d="M1271.355,620.218c-0.002-0.297-0.004-0.594-0.006-0.891
		c3.029-1.084,6.135-0.797,9.24-0.512c-0.009,0.441-0.018,0.884-0.026,1.326C1277.494,620.167,1274.426,620.192,1271.355,620.218z"
		/>
	<path fill-rule="evenodd" clip-rule="evenodd" fill="#E4F0F8" d="M1250.082,624.308c0.005,0.293,0.01,0.587,0.015,0.882
		c-1.212,1.769-2.533,3.381-4.936,3.44c0.001,0-0.046-0.047-0.046-0.047c0.224-0.733,0.446-1.468,0.67-2.202
		C1246.767,624.755,1248.295,624.262,1250.082,624.308z"/>
	<path fill-rule="evenodd" clip-rule="evenodd" fill="#E4F0F8" d="M585.323,802.895c1.714-2.043,3.819-3.972,2.095-7.038
		c2.205,0.384,2.399,2.132,2.084,3.715C589.084,801.666,587.707,803.034,585.323,802.895z"/>
	<path fill-rule="evenodd" clip-rule="evenodd" fill="#C6E7FE" d="M1290.515,616.651c-0.161,2.903-3.276,1.265-4.32,2.811
		c-0.694,0.02-1.39,0.038-2.085,0.054c-0.013-0.317-0.025-0.633-0.038-0.949c0.259-0.575,0.788-0.69,1.331-0.783
		c0.983,0.245,1.465-0.217,1.615-1.146c0.878-0.098,1.757-0.194,2.636-0.29C1289.941,616.452,1290.228,616.552,1290.515,616.651z"/>
	<path fill-rule="evenodd" clip-rule="evenodd" fill="#E4F0F8" d="M1033.203,404.711c-2.861-0.727-5.823-1.221-8.042-3.448
		C1028.01,402.016,1031.25,401.863,1033.203,404.711z"/>
	<path fill-rule="evenodd" clip-rule="evenodd" fill="#C6E7FE" d="M1318.843,613.787c-0.011,0.469-0.021,0.938-0.033,1.409
		c-2.341-0.423-4.855,0.754-7.076-0.77C1313.983,612.885,1316.462,613.876,1318.843,613.787z"/>
	<path fill-rule="evenodd" clip-rule="evenodd" fill="#E4F0F8" d="M759.69,1205.435c0.612-2.239,1.515-4.301,3.485-5.71
		C763.396,1202.471,762.297,1204.412,759.69,1205.435z"/>
	<path fill-rule="evenodd" clip-rule="evenodd" fill="#E4F0F8" d="M497.44,705.929c-2.435-0.215-3.837,1.641-5.592,2.789
		c-0.392-2.917,2.103-3.172,3.833-4.036C496.76,704.142,497.421,704.708,497.44,705.929z"/>
	<path fill-rule="evenodd" clip-rule="evenodd" fill="#E4F0F8" d="M997.044,353.63c-1.016-1.474-2.28-2.459-4.206-2.145
		c0.438-2.122,2.079-1.661,3.149-1.068C997.004,350.979,998.354,352.027,997.044,353.63z"/>
	<path fill-rule="evenodd" clip-rule="evenodd" fill="#E4F0F8" d="M773.854,1120.385c-0.209-2.308,1.748-3.381,2.827-4.953
		C778.035,1118.394,775.493,1119.133,773.854,1120.385z"/>
	<path fill-rule="evenodd" clip-rule="evenodd" fill="#E4F0F8" d="M783.083,1063.709c0.23-2.471,1.624-4.233,3.472-5.722
		C786.031,1060.279,785.706,1062.69,783.083,1063.709z"/>
	<path fill-rule="evenodd" clip-rule="evenodd" fill="#E4F0F8" d="M1284.071,618.567c0.013,0.316,0.025,0.632,0.038,0.949
		c-0.869,1.995-2.175,1.495-3.546,0.624c0.009-0.441,0.018-0.884,0.026-1.325C1281.751,618.733,1282.91,618.65,1284.071,618.567z"/>
	<path fill-rule="evenodd" clip-rule="evenodd" fill="#C6E7FE" d="M1060.025,415.389c-1.742-0.783-3.781-0.992-5.076-2.635
		C1056.674,413.569,1059.876,411.533,1060.025,415.389z"/>
	<path fill-rule="evenodd" clip-rule="evenodd" fill="#E4F0F8" d="M769.604,1148.026c0.485-1.527,0.406-3.339,2.127-4.248
		C772.47,1145.92,771.996,1147.454,769.604,1148.026z"/>
	<path fill-rule="evenodd" clip-rule="evenodd" fill="#C6E7FE" d="M1342.214,610.19c-0.007,0.49-0.014,0.98-0.02,1.471
		c-0.452,0.001-0.904,0.002-1.355,0.003c-0.96-0.219-2.077,0.253-2.882-0.654c-0.013-0.323-0.025-0.643-0.037-0.963
		C1339.351,610.094,1340.782,610.142,1342.214,610.19z"/>
	<path fill-rule="evenodd" clip-rule="evenodd" fill="#E4F0F8" d="M763.184,1198.343c-1.001-1.427-1.026-2.844,0.043-4.249
		C764.284,1195.521,764.326,1196.938,763.184,1198.343z"/>
	<path fill-rule="evenodd" clip-rule="evenodd" fill="#E4F0F8" d="M771.78,1141.684c-0.067-0.567-0.146-1.13-0.725-1.439
		c0.014-0.464,0.026-0.928,0.04-1.392c0.446-0.012,0.891-0.023,1.337-0.035C773.431,1140.049,773.656,1141.105,771.78,1141.684z"/>
	<path fill-rule="evenodd" clip-rule="evenodd" fill="#C6E7FE" d="M1053.068,412.356c-1.449-0.166-2.933-0.255-3.789-1.722
		C1050.829,410.577,1052.382,410.512,1053.068,412.356z"/>
	<path fill-rule="evenodd" clip-rule="evenodd" fill="#E4F0F8" d="M776.726,1113.329c0.053-0.993-0.356-2.095,0.675-2.857
		C778.392,1111.711,778.631,1112.773,776.726,1113.329z"/>
	<path fill-rule="evenodd" clip-rule="evenodd" fill="#E4F0F8" d="M1391.837,403.178c-1.003-0.054-2.133,0.379-2.86-0.741
		C1390.224,401.554,1391.307,401.299,1391.837,403.178z"/>
	<path fill-rule="evenodd" clip-rule="evenodd" fill="#87CCFE" d="M1207.479,638.292c0.629-1.737,1.715-1.453,2.916-0.659
		c0.009,0.336,0.016,0.671,0.024,1.006C1209.439,638.522,1208.458,638.407,1207.479,638.292z"/>
	<path fill-rule="evenodd" clip-rule="evenodd" fill="#E4F0F8" d="M785.919,1028.244c-0.989-0.066-2.092,0.343-2.849-0.687
		C784.313,1026.568,785.379,1026.318,785.919,1028.244z"/>
	<path fill-rule="evenodd" clip-rule="evenodd" fill="#E4F0F8" d="M1215.457,635.914c0.3-0.779,0.881-0.967,1.643-0.779
		c0.021,1.083-0.408,1.82-1.539,2.028C1215.524,636.747,1215.491,636.331,1215.457,635.914z"/>
	<path fill-rule="evenodd" clip-rule="evenodd" fill="#C6E7FE" d="M1215.457,635.914c0.034,0.417,0.067,0.833,0.104,1.249
		c-0.297,0.875-0.728,1.532-1.819,1.099C1213.818,637.116,1214.014,636.058,1215.457,635.914z"/>
	<path fill-rule="evenodd" clip-rule="evenodd" fill="#E4F0F8" d="M1038.892,406.776c-1.067,0.102-1.999-0.066-2.433-1.225
		C1037.58,405.34,1038.713,405.109,1038.892,406.776z"/>
	<path fill-rule="evenodd" clip-rule="evenodd" fill="#E4F0F8" d="M1024.007,401.112c-1.089,0.14-2.001-0.066-2.427-1.231
		C1022.699,399.676,1023.837,399.438,1024.007,401.112z"/>
	<path fill-rule="evenodd" clip-rule="evenodd" fill="#E4F0F8" d="M1211.828,638.257c0.666,0.034,1.331,0.068,1.996,0.101
		c-0.04,1.693-0.732,1.957-2.02,0.92C1211.813,638.937,1211.82,638.597,1211.828,638.257z"/>
	<path fill-rule="evenodd" clip-rule="evenodd" fill="#C6E7FE" d="M1389.707,611.021c-0.029-0.438-0.059-0.877-0.089-1.314
		c0.717-0.109,1.434-0.222,2.15-0.335c0.024,0.505,0.049,1.011,0.074,1.518C1391.131,610.933,1390.419,610.978,1389.707,611.021z"/>
	<path fill-rule="evenodd" clip-rule="evenodd" fill="#E4F0F8" d="M786.567,1056.611c-0.858-0.729-0.854-1.437,0.051-2.123
		C787.526,1055.218,787.526,1055.926,786.567,1056.611z"/>
	<path fill-rule="evenodd" clip-rule="evenodd" fill="#E4F0F8" d="M763.273,1180.66c-0.031-0.798-0.178-1.629,0.665-2.156
		C765.084,1179.644,764.714,1180.316,763.273,1180.66z"/>
	<path fill-rule="evenodd" clip-rule="evenodd" fill="#E4F0F8" d="M304.681,162.315c-1.393-0.112-1.368-1.142-1.386-2.143
		C304.776,160.227,304.738,161.265,304.681,162.315z"/>
	<path fill-rule="evenodd" clip-rule="evenodd" fill="#E4F0F8" d="M315.547,885.225c-0.163,0.966-0.616,1.712-1.568,2.084
		C313.908,886.167,313.914,885.084,315.547,885.225z"/>
	<path fill-rule="evenodd" clip-rule="evenodd" fill="#E4F0F8" d="M764.641,1177.078c0.002-1.02,0.469-1.729,1.41-2.124
		C766.076,1175.99,766.089,1177.02,764.641,1177.078z"/>
	<path fill-rule="evenodd" clip-rule="evenodd" fill="#E4F0F8" d="M991.408,352.918c0.063,0.624-0.085,1.139-0.721,1.403
		C989.66,353.202,990.466,353.025,991.408,352.918z"/>
	<path fill-rule="evenodd" clip-rule="evenodd" fill="#E4F0F8" d="M1045.984,409.582c-0.615,0.074-1.14-0.044-1.421-0.674
		C1045.652,407.837,1045.856,408.628,1045.984,409.582z"/>
	<path fill-rule="evenodd" clip-rule="evenodd" fill="#E4F0F8" d="M1218.894,634.268c0.446-0.062,0.893-0.123,1.339-0.187
		c-0.006,0.56,0.109,1.271-0.721,1.229C1219.289,635.299,1219.1,634.633,1218.894,634.268z"/>
	<path fill-rule="evenodd" clip-rule="evenodd" fill="#E4F0F8" d="M768.228,1150.892c-0.028-0.599,0.088-1.13,0.672-1.443
		C769.977,1150.535,769.105,1150.716,768.228,1150.892z"/>
	<path fill-rule="evenodd" clip-rule="evenodd" fill="#C6E7FE" d="M1211.828,638.257c-0.008,0.34-0.016,0.68-0.023,1.021
		c-0.463-0.214-0.925-0.429-1.387-0.642c-0.008-0.333-0.015-0.668-0.023-1.004C1210.872,637.839,1211.351,638.048,1211.828,638.257z
		"/>
	<path fill-rule="evenodd" clip-rule="evenodd" fill="#14466B" d="M689.122,542.667c9.267-0.191,21.014,7.438,31.375,18.027
		c4.615,4.716,9.273,9.39,13.97,14.024c2.14,2.111,1.701,3.821-0.542,5.413c-31.06,22.039-62.118,44.08-93.184,66.112
		c-9.203,6.527-18.479,12.957-27.604,19.593c-2.262,1.644-3.618,1.583-5.603-0.454c-8.323-8.542-16.803-16.933-25.277-25.327
		c-2.086-2.066-4.314-4-6.572-5.879c-2.081-1.733-1.787-3.101,0.055-4.897c6.593-6.432,13.058-12.996,19.572-19.509
		c17.454-17.454,34.879-34.936,52.372-52.35C657.383,547.766,669.11,542.847,689.122,542.667z"/>
	<path fill-rule="evenodd" clip-rule="evenodd" fill="#31A7FE" d="M754.035,1213.964c-0.883,0.468-1.801,0.774-2.82,0.603
		c-0.18-0.996-0.832-1.338-1.776-1.325c-1.063,0.015-2.126-0.005-3.189-0.005c-212.715,0-425.431,0-638.147,0
		c-6.478,0-9.606-3.09-9.606-9.483c0-342.519,0-685.038-0.002-1027.556c0-1.18,0.084-2.375-0.068-3.539
		c-0.618-4.724-0.561-5.01,3.957-5.843c2.988-0.551,6.054-0.947,9.086-0.95c60.235-0.054,120.472-0.04,180.708-0.042
		c1.181,0,2.371,0.066,3.541-0.053c3.679-0.375,5.977,2.007,5.117,5.612c-0.396,1.657-0.338,3.278-0.338,4.917
		c-0.012,280.511-0.004,561.022-0.085,841.533c-0.001,4.253,1.926,6.601,4.719,9.528c4.082,4.28,8.605,4.494,13.776,4.493
		c153.071-0.053,306.141-0.043,459.212-0.042c1.181,0,2.368-0.059,3.541,0.041c1.603,0.136,2.495,1.037,1.797,2.628
		c-1.645,3.747-0.988,7.671-1.059,11.531c-0.065,3.518-0.046,6.791-2.28,10.048c-1.771,2.581-2.281,6.038-2.05,9.471
		c0.509,7.563,0.09,14.973-3.795,21.873c-0.946,1.681-1.001,4.09,0.282,6.055c-0.012,3.773-0.023,7.547-0.035,11.319
		c-1.28,0.146-1.194,1.124-1.415,2.063c-0.362,1.546-0.305,3.256-1.646,4.492c-1.947,1.796-2.238,4.229-2.59,6.71
		c-0.86,6.081-0.599,12.187-0.688,18.287c-0.012,0.799,0.012,1.843-0.447,2.353c-4.789,5.328-4.204,11.955-4.448,18.328
		c-0.188,4.903,0.529,9.884-2.679,14.244c-0.643,0.873-0.623,2.23-0.919,3.362c-1.272,4.866-0.433,9.833-0.721,14.745
		c-0.177,3.01-0.472,5.877-2.426,8.572c-1.837,2.533-2.755,5.692-1.119,8.912c-0.007,1.884-0.016,3.768-0.022,5.651
		C754.479,1212.558,754.021,1213.042,754.035,1213.964z"/>
	<path fill-rule="evenodd" clip-rule="evenodd" fill="#1A5987" d="M87.146,1153.699c0,8.976-0.095,17.953,0.038,26.928
		c0.072,4.843-1.196,9.595-0.738,14.444c0.128,1.363-0.701,2.054-1.749,2.793c-14.978,10.583-29.944,21.183-44.849,31.867
		c-2.616,1.876-4.115,2.231-6.424-0.897c-9.713-13.16-11.665-27.567-6.845-42.748c2.366-7.452,6.573-14.228,12.29-19.902
		c15.088-14.977,30.08-30.05,45.123-45.071c0.727-0.726,1.401-2.12,2.442-1.752c1.386,0.491,0.692,2.073,0.697,3.158
		c0.05,10.394,0.03,20.787,0.03,31.181C87.157,1153.699,87.151,1153.699,87.146,1153.699z"/>
	<path fill-rule="evenodd" clip-rule="evenodd" fill="#51B5FE" d="M755.418,1206.846c-1.636-3.22-0.718-6.379,1.119-8.912
		c1.954-2.695,2.249-5.563,2.426-8.572c0.288-4.912-0.552-9.879,0.721-14.745c0.296-1.132,0.276-2.489,0.919-3.362
		c3.208-4.36,2.49-9.341,2.679-14.244c0.244-6.373-0.341-13,4.448-18.328c0.459-0.51,0.436-1.554,0.447-2.353
		c0.09-6.101-0.172-12.206,0.688-18.287c0.352-2.481,0.643-4.914,2.59-6.71c1.342-1.236,1.284-2.946,1.646-4.492
		c0.221-0.939,0.135-1.918,1.415-2.063c0.313,2.644-0.055,5.3-1.308,7.538c-3.057,5.46-3.73,11.334-3.545,17.374
		c0.164,5.368-0.132,10.527-3.029,15.326c-1.062,1.758-1.354,3.981-1.287,6.139c0.252,8.148,0.06,16.19-3.779,23.736
		c-1.337,2.628-1.497,5.711-1.136,8.653C761.46,1191.913,758.705,1199.427,755.418,1206.846z"/>
	<path fill-rule="evenodd" clip-rule="evenodd" fill="#51B5FE" d="M754.035,1213.964c-0.014-0.922,0.444-1.406,1.36-1.467
		C755.438,1213.445,754.958,1213.91,754.035,1213.964z"/>
	<path fill-rule="evenodd" clip-rule="evenodd" fill="#31A7FE" d="M921.442,558.006c-0.081-1.526-0.229-3.052-0.23-4.579
		c-0.021-22.872-0.183-45.745,0.04-68.615c0.107-10.901-1.503-21.464-4.147-31.974c-1.807-7.175-0.664-14.543-0.829-21.822
		c-0.185-8.203-0.619-7.278,7.069-7.29c6.013-0.009,12.024-0.038,18.034-0.057c1.483-0.319,2.803,0.349,4.098,0.833
		c6.477,2.42,12.795,5.36,19.412,7.287c6.451,1.878,11.348,4.453,13.236,11.655c1.625,6.194,4.66,12.004,6.688,18.112
		c1.917,5.776,4.924,11.141,6.249,17.134c0.389,1.759,1.758,2.986,3.547,2.932c1.865-0.056,2.056-1.787,2.552-3.299
		c1.862-5.669,3.668-11.379,5.972-16.875c2.897-6.909,5.403-13.956,8.114-20.929c0.9-2.313,1.743-4.917,4.516-5.961
		c6.889-2.596,13.707-5.396,20.671-7.769c3.309-1.127,6.362-3.153,10.021-3.19c1.093,1.316,2.604,0.867,3.963,0.872
		c16.219,0.056,32.444-0.279,48.647,0.796c-0.108,3.31,0.513,6.324,3.308,8.52c1.048,0.823,1.151,2.045,1.001,3.236
		c-0.31,2.446,0.464,4.398,2.451,5.848c2.112,1.542,2.736,3.583,2.573,6.165c-0.247,3.895-0.231,8.138,1.848,11.318
		c3.384,5.178,3.024,10.661,2.97,16.243c-0.051,5.13-0.463,10.332,0.585,15.346c1.77,8.481,4.309,16.811,3.788,25.631
		c-0.111,1.889,0.836,3.428,2.416,4.463c0.807,0.528,1.439,1.108,1.962,1.949c4.154,6.691,14.597,7.141,19.4,0.955
		c2.804-3.61,5.335-7.418,8.539-10.75c1.456-1.515,3.364-2.998,3.801-5.359c0.235-0.239,0.471-0.479,0.707-0.718
		c2.434-1.342,5.434-2.116,5.674-5.658c0.513-0.695,1.026-1.389,1.54-2.084c1.304,0.145,2.22-0.616,3.16-1.34
		c8.645-6.656,18.21-12.172,25.146-20.941c1.364-1.726,3.726-3.54,5.571-3.974c4.464-1.05,7.469-4.244,10.228-6.936
		c4.412-4.306,10.509-5.818,14.585-9.77c3.628-3.518,9.298-3.541,11.818-8.191c4.57-0.039,6.454-5.312,10.981-5.58
		c2.39-0.142,3.066-3.539,5.465-3.583c5.693-0.106,8.648-6.583,14.676-6.079c1.028,0.085,2.242-1.915,3.352-2.972
		c0.998-0.952,2.346-1.038,3.554-1.462c0.321-0.113,0.77,0.059,1.044-0.1c6.011-3.467,13.441-3.241,19.177-7.7
		c2.437-1.894,6.116-1.097,9.218-1.394c2.252-0.216,4.157-0.511,5.55-2.399c1.249-1.693,2.962-1.998,4.982-2.03
		c3.636-0.057,7.27-0.394,10.896-0.707c0.788-0.068,1.766-0.31,2.278-0.839c3.422-3.526,7.749-3.253,12.161-3.441
		c8.275-0.353,16.633-0.514,24.479-3.799c0.529-0.222,1.143-0.317,1.721-0.335c8.356-0.258,16.716-0.444,25.069-0.757
		c3.215-0.121,4.387,1.262,4.385,4.427c-0.042,64.367-0.044,128.733,0.026,193.1c0.003,3.038-1.142,3.809-3.977,3.793
		c-16.534-0.094-33.069-0.107-49.604-0.009c-5.884,0.036-11.64,0.992-17.247,3c-2.61,0.935-5.477,1.14-8.316,1.243
		c-7.173,0.262-14.388-0.788-21.523,0.653c-0.684,0.139-1.604,0.059-2.009,0.476c-4.302,4.438-9.8,3.875-15.205,3.809
		c-4.504-0.056-8.968-0.036-12.129,4.081c-1.081,1.406-2.86,0.876-4.349,0.854c-5.451-0.08-10.612,0.029-15.444,3.643
		c-2.112,1.58-5.867,1.028-8.89,1.293c-1.245,0.11-2.403,0.284-3.123,1.33c-2.022,2.941-4.93,3.25-8.127,2.985
		c-3.096-0.256-5.877,0.49-7.864,3.081c-1.309,1.707-3.047,2.021-5.036,1.874c-3.117-0.232-5.823,0.633-7.842,3.169
		c-0.219,0.275-0.491,0.704-0.756,0.718c-5.284,0.273-9.413,3.592-14.146,5.303c-0.314,0.113-0.821-0.129-1.04,0.045
		c-3.913,3.12-8.76,4.602-12.857,7.376c-0.741,0.502-1.195,2.013-1.811,2.029c-6.597,0.181-9.809,5.664-14.385,8.978
		c-0.72,0.521-1.509,0.575-2.285,0.818c-1.216,0.381-2.537,0.534-3.538,1.489c-4.863,4.642-9.732,9.278-14.625,13.89
		c-1.778,1.676-3.128,3.765-5.461,4.923c-1.391,0.69-1.991,2.293-2.06,3.915c-0.05,1.179-0.019,2.361-0.019,3.543
		c-0.001,170.305-0.002,340.611,0.012,510.917c0,2.342-0.098,4.665,0.512,7.021c0.657,2.545-0.601,4.085-3.364,4.115
		c-0.708,0.008-1.418,0.004-2.126,0.004c-64.013,0.001-128.024,0.003-192.037,0.002c-5.548,0-8.794-3.963-7.557-9.463
		c0.344-1.529,0.454-3.019,0.454-4.544c0.005-175.147-0.003-350.296,0.057-525.444c0.002-3.488-2.241-7.2,0.724-10.5
		c0.24,0.388,0.542,0.751,0.71,1.168c0.619,1.533,1.106,3.482,2.992,3.561c2.138,0.089,2.164-2.098,2.727-3.578
		c4.495-11.825,8.98-23.652,13.494-35.47c0.692-1.814,1.811-3.268,3.738-3.995c12.167-4.59,24.323-9.21,36.491-13.796
		c1.436-0.542,3.274-0.822,3.336-2.666c0.066-2.006-1.834-2.565-3.355-3.143c-10.631-4.042-21.301-7.983-31.904-12.094
		c-2.982-1.156-6.498-1.807-7.903-5.293c-1.924-4.772-3.741-9.59-5.527-14.416c-2.92-7.887-5.715-15.82-8.708-23.678
		c-0.747-1.962-2.196-2.728-4.1-0.897c-1.196,1.151-1.57,2.632-1.896,4.097C923.846,555.602,923.122,557.092,921.442,558.006z"/>
	<path fill-rule="evenodd" clip-rule="evenodd" fill="#286DA1" d="M921.442,558.006c1.68-0.914,2.403-2.405,2.808-4.222
		c0.326-1.465,0.7-2.946,1.896-4.097c1.903-1.831,3.353-1.065,4.1,0.897c2.993,7.858,5.788,15.792,8.708,23.678
		c1.786,4.826,3.604,9.643,5.527,14.416c1.405,3.486,4.921,4.137,7.903,5.293c10.604,4.111,21.273,8.052,31.904,12.094
		c1.521,0.578,3.422,1.137,3.355,3.143c-0.062,1.844-1.9,2.125-3.336,2.666c-12.168,4.586-24.324,9.206-36.491,13.796
		c-1.928,0.727-3.046,2.181-3.738,3.995c-4.514,11.817-8.999,23.645-13.494,35.47c-0.563,1.48-0.589,3.667-2.727,3.578
		c-1.886-0.079-2.373-2.028-2.992-3.561c-0.168-0.417-0.47-0.78-0.71-1.168c-0.345-1.206-0.69-2.41-1.038-3.615
		c-2.531-10.893-6.526-21.301-10.51-31.71c-0.933-2.438-2.86-3.921-5.314-4.829c-11.484-4.249-22.95-8.542-34.42-12.829
		c-1.063-0.397-2.578-0.478-2.567-1.982c0.012-1.613,1.563-1.943,2.76-2.327c11.549-3.712,22.75-8.362,34.087-12.642
		c2.994-1.13,5.012-3.438,6.074-6.475c1.554-4.444,3.057-8.906,4.553-13.37c0.235-0.703,0.567-1.283,1.197-1.677
		c1.499,1.054,0.234,2.214-0.062,3.138c-1.363,4.245-3.235,8.346-4.342,12.649c-1.009,3.921-3.537,6.167-6.951,7.304
		c-11.206,3.729-21.862,8.952-33.261,12.144c-0.607,0.17-1.601,0.116-1.64,1.035c-0.045,1.083,0.93,1.098,1.719,1.361
		c3.879,1.297,7.754,2.613,11.593,4.024c6.499,2.39,13.022,4.727,19.429,7.348c3.063,1.253,6.683,2.029,8.235,5.51
		c1.388,3.11,2.618,6.302,3.704,9.53c1.261,3.744,1.218,3.86,4.472,1.557c14.479-10.25,28.928-20.541,43.369-30.842
		c3.001-2.141,2.75-4.073-0.775-5.519c-5.32-2.181-10.64-4.388-16.068-6.272c-2.787-0.967-4.638-2.538-5.896-5.143
		c-2.538-5.259-4.119-10.856-6.063-16.33c-2.316-6.526-4.89-12.961-7.318-19.447c-0.238-0.635-0.083-1.524-0.999-1.645
		c-1.078-0.142-1.374,0.803-1.645,1.54c-0.849,2.313-1.352,4.791-2.468,6.958c-1.662,3.229-1.58,7.338-4.852,9.753
		c-0.06-3.161,1.884-5.875,2.003-9.001C921.215,560.786,921.347,559.397,921.442,558.006z"/>
	<path fill-rule="evenodd" clip-rule="evenodd" fill="#87CCFE" d="M1129.477,691.663c1.309,0.971,0.78,2.387,0.78,3.608
		c0.024,170.109,0.023,340.22,0.013,510.329c0,1.172-0.157,2.344-0.244,3.517c-1.142-0.404-1.148-1.358-1.143-2.328
		c0.008-1.416,0.002-2.832,0.002-4.249c0-168.813-0.001-337.627,0.025-506.44C1128.91,694.622,1128.373,693.021,1129.477,691.663z"
		/>
	<path fill-rule="evenodd" clip-rule="evenodd" fill="#87CCFE" d="M1127.5,1215.376c-1.267,2.653-4.041,0.963-5.915,2.01
		c-0.725,0.404-1.853,0.099-2.796,0.099c-62.336,0.002-124.671,0.01-187.005-0.026c-2.835-0.001-5.983,0.449-7.691-2.814
		c3.602,1.325,7.332,1.405,11.124,1.403c60.107-0.041,120.215-0.058,180.322,0.037
		C1119.565,1216.091,1123.484,1215.05,1127.5,1215.376z"/>
	<path fill-rule="evenodd" clip-rule="evenodd" fill="#87CCFE" d="M1392.639,412.343c2.125,0.761,1.254,2.59,1.257,3.949
		c0.052,27.007,0.038,54.015,0.038,81.021c0,34.909,0.01,69.818-0.037,104.726c-0.001,1.369,0.851,3.181-1.228,3.981
		c-0.058-1.411-0.168-2.824-0.168-4.236c-0.009-61.97-0.009-123.939-0.003-185.909
		C1392.498,414.698,1392.59,413.521,1392.639,412.343z"/>
	<path fill-rule="evenodd" clip-rule="evenodd" fill="#C6E7FE" d="M1336.58,610.986c-0.173,1.007-0.852,1.297-1.776,1.3
		c-3.435,0.006-6.601,1.439-9.948,1.881c-1.381,0.183-3.048,1.114-3.951-0.925c0.456-0.126,0.912-0.254,1.369-0.381
		c1.046,0.076,2.185,0.532,2.911-0.706c0.673-0.021,1.345-0.041,2.019-0.06c0.675,0.193,1.234,0.107,1.526-0.627
		c0.438-0.025,0.874-0.05,1.313-0.073c0.684,0.195,1.237,0.087,1.521-0.65c0.674-0.022,1.349-0.046,2.023-0.067
		C1334.585,610.782,1335.582,610.884,1336.58,610.986z"/>
	<path fill-rule="evenodd" clip-rule="evenodd" fill="#87CCFE" d="M1290.515,616.651c-0.287-0.1-0.573-0.199-0.861-0.302
		c1.165-2.027,2.89-2.578,5.072-1.927C1293.875,616.211,1291.934,615.939,1290.515,616.651z"/>
	<path fill-rule="evenodd" clip-rule="evenodd" fill="#87CCFE" d="M1379.088,610.271c-1.668-0.003-3.335-0.005-5.003-0.007
		c0.01-0.298,0.018-0.596,0.027-0.895c1.647-1.017,3.294-1.012,4.94,0C1379.064,609.671,1379.076,609.971,1379.088,610.271z"/>
	<path fill-rule="evenodd" clip-rule="evenodd" fill="#87CCFE" d="M1336.58,610.986c-0.998-0.102-1.995-0.204-2.994-0.309
		c1.172-2.098,2.747-1.399,4.334-0.629c0.012,0.32,0.024,0.64,0.037,0.963C1337.498,611.004,1337.039,610.995,1336.58,610.986z"/>
	<path fill-rule="evenodd" clip-rule="evenodd" fill="#C6E7FE" d="M1245.785,626.381c-0.224,0.734-0.446,1.468-0.67,2.202
		c-1.178-0.526-2.42,1.394-3.572-0.095C1242.957,627.785,1244.371,627.083,1245.785,626.381z"/>
	<path fill-rule="evenodd" clip-rule="evenodd" fill="#C6E7FE" d="M1264.927,622.158c-0.634,1.823-1.611,2.789-3.528,1.417
		C1262.307,622.437,1263.539,622.103,1264.927,622.158z"/>
	<path fill-rule="evenodd" clip-rule="evenodd" fill="#87CCFE" d="M1161.628,500.372c-0.514,0.695-1.027,1.389-1.541,2.083
		c-0.477-0.006-0.953-0.011-1.43-0.017c0.202-1.694,1.138-2.647,2.846-2.822C1161.545,499.868,1161.586,500.12,1161.628,500.372z"/>
	<path fill-rule="evenodd" clip-rule="evenodd" fill="#87CCFE" d="M1170.684,656.198c-0.572,2.337-2.301,1.201-3.647,1.212
		C1167.756,655.512,1169.411,656.432,1170.684,656.198z"/>
	<path fill-rule="evenodd" clip-rule="evenodd" fill="#87CCFE" d="M1348.587,610.271c-0.981-0.117-1.963-0.235-2.944-0.354
		c0.701-1.635,1.737-1.478,2.916-0.546C1348.568,609.67,1348.577,609.971,1348.587,610.271z"/>
	<path fill-rule="evenodd" clip-rule="evenodd" fill="#87CCFE" d="M1325.185,612.154c-0.727,1.238-1.865,0.782-2.911,0.706
		C1322.874,611.099,1323.94,611.261,1325.185,612.154z"/>
	<path fill-rule="evenodd" clip-rule="evenodd" fill="#87CCFE" d="M1178.587,651.362c-0.32,1.424-1.273,1.375-2.362,1.01
		C1176.631,651.141,1177.582,651.187,1178.587,651.362z"/>
	<path fill-rule="evenodd" clip-rule="evenodd" fill="#87CCFE" d="M1268.542,620.2c-0.6-0.046-1.119,0.078-1.419,0.668
		c-0.509-0.065-1.019-0.129-1.527-0.192c0.314-1.771,1.718-1.267,2.837-1.355C1268.47,619.614,1268.506,619.906,1268.542,620.2z"/>
	<path fill-rule="evenodd" clip-rule="evenodd" fill="#87CCFE" d="M1382.604,609.53c-0.521,0.836-1.407,0.61-2.169,0.743
		c0.013-0.302,0.024-0.603,0.035-0.904C1381.249,608.512,1381.967,608.487,1382.604,609.53z"/>
	<path fill-rule="evenodd" clip-rule="evenodd" fill="#C6E7FE" d="M1265.596,620.675c0.509,0.063,1.019,0.127,1.527,0.192
		c-0.157,1.41-1.156,1.398-2.204,1.303C1265.145,621.672,1265.37,621.173,1265.596,620.675z"/>
	<path fill-rule="evenodd" clip-rule="evenodd" fill="#C6E7FE" d="M1380.47,609.369c-0.011,0.301-0.022,0.602-0.035,0.904
		c-0.451,0.657-0.9,0.655-1.348-0.002c-0.011-0.3-0.022-0.6-0.034-0.902C1379.525,609.369,1379.997,609.369,1380.47,609.369z"/>
	<path fill-rule="evenodd" clip-rule="evenodd" fill="#87CCFE" d="M1331.563,610.744c-0.283,0.737-0.837,0.845-1.521,0.65
		C1330.288,610.567,1330.545,609.764,1331.563,610.744z"/>
	<path fill-rule="evenodd" clip-rule="evenodd" fill="#87CCFE" d="M1195.61,642.169c-0.198,0.912-0.702,1.337-1.659,1.043
		C1194.182,642.35,1194.714,641.968,1195.61,642.169z"/>
	<path fill-rule="evenodd" clip-rule="evenodd" fill="#87CCFE" d="M1153.061,666.22c-0.133,0.93-0.63,1.368-1.592,1.182
		C1151.623,666.5,1152.135,666.081,1153.061,666.22z"/>
	<path fill-rule="evenodd" clip-rule="evenodd" fill="#87CCFE" d="M1130.176,687.308c0.094,0.65,0.011,1.219-0.693,1.501
		C1128.524,687.76,1129.346,687.532,1130.176,687.308z"/>
	<path fill-rule="evenodd" clip-rule="evenodd" fill="#87CCFE" d="M1328.729,611.467c-0.292,0.734-0.852,0.82-1.526,0.627
		C1327.453,611.253,1327.727,610.467,1328.729,611.467z"/>
	<path fill-rule="evenodd" clip-rule="evenodd" fill="#C6E7FE" d="M1268.542,620.2c-0.036-0.293-0.072-0.586-0.109-0.879
		c0.503,0.046,1.006,0.093,1.51,0.14C1269.795,620.314,1269.627,621.125,1268.542,620.2z"/>
	<path fill-rule="evenodd" clip-rule="evenodd" fill="#87CCFE" d="M1287.018,616.639c-0.15,0.929-0.632,1.39-1.615,1.146
		C1285.575,616.886,1286.088,616.468,1287.018,616.639z"/>
	<path fill-rule="evenodd" clip-rule="evenodd" fill="#87CCFE" d="M1129.558,1212.52c1.085,1.036,0.31,1.278-0.621,1.455
		C1128.877,1213.377,1128.978,1212.846,1129.558,1212.52z"/>
	<path fill-rule="evenodd" clip-rule="evenodd" fill="#1A5987" d="M552.441,765.21c9.534,7.027,16.483,16.712,25.22,24.562
		c1.924,1.729,3.597,3.738,5.521,5.468c2.244,2.018,3.09,3.272,0.189,6.025c-9.991,9.479-19.537,19.427-29.262,29.188
		c-0.578,0.579-1.234,1.079-1.855,1.615c-2.046-0.48-3.321,1-4.698,1.988c-12.878,9.24-25.663,18.608-38.574,27.802
		c-17.506,12.463-35.128,24.767-52.649,37.21c-20.872,14.823-41.685,29.728-62.532,44.584
		c-12.145,8.654-24.299,17.295-36.461,25.923c-11.59,8.223-23.188,16.434-34.811,24.609c-1.102,0.775-2.207,2.012-3.809,1.271
		c-1.68-0.778-1.215-2.396-1.221-3.747c-0.023-5.406,0.759-10.88,0.455-16.179c-0.44-7.656-0.209-15.291-0.48-22.93
		c-0.04-1.131,0.332-2.427-1.049-3.116c0.029-3.388,0.059-6.774,0.091-10.164c0.087-10.742,0.171-21.483,0.256-32.224
		c1.991,0.335,1.383,1.921,1.394,3.093c0.052,5.431,0,10.863,0.041,16.294c0.01,1.348-0.518,3.05,1.204,3.73
		c1.368,0.54,2.428-0.513,3.477-1.268c5.916-4.254,11.811-8.536,17.757-12.744c17.558-12.424,35.161-24.782,52.701-37.231
		c23.193-16.462,46.331-33.002,69.514-49.479c23.374-16.612,46.826-33.114,70.128-49.825
		C539.548,774.961,546.563,770.841,552.441,765.21z"/>
	<path fill-rule="evenodd" clip-rule="evenodd" fill="#174F78" d="M552.441,765.21c-5.878,5.631-12.894,9.751-19.455,14.456
		c-23.302,16.711-46.754,33.213-70.128,49.825c-23.183,16.477-46.321,33.017-69.514,49.479
		c-17.54,12.449-35.143,24.808-52.701,37.231c-5.947,4.208-11.842,8.49-17.757,12.744c-1.049,0.755-2.109,1.808-3.477,1.268
		c-1.722-0.681-1.194-2.383-1.204-3.73c-0.041-5.431,0.011-10.863-0.041-16.294c-0.011-1.172,0.597-2.758-1.394-3.093
		c-0.024-6.393-0.048-12.784-0.072-19.177c0,0,0.027-0.037,0.028-0.036c1.467,0.066,1.485-0.941,1.466-1.977
		c1.101-1.226,2.146-2.507,3.31-3.67c34.95-34.969,69.933-69.905,104.862-104.894c22.417-22.455,44.755-44.988,67.15-67.464
		c0.38-0.38,1.028-0.495,1.552-0.732c0.663,0.001,1.325,0.002,1.987,0.002c1.196,0.141,2.078,0.698,2.485,1.879
		c0.143,1.846,0.914,3.116,2.956,3.223c0,0,0.023,0.023,0.023,0.023c0.102,1.772,1.038,2.711,2.812,2.812
		c0,0,0.023,0.022,0.022,0.023c-0.075,1.774,1.088,2.166,2.522,2.257c0,0,0.159,0.159,0.16,0.158
		c0.075,0.965,0.182,1.906,1.515,1.839c0,0,0.031,0.031,0.03,0.031c0,1.399,0.701,2.096,2.098,2.096
		c0.481,0.481,0.963,0.964,1.444,1.445c-0.037,0.964,0.426,1.428,1.391,1.39c0.245,0.245,0.491,0.49,0.735,0.735
		c0,1.398,0.7,2.1,2.1,2.1c0.245,0.244,0.491,0.49,0.735,0.735c-0.006,1.403,0.701,2.097,2.096,2.107
		c0.244,0.243,0.488,0.487,0.731,0.731c-0.03,0.959,0.435,1.425,1.394,1.395c9.625,9.535,19.249,19.073,28.88,28.603
		C551.886,763.428,552.253,764.267,552.441,765.21z"/>
	<path fill-rule="evenodd" clip-rule="evenodd" fill="#206394" d="M316.424,949.483c1.381,0.689,1.009,1.985,1.049,3.116
		c0.271,7.639,0.04,15.273,0.48,22.93c0.305,5.299-0.478,10.772-0.455,16.179c0.006,1.351-0.459,2.969,1.221,3.747
		c1.603,0.74,2.707-0.496,3.809-1.271c11.623-8.176,23.221-16.387,34.811-24.609c12.163-8.628,24.317-17.269,36.461-25.923
		c20.847-14.856,41.66-29.761,62.532-44.584c17.521-12.443,35.143-24.747,52.649-37.21c12.912-9.193,25.696-18.562,38.574-27.802
		c1.377-0.988,2.652-2.469,4.698-1.988c-0.782,0.877-1.525,1.793-2.356,2.623c-60.08,60.08-120.177,120.145-180.224,180.259
		c-2.942,2.945-6.083,4.35-10.338,4.271c-12.033-0.22-24.072-0.063-36.109-0.069c-5.652-0.002-7.409-1.77-7.337-7.313
		c0.239-18.507-1.141-36.994-0.673-55.505C315.276,953.975,315.368,951.652,316.424,949.483z"/>
	<path fill-rule="evenodd" clip-rule="evenodd" fill="#286DA1" d="M316.699,887.919c0.024,6.393,0.048,12.784,0.072,19.177
		c-0.084,10.74-0.169,21.481-0.256,32.224c-1.728-0.169-1.93-1.332-1.928-2.768c0.012-14.696-0.011-29.393-0.014-44.089
		C314.573,890.63,315.019,888.979,316.699,887.919z"/>
	<path fill-rule="evenodd" clip-rule="evenodd" fill="#206394" d="M502.495,714.251c-2.042-0.106-2.813-1.377-2.956-3.223
		C501.083,711.591,502.075,712.659,502.495,714.251z"/>
	<path fill-rule="evenodd" clip-rule="evenodd" fill="#206394" d="M505.33,717.086c-1.774-0.101-2.71-1.039-2.812-2.812
		C504.061,714.606,504.998,715.544,505.33,717.086z"/>
	<path fill-rule="evenodd" clip-rule="evenodd" fill="#206394" d="M507.874,719.366c-1.434-0.091-2.597-0.482-2.522-2.257
		C506.652,717.35,507.536,718.053,507.874,719.366z"/>
	<path fill-rule="evenodd" clip-rule="evenodd" fill="#206394" d="M511.677,723.49c-1.396,0-2.098-0.696-2.098-2.096
		C510.859,721.514,511.553,722.217,511.677,723.49z"/>
	<path fill-rule="evenodd" clip-rule="evenodd" fill="#206394" d="M517.347,729.16c-1.4,0-2.099-0.701-2.1-2.1
		C516.524,727.184,517.224,727.884,517.347,729.16z"/>
	<path fill-rule="evenodd" clip-rule="evenodd" fill="#206394" d="M520.177,732.003c-1.395-0.011-2.102-0.704-2.096-2.107
		C519.363,730.02,520.062,730.721,520.177,732.003z"/>
	<path fill-rule="evenodd" clip-rule="evenodd" fill="#286DA1" d="M318.192,885.906c0.02,1.035,0.001,2.043-1.466,1.977
		C316.796,886.913,317.199,886.19,318.192,885.906z"/>
	<path fill-rule="evenodd" clip-rule="evenodd" fill="#206394" d="M509.549,721.363c-1.333,0.067-1.44-0.874-1.515-1.839
		C509.115,719.663,509.473,720.396,509.549,721.363z"/>
	<path fill-rule="evenodd" clip-rule="evenodd" fill="#206394" d="M497.054,709.149c-0.662,0-1.324-0.001-1.987-0.002
		C495.731,707.858,496.394,707.851,497.054,709.149z"/>
	<path fill-rule="evenodd" clip-rule="evenodd" fill="#206394" d="M522.302,734.129c-0.959,0.03-1.424-0.436-1.394-1.395
		C521.806,732.768,522.27,733.232,522.302,734.129z"/>
	<path fill-rule="evenodd" clip-rule="evenodd" fill="#206394" d="M514.512,726.325c-0.965,0.038-1.428-0.426-1.391-1.39
		C514.009,724.975,514.472,725.438,514.512,726.325z"/>
	<path fill-rule="evenodd" clip-rule="evenodd" fill="#206394" d="M919.159,571.18c3.271-2.415,3.189-6.523,4.852-9.753
		c1.116-2.167,1.619-4.646,2.468-6.958c0.271-0.737,0.566-1.682,1.645-1.54c0.916,0.121,0.761,1.009,0.999,1.645
		c2.429,6.486,5.002,12.921,7.318,19.447c1.943,5.473,3.524,11.071,6.063,16.33c1.259,2.605,3.109,4.176,5.896,5.143
		c5.429,1.884,10.748,4.091,16.068,6.272c3.525,1.446,3.776,3.378,0.775,5.519c-14.441,10.301-28.891,20.592-43.369,30.842
		c-3.254,2.303-3.211,2.187-4.472-1.557c-1.086-3.228-2.316-6.42-3.704-9.53c-1.553-3.481-5.172-4.257-8.235-5.51
		c-6.406-2.621-12.93-4.958-19.429-7.348c-3.839-1.411-7.714-2.727-11.593-4.024c-0.789-0.264-1.764-0.278-1.719-1.361
		c0.039-0.919,1.032-0.865,1.64-1.035c11.398-3.192,22.055-8.415,33.261-12.144c3.414-1.136,5.942-3.383,6.951-7.304
		c1.106-4.303,2.979-8.404,4.342-12.649c0.296-0.924,1.561-2.084,0.062-3.138C919.038,572.077,919.099,571.628,919.159,571.18z"/>
	<path fill-rule="evenodd" clip-rule="evenodd" fill="#286DA1" d="M1046.455,423.599c-3.659,0.038-6.713,2.063-10.021,3.19
		c-6.964,2.373-13.782,5.173-20.671,7.769c-2.772,1.044-3.615,3.648-4.516,5.961c-2.711,6.973-5.217,14.02-8.114,20.929
		c-2.304,5.495-4.109,11.206-5.972,16.875c-0.496,1.512-0.687,3.243-2.552,3.299c-1.789,0.054-3.158-1.173-3.547-2.932
		c-1.325-5.993-4.332-11.358-6.249-17.134c-2.028-6.107-5.063-11.917-6.688-18.112c-1.889-7.203-6.785-9.777-13.236-11.655
		c-6.617-1.926-12.936-4.866-19.412-7.287c-1.295-0.483-2.614-1.151-4.098-0.833c-0.496-0.65,2.694-0.623,0.309-1.574
		c-1.294-0.516-2.661-0.846-3.993-1.261c-0.596-2.166-2.836-1.732-4.221-2.654c-0.688-0.458-1.465-0.815-1.52-1.762
		c-0.046-0.795,0.425-1.416,1.134-1.579c6.36-1.466,12.032-5.054,18.554-6.013c-0.265,0.377-0.45,0.963-0.807,1.097
		c-4.833,1.808-9.681,3.58-14.551,5.285c-0.782,0.273-1.815,0.255-1.948,1.203c-0.164,1.183,1.08,1.046,1.757,1.315
		c2.834,1.125,5.74,2.072,8.55,3.25c8.649,3.625,17.293,7.235,26.248,10.089c2.807,0.895,5.867,1.926,7.117,5.275
		c4.74,12.695,10.125,25.147,14.353,38.037c0.252,0.77,0.551,1.699,1.557,1.703c1.146,0.006,1.725-0.833,1.695-1.871
		c-0.103-3.7,2.366-6.531,3.45-9.819c3.001-9.103,7.125-17.83,10.445-26.838c0.918-2.492,2.507-4.17,4.492-5.044
		c6.094-2.684,12.393-4.905,18.602-7.33c6.439-2.515,12.719-5.449,19.4-7.329c0.624-0.176,1.489-0.415,1.451-1.306
		c-0.035-0.834-0.816-1.001-1.478-1.276c-4.217-1.754-8.534-3.325-12.83-4.773c-8.33-2.808-16.303-6.514-24.646-9.255
		c-2.173-0.713-4.055-2.022-4.917-4.288c-4.837-12.706-9.81-25.364-14.319-38.185c-0.989-2.813-1.762-1.842-3.184-0.981
		c0.072-1.44,0.179-3.129,1.914-3.282c1.585-0.14,1.829,1.567,2.269,2.75c4.713,12.66,9.457,25.308,14.072,38.003
		c0.858,2.361,2.479,3.691,4.602,4.522c8.091,3.167,16.204,6.279,24.33,9.356c5.039,1.909,10.12,3.71,15.177,5.575
		c0.904,0.333,1.806,0.827,1.864,1.893c0.065,1.196-1.05,1.518-1.89,1.798c-2.137,0.711-4.137,1.609-5.742,3.235
		C1048.098,422.474,1046.496,422.151,1046.455,423.599z"/>
	<path fill-rule="evenodd" clip-rule="evenodd" fill="#174F78" d="M577.607,692.343c1.502,0.018,2.221,1.224,3.114,2.115
		c10.995,10.976,21.903,22.04,33.009,32.902c2.49,2.437,1.868,3.681-0.569,5.355c-5.508,3.784-10.914,7.717-16.372,11.573
		c-1.769,1.249-3.436,1.834-5.318-0.063c-11.816-11.915-23.694-23.767-35.546-35.646c-0.161-0.161-0.243-0.399-0.361-0.603
		C562.911,702.766,570.259,697.555,577.607,692.343z"/>
	<path fill-rule="evenodd" clip-rule="evenodd" fill="#14466B" d="M577.607,692.343c-7.348,5.212-14.696,10.423-22.044,15.635
		c-1.809-0.399-2.395-2.161-3.538-3.276c-7.671-7.487-15.027-15.305-23.136-22.331c-2.545-2.206-2.696-3.794-0.117-6.191
		c5.1-4.739,9.987-9.716,14.783-14.765c1.98-2.085,3.502-1.507,4.974,0.216c8.294,9.704,17.897,18.123,26.684,27.342
		C576.166,689.972,577.508,690.726,577.607,692.343z"/>
	<path fill-rule="evenodd" clip-rule="evenodd" fill="#286DA1" d="M753.777,492.39c-1.326-0.163-1.55-1.222-1.935-2.236
		c-4.183-11.018-8.42-22.015-12.596-33.035c-4.8-12.667-9.612-25.33-14.287-38.043c-1.156-3.145-3.151-5.172-6.189-6.32
		c-16.098-6.078-32.192-12.16-48.294-18.225c-7.718-2.907-15.454-5.769-23.17-8.683c-0.974-0.368-2.144-0.744-2.214-2.025
		c-0.085-1.549,1.289-1.834,2.354-2.234c22.715-8.54,45.397-17.167,68.188-25.499c5.281-1.93,8.431-4.797,10.395-10.324
		c6.47-18.205,13.624-36.166,20.472-54.237c1.712-4.518,3.229-9.11,4.901-13.644c0.479-1.3,0.881-3.097,2.458-3.167
		c1.789-0.08,1.794,1.876,2.268,3.134c9.012,23.92,18.008,47.846,27.015,71.768c0.936,2.483,2.739,3.931,5.242,4.867
		c23.949,8.958,47.871,17.987,71.791,27.019c1.155,0.437,2.757,0.663,2.638,2.383c-0.099,1.429-1.507,1.696-2.579,2.1
		c-23.71,8.938-47.416,17.886-71.155,26.745c-3.123,1.166-5.018,3.113-6.187,6.225c-8.91,23.715-17.917,47.395-26.896,71.085
		C755.583,491.131,755.35,492.397,753.777,492.39z M722.05,411.94c1.314,1.449,3.048,2.445,3.78,4.503
		c1.854,5.21,3.963,10.329,5.91,15.506c2.975,7.916,5.81,15.885,8.869,23.767c3.859,9.944,8.36,19.642,11.394,29.904
		c0.333,1.127,0.76,2.355,2.102,3.137c3.046-8.175,5.921-16.091,8.939-23.952c5.978-15.568,12.035-31.105,18.061-46.654
		c1.092-2.818,2.504-5.57,5.498-6.589c7.899-2.69,15.605-5.871,23.396-8.837c8.973-3.417,17.975-6.76,26.997-10.041
		c6.611-2.403,12.893-5.699,19.817-7.272c0.901-0.205,2.481-0.149,2.494-1.468c0.014-1.403-1.438-1.188-2.449-1.386
		c-0.798-0.156-1.575-0.454-2.337-0.75c-8.956-3.484-17.899-6.998-26.861-10.467c-11.068-4.285-22.15-8.535-33.227-12.799
		c-6.308-1.23-11.376-4.038-13.494-10.601c0.077-1.049-0.481-1.742-1.287-2.295c-2.976-8.012-5.919-16.036-8.932-24.034
		c-5.214-13.835-10.466-27.655-15.718-41.475c-0.33-0.866,0.181-2.474-1.514-2.263c-1.245,0.154-1.384,1.438-1.698,2.433
		c-2.556,8.071-5.83,15.871-8.822,23.779c-5.771,15.253-11.242,30.62-16.803,45.952c-0.839,2.313-2.045,4.342-4.38,5.256
		c-11.262,4.412-22.546,8.771-33.852,13.074c-5.93,2.257-11.937,4.311-17.876,6.545c-6.571,2.471-13.097,5.061-19.664,7.542
		c-0.734,0.278-1.79,0.009-1.97,1.078c-0.211,1.252,0.873,1.67,1.738,1.839c6.98,1.362,13.147,4.952,19.818,7.159
		c4.909,1.624,9.801,3.336,14.58,5.301C696.917,402.912,709.493,407.397,722.05,411.94z"/>
	<path fill-rule="evenodd" clip-rule="evenodd" fill="#51B5FE" d="M1153.707,508.832c-0.437,2.361-2.345,3.844-3.801,5.359
		c-3.204,3.332-5.735,7.14-8.539,10.75c-4.804,6.186-15.246,5.736-19.4-0.955c-0.522-0.841-1.155-1.42-1.962-1.949
		c-1.58-1.035-2.527-2.574-2.416-4.463c0.521-8.82-2.019-17.15-3.788-25.631c-1.048-5.014-0.636-10.215-0.585-15.346
		c0.055-5.582,0.414-11.064-2.97-16.243c-2.079-3.18-2.095-7.423-1.848-11.318c0.163-2.582-0.461-4.624-2.573-6.165
		c-1.987-1.45-2.761-3.402-2.451-5.848c0.15-1.191,0.047-2.414-1.001-3.236c-2.795-2.196-3.416-5.21-3.308-8.521
		c0.001-0.001,0.074-0.079,0.074-0.079c0.488,0.225,0.976,0.449,1.463,0.674c0.038,0.212,0.067,0.425,0.086,0.641
		c-0.074,2.042,0.214,3.867,2.644,4.405c0,0,0.009,0,0.009,0c-0.007,1.033,0.04,2.029,1.437,2.104
		c0.055,0.429,0.109,0.857,0.162,1.287c-0.138,0.852-0.303,1.711,0.66,2.238c0.01,0.676,0.019,1.352,0.027,2.029
		c-0.198,2.965,1.803,4.146,4.116,5.073c0.86,2.296,0.731,4.688,0.685,7.073c-0.197,0.28-0.578,0.57-0.564,0.84
		c0.283,5.497,3.16,10.059,5.404,14.849c0.033,4.456,0.065,8.913,0.1,13.369c-0.703,4.239-0.153,8.454,0.688,12.568
		c0.858,4.203,2.331,8.28,2.228,12.654c-0.025,1.042-0.14,2.182,1.3,2.479c0.005,0.688,0.01,1.376,0.017,2.064
		c-0.841,0.709-0.836,1.415,0.01,2.116c0.007,1.184,0.013,2.368,0.019,3.551c-1.156,1.856-0.817,3.102,1.455,3.555
		c0.236,0.237,0.474,0.474,0.71,0.711c2.855,6.62,8.874,9.115,15.38,6.333c1.808-0.773,3.176-1.965,3.11-4.177
		c0.908-1.455,2.103-2.624,3.531-3.562c1.421-0.093,1.412-1.115,1.394-2.144l0.001,0.001c1.347-0.066,2.056-0.774,2.129-2.12
		c1.636-1.673,3.271-3.346,4.907-5.018C1152.731,508.797,1153.22,508.815,1153.707,508.832z"/>
	<path fill-rule="evenodd" clip-rule="evenodd" fill="#51B5FE" d="M1046.455,423.599c0.041-1.448,1.643-1.125,2.221-1.961
		c0.763,0.003,1.525,0.005,2.288,0.009c3.36,1.568,6.909,0.516,10.364,0.699c11.012,0.583,22.12-1.17,33.061,1.38
		c0.86,0.201,1.907,0.284,2.614-0.609c0.447,0.02,0.895,0.04,1.343,0.059c0.266,0.67,0.529,1.341,0.794,2.012
		c0,0-0.073,0.078-0.074,0.079c-16.203-1.075-32.429-0.74-48.647-0.796C1049.059,424.466,1047.548,424.916,1046.455,423.599z"/>
	<path fill-rule="evenodd" clip-rule="evenodd" fill="#87CCFE" d="M1097.003,423.117c-0.707,0.893-1.754,0.81-2.614,0.609
		c-10.94-2.551-22.049-0.797-33.061-1.38c-3.455-0.183-7.004,0.869-10.364-0.699c2.002-0.994,3.853-2.434,6.292-2.128
		c-1.438,1.775,0.114,1.387,1.026,1.389c9.058,0.011,18.114-0.023,27.17,0.026C1089.422,420.956,1093.195,422.156,1097.003,423.117z
		"/>
	<path fill-rule="evenodd" clip-rule="evenodd" fill="#87CCFE" d="M1119.582,507.469c-1.439-0.297-1.325-1.437-1.3-2.479
		c0.104-4.374-1.369-8.451-2.228-12.654c-0.841-4.115-1.391-8.329-0.688-12.568c2.058,5.695,2.125,11.796,3.59,17.617
		C1119.787,500.682,1119.955,504.072,1119.582,507.469z"/>
	<path fill-rule="evenodd" clip-rule="evenodd" fill="#87CCFE" d="M1140.282,521.622c0.065,2.212-1.303,3.404-3.11,4.177
		c-6.506,2.783-12.524,0.287-15.38-6.333c0.53,0.202,1.367,0.258,1.543,0.628c2.748,5.79,7.984,4.149,12.61,4.284
		C1137.977,524.438,1138.578,522.14,1140.282,521.622z"/>
	<path fill-rule="evenodd" clip-rule="evenodd" fill="#87CCFE" d="M1115.268,466.399c-2.244-4.79-5.121-9.352-5.404-14.849
		c-0.014-0.27,0.367-0.56,0.564-0.84C1111.468,456.117,1115.582,460.575,1115.268,466.399z"/>
	<path fill-rule="evenodd" clip-rule="evenodd" fill="#51B5FE" d="M1158.657,502.438c0.477,0.006,0.953,0.011,1.43,0.017
		c-0.239,3.542-3.239,4.316-5.673,5.658c0.013-0.696,0.024-1.392,0.037-2.087c0.235-0.236,0.472-0.472,0.706-0.708
		c1.023-0.017,2.043-0.041,2.085-1.46C1157.714,503.384,1158.186,502.912,1158.657,502.438z"/>
	<path fill-rule="evenodd" clip-rule="evenodd" fill="#87CCFE" d="M1109.743,443.638c-2.313-0.927-4.314-2.108-4.116-5.073
		C1107.406,439.925,1109.147,441.317,1109.743,443.638z"/>
	<path fill-rule="evenodd" clip-rule="evenodd" fill="#87CCFE" d="M1103.332,430.907c-2.43-0.538-2.718-2.363-2.644-4.405
		C1102.385,427.481,1102.85,429.2,1103.332,430.907z"/>
	<path fill-rule="evenodd" clip-rule="evenodd" fill="#87CCFE" d="M1121.082,518.755c-2.272-0.454-2.611-1.699-1.455-3.555
		C1120.674,516.155,1120.814,517.481,1121.082,518.755z"/>
	<path fill-rule="evenodd" clip-rule="evenodd" fill="#87CCFE" d="M1099.14,425.188c-0.265-0.671-0.528-1.342-0.794-2.012
		c1.945-0.106,2.253,1.163,2.257,2.687C1100.115,425.637,1099.628,425.413,1099.14,425.188z"/>
	<path fill-rule="evenodd" clip-rule="evenodd" fill="#87CCFE" d="M1154.451,506.026c-0.013,0.696-0.024,1.391-0.037,2.087
		c-0.236,0.24-0.472,0.479-0.707,0.718c-0.487-0.017-0.976-0.035-1.463-0.052C1152.387,507.387,1153.234,506.559,1154.451,506.026z"
		/>
	<path fill-rule="evenodd" clip-rule="evenodd" fill="#87CCFE" d="M1147.337,513.798c-0.073,1.346-0.782,2.053-2.129,2.12
		C1145.248,514.538,1145.953,513.827,1147.337,513.798z"/>
	<path fill-rule="evenodd" clip-rule="evenodd" fill="#87CCFE" d="M1119.608,511.649c-0.846-0.701-0.851-1.407-0.01-2.116
		C1120.615,510.232,1120.608,510.938,1119.608,511.649z"/>
	<path fill-rule="evenodd" clip-rule="evenodd" fill="#87CCFE" d="M1105.6,436.536c-0.963-0.526-0.798-1.386-0.66-2.238
		C1106.273,434.716,1106.631,435.422,1105.6,436.536z"/>
	<path fill-rule="evenodd" clip-rule="evenodd" fill="#87CCFE" d="M1145.207,515.916c0.019,1.029,0.027,2.051-1.394,2.144
		C1143.743,516.998,1144.206,516.281,1145.207,515.916z"/>
	<path fill-rule="evenodd" clip-rule="evenodd" fill="#87CCFE" d="M1104.777,433.011c-1.396-0.075-1.443-1.071-1.437-2.104
		C1104.389,431.22,1104.83,431.947,1104.777,433.011z"/>
	<path fill-rule="evenodd" clip-rule="evenodd" fill="#87CCFE" d="M1157.242,503.858c-0.042,1.419-1.062,1.443-2.085,1.46
		C1155.464,504.276,1156.207,503.86,1157.242,503.858z"/>
	<path fill-rule="evenodd" clip-rule="evenodd" fill="#174F78" d="M992.08,357.788c1.422-0.861,2.194-1.832,3.184,0.981
		c4.51,12.821,9.482,25.479,14.319,38.185c0.862,2.266,2.744,3.574,4.917,4.288c8.343,2.741,16.315,6.447,24.646,9.255
		c4.296,1.449,8.613,3.019,12.83,4.773c0.661,0.275,1.442,0.442,1.478,1.276c0.038,0.891-0.827,1.13-1.451,1.306
		c-6.682,1.879-12.961,4.814-19.4,7.329c-6.209,2.425-12.508,4.646-18.602,7.33c-1.985,0.875-3.574,2.552-4.492,5.044
		c-3.32,9.008-7.444,17.735-10.445,26.838c-1.084,3.288-3.553,6.119-3.45,9.819c0.029,1.038-0.55,1.876-1.695,1.871
		c-1.006-0.004-1.305-0.934-1.557-1.703c-4.228-12.89-9.612-25.342-14.353-38.037c-1.25-3.349-4.311-4.38-7.117-5.275
		c-8.955-2.854-17.599-6.464-26.248-10.089c-2.81-1.178-5.716-2.125-8.55-3.25c-0.677-0.269-1.921-0.132-1.757-1.315
		c0.133-0.948,1.166-0.93,1.948-1.203c4.87-1.706,9.718-3.478,14.551-5.285c0.356-0.133,0.542-0.72,0.807-1.097
		c0.187-0.101,0.387-0.158,0.6-0.168c0.747,0.216,1.353,0.121,1.604-0.738c0.646-0.228,1.292-0.456,1.939-0.682
		c1.525,0.346,3.006,0.564,3.721-1.34c0.646-0.263,1.295-0.526,1.943-0.787c0.918,0.288,1.49,0.004,1.629-0.989
		c3.126,0.209,5.491-2.046,8.388-2.581c2.076,1.562,3.573-0.194,5.14-1.019c0.778-0.41,1.966-1.266,0.452-2.361
		c1.644-4.01,3.288-8.021,4.934-12.03c0.51-0.001,1.103,0.128,1.31-0.526c0.17-0.537-0.321-0.692-0.663-0.911
		c0.137-3.885,2.888-6.867,3.642-10.538c1.514-1.386,2.49-2.985,2.047-5.148c0.235-0.645,0.471-1.291,0.707-1.935
		c1.587-1.358,2.581-2.958,2.11-5.158c0.098-0.424,0.196-0.847,0.294-1.27c0.41-0.114,0.573-0.375,0.467-0.793
		C991.963,359.165,992.021,358.477,992.08,357.788z"/>
	<path fill-rule="evenodd" clip-rule="evenodd" fill="#1E557E" d="M977.058,398.162c1.514,1.095,0.326,1.951-0.452,2.361
		c-1.566,0.825-3.063,2.581-5.14,1.019C973.659,400.96,974.706,398.48,977.058,398.162z"/>
	<path fill-rule="evenodd" clip-rule="evenodd" fill="#286DA1" d="M991.144,361.916c0.471,2.199-0.523,3.799-2.11,5.158
		C988.359,364.79,989.564,363.276,991.144,361.916z"/>
	<path fill-rule="evenodd" clip-rule="evenodd" fill="#286DA1" d="M988.326,369.008c0.443,2.164-0.533,3.762-2.047,5.148
		C985.88,372.01,986.923,370.437,988.326,369.008z"/>
	<path fill-rule="evenodd" clip-rule="evenodd" fill="#286DA1" d="M959.506,405.899c-0.715,1.904-2.195,1.686-3.721,1.34
		C956.722,405.948,957.879,405.27,959.506,405.899z"/>
	<path fill-rule="evenodd" clip-rule="evenodd" fill="#1E557E" d="M982.638,384.694c0.342,0.219,0.833,0.374,0.663,0.911
		c-0.207,0.654-0.8,0.525-1.31,0.526C982.206,385.652,982.422,385.173,982.638,384.694z"/>
	<path fill-rule="evenodd" clip-rule="evenodd" fill="#286DA1" d="M963.078,404.123c-0.139,0.994-0.711,1.277-1.629,0.989
		C961.741,404.368,962.201,403.901,963.078,404.123z"/>
	<path fill-rule="evenodd" clip-rule="evenodd" fill="#286DA1" d="M953.846,407.921c-0.252,0.859-0.857,0.954-1.604,0.738
		C952.564,407.952,952.882,407.233,953.846,407.921z"/>
	<path fill-rule="evenodd" clip-rule="evenodd" fill="#286DA1" d="M991.904,359.853c0.106,0.419-0.057,0.679-0.467,0.793
		C991.594,360.381,991.75,360.117,991.904,359.853z"/>
	<path fill-rule="evenodd" clip-rule="evenodd" fill="#0E2E46" d="M780.938,347.941c2.118,6.563,7.187,9.371,13.494,10.601
		c0.198,1.934-1.036,3.046-2.399,4.017c-16.22,11.543-32.435,23.091-48.687,34.588c-7.056,4.991-14.195,9.866-21.297,14.793
		c-12.557-4.543-25.133-9.028-37.49-14.109c-4.779-1.965-9.671-3.677-14.58-5.301c-6.671-2.207-12.837-5.796-19.818-7.159
		c-0.866-0.169-1.949-0.587-1.738-1.839c0.181-1.069,1.236-0.8,1.97-1.078c6.567-2.481,13.093-5.071,19.664-7.542
		c5.939-2.234,11.946-4.288,17.876-6.545c11.306-4.303,22.59-8.662,33.852-13.074c2.335-0.915,3.541-2.943,4.38-5.256
		c5.561-15.332,11.032-30.698,16.803-45.952c2.992-7.908,6.267-15.708,8.822-23.779c0.314-0.994,0.453-2.278,1.698-2.433
		c1.694-0.21,1.184,1.397,1.514,2.263c5.252,13.82,10.504,27.64,15.718,41.475c3.013,7.998,5.956,16.021,8.931,24.036
		C779.507,346.735,779.363,347.822,780.938,347.941z"/>
	<path fill-rule="evenodd" clip-rule="evenodd" fill="#113856" d="M722.05,411.94c7.102-4.928,14.241-9.802,21.297-14.793
		c16.252-11.497,32.467-23.045,48.687-34.588c1.363-0.97,2.598-2.083,2.399-4.017c11.076,4.264,22.158,8.514,33.227,12.799
		c8.962,3.469,17.905,6.983,26.861,10.467c0.762,0.296,1.539,0.594,2.337,0.75c1.011,0.198,2.463-0.018,2.449,1.386
		c-0.013,1.319-1.593,1.263-2.494,1.468c-6.925,1.574-13.206,4.869-19.817,7.272c-9.022,3.281-18.024,6.624-26.997,10.041
		c-7.79,2.967-15.496,6.147-23.396,8.837c-2.994,1.02-4.406,3.771-5.498,6.589c-6.025,15.549-12.083,31.086-18.061,46.654
		c-3.019,7.86-5.894,15.776-8.939,23.952c-1.342-0.782-1.769-2.01-2.102-3.137c-3.033-10.263-7.534-19.96-11.394-29.904
		c-3.06-7.882-5.895-15.852-8.869-23.767c-1.947-5.178-4.057-10.296-5.91-15.506C725.098,414.386,723.364,413.389,722.05,411.94z"/>
	<path fill-rule="evenodd" clip-rule="evenodd" fill="#113856" d="M780.938,347.941c-1.575-0.12-1.432-1.206-1.288-2.293
		C780.457,346.2,781.016,346.893,780.938,347.941z"/>
</g>
</svg>
