<?xml version="1.0" encoding="utf-8"?>
<!-- Generator: Adobe Illustrator 16.0.0, SVG Export Plug-In . SVG Version: 6.00 Build 0)  -->
<!DOCTYPE svg PUBLIC "-//W3C//DTD SVG 1.1//EN" "http://www.w3.org/Graphics/SVG/1.1/DTD/svg11.dtd">
<svg version="1.1" id="Layer_2" xmlns="http://www.w3.org/2000/svg" xmlns:xlink="http://www.w3.org/1999/xlink" x="0px" y="0px"
	 width="1417.32px" height="1417.32px" viewBox="0 0 1417.32 1417.32" enable-background="new 0 0 1417.32 1417.32"
	 xml:space="preserve">
<circle fill="#F2F2F2" stroke="#000000" stroke-width="5" stroke-miterlimit="10" cx="708.66" cy="708.66" r="669.729"/>
<g id="Body">
	<path fill="#666666" d="M1170.67,964.23c0,19.03-5.48,36.78-14.95,51.75c-4.69,7.44-10.38,14.2-16.87,20.09
		c-17.22,15.63-40.09,25.16-65.18,25.16c-25.091,0-655.335,0-655.335,0s-44.115,0-69.206,0c-25.09,0-47.96-9.53-65.18-25.16
		c-8.85-8.04-16.21-17.689-21.61-28.49c-6.54-13.04-10.21-27.77-10.21-43.35s0-367.34,0-367.34h918.541
		C1170.67,596.891,1170.67,945.211,1170.67,964.23z"/>
	<path fill="#999999" d="M1170.67,413.21c5.165,41.493,0,183.68,0,183.68l-918.541-0.683c0,0-1.743-133.295,0.237-176.955
		c0.979-21.556,12.363-40.342,33.738-41.107c46.42-1.662,207.175-0.765,207.175-0.765l123.96-120h218l113.497,117.898
		c0,0,128.181,1.445,181.634,2.102C1148.743,377.606,1168.416,395.103,1170.67,413.21z"/>
	<path opacity="0.11" d="M1170.67,823.23l-0.38,149.829h-0.021c0,3.61-0.3,7.23-0.89,10.841c-6.12,38.229-43.34,74.699-81.58,77.189
		h-8.729c-0.5-0.03-1-0.06-1.49-0.1l-0.12,0.1l-373.1,0.141l-120.66-124l326-350L1170.67,823.23z"/>
	<circle fill="#FFFFFF" stroke="#000000" stroke-width="8" stroke-miterlimit="10" cx="707.389" cy="727.932" r="245.127"/>
	<circle fill="#348AED" stroke="#000000" stroke-width="8" stroke-miterlimit="10" cx="707.39" cy="727.932" r="188.127"/>
	<circle fill="#CCCCCC" stroke="#000000" stroke-width="2" stroke-miterlimit="10" cx="1060.196" cy="478.729" r="42.002"/>
</g>
</svg>
