<?xml version="1.0" encoding="utf-8"?>
<!-- Generator: Adobe Illustrator 16.0.0, SVG Export Plug-In . SVG Version: 6.00 Build 0)  -->
<!DOCTYPE svg PUBLIC "-//W3C//DTD SVG 1.1//EN" "http://www.w3.org/Graphics/SVG/1.1/DTD/svg11.dtd">
<svg version="1.1" id="Layer_1" xmlns="http://www.w3.org/2000/svg" xmlns:xlink="http://www.w3.org/1999/xlink" x="0px" y="0px"
	 width="289.334px" height="511.666px" viewBox="0 0 289.334 511.666" enable-background="new 0 0 289.334 511.666"
	 xml:space="preserve">
<linearGradient id="SVGID_1_" gradientUnits="userSpaceOnUse" x1="168.0713" y1="198.7568" x2="171.1415" y2="257.3405">
	<stop  offset="0" style="stop-color:#020202"/>
	<stop  offset="1" style="stop-color:#000000"/>
</linearGradient>
<polygon opacity="0.2" fill="url(#SVGID_1_)" enable-background="new    " points="270.997,203.983 221.231,254.715 68.351,254.715 
	68.351,203.983 "/>
<linearGradient id="SVGID_2_" gradientUnits="userSpaceOnUse" x1="-39.4668" y1="278.54" x2="111.1828" y2="327.489">
	<stop  offset="0" style="stop-color:#A10013"/>
	<stop  offset="1" style="stop-color:#000000"/>
</linearGradient>
<path opacity="0.2" fill="url(#SVGID_2_)" enable-background="new    " d="M68.351,102.685v97.952v3.346c0,0,0,182.017,0,253.557
	c0,17.878-50.679,50.453-50.679,50.453V102.685H68.351z"/>
<linearGradient id="SVGID_3_" gradientUnits="userSpaceOnUse" x1="270.9971" y1="77.3462" x2="17.6714" y2="77.3462">
	<stop  offset="0" style="stop-color:#020202"/>
	<stop  offset="1" style="stop-color:#000000"/>
</linearGradient>
<path opacity="0.2" fill="url(#SVGID_3_)" enable-background="new    " d="M270.997,52.007v0.455c0,0-25.32,50.223-50.273,50.223
	c-13.265,0-53.056,0-53.056,0H17.671L68.35,52.008L270.997,52.007L270.997,52.007z"/>
<linearGradient id="SVGID_4_" gradientUnits="userSpaceOnUse" x1="308.6533" y1="218.438" x2="206.9421" y2="483.4048">
	<stop  offset="0" style="stop-color:#860013"/>
	<stop  offset="1" style="stop-color:#000000"/>
</linearGradient>
<path opacity="0.2" fill="url(#SVGID_4_)" enable-background="new    " d="M270.997,507.993v-304.01l-49.766,50.732l-0.854,50.854
	v51.582c0,0-0.247,81.022,0.854,101.307C222.183,475.987,270.997,507.993,270.997,507.993z"/>
<g opacity="0.2">
	<path d="M89.066,293.071l-1.401,2.943c-1.219-0.641-2.521-0.959-3.904-0.959c-0.182,0-0.618,0.012-1.31,0.038v5.9h5.967
		l-1.687,2.942c-0.795-0.364-1.487-0.612-2.075-0.74c-0.458-0.096-1.193-0.162-2.205-0.204v3.1c0,1.98,0.212,3.729,0.636,5.24H79.04
		c0.415-1.557,0.623-3.368,0.623-5.437v-7.834c0-1.987-0.208-3.652-0.623-4.994h10.026V293.071z"/>
	<path d="M99.897,311.334h-3.048v-1.22l-2.006,1.492l-0.596,0.013c-1.036,0.025-1.894-0.199-2.576-0.675
		c-0.768-0.535-1.152-1.312-1.152-2.321c0-0.908,0.393-1.708,1.178-2.399c0.587-0.51,1.45-0.998,2.589-1.466
		c0.854-0.323,1.708-0.645,2.563-0.96v-0.695c0-1.828-0.789-2.742-2.367-2.742c-0.707,0-1.63,0.344-2.77,1.025l0.713-2.429
		c1.089-0.403,2.032-0.606,2.828-0.606c1.712,0,2.892,0.588,3.541,1.766c0.484,0.873,0.726,2.253,0.726,4.138
		c0,0.39-0.013,0.979-0.039,1.771c-0.026,0.792-0.039,1.378-0.039,1.759C99.443,309.319,99.594,310.504,99.897,311.334z
		 M96.849,309.453v-3.528h-3.333c-0.268,0.813-0.402,1.467-0.402,1.959c0,1.144,0.748,1.713,2.244,1.713
		C95.772,309.597,96.269,309.549,96.849,309.453z"/>
	<path d="M109.95,298.597l-0.531,2.764c-0.604-0.416-1.19-0.622-1.759-0.622c-0.586,0-1.44,0.284-2.561,0.854v5.94
		c0,1.332,0.168,2.599,0.506,3.801h-3.554c0.337-1.22,0.506-2.278,0.506-3.179v-5.032c0-1.755-0.168-3.255-0.506-4.5h3.048v2.295
		l1.979-2.204c0.647-0.242,1.211-0.363,1.695-0.363C109.16,298.351,109.553,298.433,109.95,298.597z"/>
	<path d="M120.339,304.019l-0.026,1.297h-7.121c0.371,2.854,1.688,4.281,3.949,4.281c0.863,0,1.83-0.233,2.9-0.7l-0.96,2.338
		c-0.985,0.248-1.794,0.373-2.425,0.373c-1.92,0-3.424-0.617-4.514-1.854c-1.046-1.177-1.57-2.731-1.57-4.67
		c0-1.799,0.419-3.325,1.258-4.579c0.968-1.435,2.309-2.151,4.021-2.151c1.513,0,2.672,0.592,3.476,1.775
		C120.036,301.156,120.374,302.453,120.339,304.019z M118.212,303.126c0.026-0.779-0.176-1.454-0.606-2.021
		c-0.456-0.625-1.067-0.938-1.833-0.938c-0.843,0-1.492,0.359-1.948,1.081c-0.379,0.608-0.568,1.358-0.568,2.253h4.942
		L118.212,303.126z"/>
	<path d="M129.029,307.938c0,1.177-0.454,2.097-1.362,2.762c-0.813,0.604-1.825,0.906-3.036,0.906c-0.588,0-1.561-0.146-2.918-0.441
		v-3.163c1.19,1.191,2.19,1.789,3,1.789c0.449,0,0.843-0.146,1.184-0.439c0.341-0.293,0.511-0.665,0.511-1.114
		c0-0.525-0.379-1.113-1.138-1.763c-1.388-1.166-2.095-1.767-2.121-1.801c-0.767-0.813-1.151-1.685-1.151-2.617
		c0-1.097,0.458-2.004,1.375-2.721c0.838-0.656,1.824-0.984,2.957-0.984c0.744,0,1.539,0.166,2.387,0.496v2.476
		c-0.888-0.771-1.668-1.154-2.34-1.154c-0.457,0-0.854,0.121-1.189,0.363c-0.379,0.274-0.569,0.635-0.569,1.073
		c0,0.57,0.379,1.186,1.138,1.841l2.121,1.813C128.646,306.069,129.029,306.964,129.029,307.938z"/>
	<path fill="#A10013" d="M153.414,311.334h-4.047c0.415-1.453,0.623-2.659,0.623-3.619v-4.565h-7.834v2.336
		c0,2.031,0.211,3.98,0.635,5.851h-4.047c0.415-1.436,0.623-3.217,0.623-5.344v-7.199c0-2.179-0.208-4.086-0.623-5.72h4.047
		c-0.424,1.658-0.635,3.139-0.635,4.436v3.373h7.834v-2.374c0-1.823-0.208-3.636-0.623-5.435h4.047
		c-0.424,1.564-0.636,3.318-0.636,5.266v6.784C152.778,307.594,152.99,309.665,153.414,311.334z"/>
	<path fill="#A10013" d="M165.243,311.334h-3.049v-1.22l-2.006,1.492l-0.597,0.013c-1.034,0.025-1.895-0.199-2.575-0.675
		c-0.77-0.535-1.151-1.312-1.151-2.321c0-0.908,0.393-1.708,1.179-2.399c0.586-0.51,1.449-0.998,2.589-1.466
		c0.854-0.323,1.708-0.645,2.563-0.96v-0.695c0-1.828-0.789-2.742-2.367-2.742c-0.706,0-1.63,0.344-2.77,1.025l0.713-2.429
		c1.09-0.403,2.033-0.606,2.828-0.606c1.713,0,2.893,0.588,3.541,1.766c0.482,0.873,0.727,2.253,0.727,4.138
		c0,0.39-0.014,0.979-0.039,1.771c-0.025,0.792-0.039,1.378-0.039,1.759C164.789,309.319,164.94,310.504,165.243,311.334z
		 M162.194,309.453v-3.528h-3.332c-0.271,0.813-0.402,1.467-0.402,1.959c0,1.144,0.748,1.713,2.244,1.713
		C161.119,309.597,161.616,309.549,162.194,309.453z"/>
	<path fill="#A10013" d="M185.103,311.334h-3.555c0.338-1.091,0.506-2.29,0.506-3.599v-4.44c0-0.84-0.104-1.44-0.312-1.805
		c-0.294-0.503-0.843-0.753-1.646-0.753c-0.764,0-1.641,0.341-2.636,1.022v6.832c0,0.685,0.169,1.599,0.506,2.74h-3.554
		c0.337-0.805,0.506-1.952,0.506-3.441v-4.284c0-0.961-0.082-1.627-0.246-2c-0.27-0.58-0.82-0.869-1.658-0.869
		c-0.701,0-1.598,0.332-2.688,0.998l0.014,6.131c0,1.395,0.164,2.55,0.492,3.468h-3.555c0.338-1.09,0.507-2.355,0.507-3.801v-4.384
		c0-1.896-0.169-3.402-0.507-4.526h3.049v2.451c1.014-1.177,1.59-1.824,1.729-1.945c0.614-0.521,1.377-0.778,2.287-0.778
		c1.672,0,2.682,0.942,3.026,2.827l1.872-1.987c0.667-0.561,1.459-0.84,2.378-0.84c1.229,0,2.069,0.51,2.521,1.53
		c0.303,0.685,0.455,1.722,0.455,3.113c0,3.839-0.009,5.243-0.025,4.215C184.604,308.801,184.782,310.176,185.103,311.334z"/>
	<path fill="#A10013" d="M196.75,304.019l-0.026,1.297h-7.121c0.371,2.854,1.688,4.281,3.949,4.281c0.862,0,1.829-0.233,2.899-0.7
		l-0.96,2.338c-0.985,0.248-1.795,0.373-2.426,0.373c-1.92,0-3.424-0.617-4.516-1.854c-1.046-1.177-1.568-2.731-1.568-4.67
		c0-1.799,0.42-3.325,1.26-4.579c0.968-1.435,2.309-2.151,4.021-2.151c1.512,0,2.672,0.592,3.477,1.775
		C196.446,301.156,196.784,302.453,196.75,304.019z M194.622,303.126c0.025-0.779-0.176-1.454-0.605-2.021
		c-0.457-0.625-1.065-0.938-1.832-0.938c-0.844,0-1.492,0.359-1.949,1.081c-0.379,0.608-0.565,1.358-0.565,2.253h4.94
		L194.622,303.126z"/>
	<path fill="#A10013" d="M209.851,311.334h-3.049v-1.814l-1.593,1.775c-0.597,0.208-1.101,0.313-1.517,0.313
		c-1.647,0-2.903-0.535-3.77-1.607c-0.803-0.979-1.204-2.309-1.204-3.995c0-2.041,0.593-3.796,1.774-5.266
		c1.271-1.594,2.896-2.389,4.882-2.389c0.535,0,1.013,0.069,1.425,0.207v-0.881c0-1.428-0.169-2.688-0.506-3.787l3.555-0.728
		c-0.336,1.254-0.507,2.668-0.507,4.241v10.092C209.344,308.938,209.513,310.219,209.851,311.334z M206.802,308.831v-7.9
		c-0.585-0.51-1.304-0.765-2.156-0.765c-2.203,0-3.305,1.601-3.305,4.8c0,3.087,1.145,4.631,3.436,4.631
		C205.42,309.597,206.097,309.341,206.802,308.831z"/>
</g>
</svg>
