<?xml version="1.0" encoding="utf-8"?>
<!-- Generator: Adobe Illustrator 16.0.0, SVG Export Plug-In . SVG Version: 6.00 Build 0)  -->
<!DOCTYPE svg PUBLIC "-//W3C//DTD SVG 1.1//EN" "http://www.w3.org/Graphics/SVG/1.1/DTD/svg11.dtd">
<svg version="1.1" id="Layer_1" xmlns="http://www.w3.org/2000/svg" xmlns:xlink="http://www.w3.org/1999/xlink" x="0px" y="0px"
	 width="1417.32px" height="1417.32px" viewBox="0 0 1417.32 1417.32" enable-background="new 0 0 1417.32 1417.32"
	 xml:space="preserve">
<linearGradient id="SVGID_1_" gradientUnits="userSpaceOnUse" x1="586.1743" y1="14.4297" x2="830.9993" y2="1402.902">
	<stop  offset="0" style="stop-color:#DFDFE4"/>
	<stop  offset="1" style="stop-color:#6E6E6E"/>
</linearGradient>
<path fill="url(#SVGID_1_)" d="M581.157,836.193c-3.69,0-6.427,0-9.163,0c-173.264,0-346.525,0.045-519.788-0.099
	c-10.464,0-21.344-1.19-29.262-8.845c-5.014-4.845-9.696-11.112-11.806-17.618c-2.667-8.244-3.461-17.372-3.509-26.128
	c-0.3-52.688-0.446-105.377,0.035-158.062c0.142-15.1,3.734-30.173,18.705-37.716c7.781-3.918,17.244-6.274,25.956-6.293
	c173.263-0.356,346.521-0.265,519.784-0.265c2.722,0,5.449,0,9.047,0c0-3.187,0-5.865,0-8.545c0-173.461-0.04-346.92,0.092-520.38
	c0.009-10.461,1.134-21.355,8.822-29.267c4.86-5.001,11.113-9.719,17.624-11.78c8.446-2.675,17.76-3.484,26.711-3.537
	c52.488-0.303,104.987-0.448,157.474,0.039c15.077,0.142,30.176,3.675,37.719,18.668c3.916,7.782,6.299,17.239,6.321,25.946
	c0.373,147.806,0.269,295.608,0.269,443.419c0,26.048,0,52.097,0,78.145c0,2.137,0,4.269,0,7.292c3.16,0,5.838,0,8.514,0
	c173.462,0,346.918-0.04,520.379,0.089c10.9,0.009,22.046,1.465,30.263,9.471c4.601,4.48,8.922,10.347,10.684,16.38
	c2.546,8.726,3.597,18.16,3.652,27.302c0.318,52.49,0.455,104.984-0.03,157.471c-0.142,15.094-3.712,30.171-18.688,37.719
	c-7.78,3.918-17.238,6.303-25.948,6.329c-144.643,0.379-289.293,0.265-433.941,0.265c-29.007,0-58.017,0-87.026,0
	c-2.33,0-4.66,0-7.855,0c0,3.179,0,5.853,0,8.535c0,173.452,0.039,346.914-0.093,520.375c-0.006,10.683-1.359,21.705-9.186,29.745
	c-4.722,4.864-10.92,9.352-17.278,11.303c-8.486,2.594-17.77,3.466-26.719,3.511c-52.292,0.31-104.592,0.424-156.884-0.018
	c-15.307-0.131-30.596-3.521-38.307-18.703c-3.94-7.762-6.28-17.239-6.297-25.952c-0.38-144.05-0.27-288.107-0.27-432.165
	c0-29.599,0-59.204,0-88.801C581.157,841.693,581.157,839.362,581.157,836.193z"/>
</svg>
