<?xml version="1.0" encoding="utf-8"?>
<!-- Generator: Adobe Illustrator 16.0.0, SVG Export Plug-In . SVG Version: 6.00 Build 0)  -->
<!DOCTYPE svg PUBLIC "-//W3C//DTD SVG 1.1//EN" "http://www.w3.org/Graphics/SVG/1.1/DTD/svg11.dtd">
<svg version="1.1" id="Layer_1" xmlns="http://www.w3.org/2000/svg" xmlns:xlink="http://www.w3.org/1999/xlink" x="0px" y="0px"
	 width="1417.32px" height="1417.32px" viewBox="0 0 1417.32 1417.32" enable-background="new 0 0 1417.32 1417.32"
	 xml:space="preserve">
<rect x="-12.84" fill="#001E36" width="1458" height="1429.16"/>
<path fill="#30A6FC" d="M494.271,881.42c6.564,0,11.516,0,16.467,0c82.583,0,157.508,0.297,240.089-0.212
	c13.013-0.081,17.572,1.285,17,15.952c0.047,30.333,2.085,63,0.047,93.667c-1.537,10.312-4.271,14.034-14.714,14.007
	c-120.874-0.324-253.557-1.065-374.429-0.719c-12.281,0.036-15.947-4.614-15.934-16.641c0.225-201.728,0.23-403.455-0.019-605.182
	c-0.015-11.674,3.854-16.028,15.224-15.878c33.213,0.435,66.452,0.797,99.643-0.161c13.823-0.398,16.9,4.729,16.869,17.938
	c-0.375,159.209-0.242,318.418-0.242,477.625C494.271,867.829,494.271,873.838,494.271,881.42z"/>
<path fill="#30A6FC" d="M967.368,578.618c17.409-13.653,34.517-28.629,53.122-41.293c27.109-18.456,57.697-26.542,90.289-27.114
	c9.859-0.175,14.181,3.037,14.051,13.783c-0.425,35.422-0.599,70.863,0.099,106.276c0.229,11.561-3.61,14.585-14.31,14.212
	c-34.977-1.229-68.839,4.887-101.329,18.437c-2.987,1.246-5.938,2.575-8.904,3.873c-20.374,8.919-29.935,22.001-29.407,47.375
	c1.886,91.127,0.516,182.319,0.993,273.485c0.066,12.725-2.956,17.55-16.118,17.212c-33.191-0.848-66.435-0.855-99.627,0
	c-13.896,0.356-17.049-5.305-17.039-18.367c0.093-132.259-0.179-264.521-0.698-396.78c-0.076-19.331-0.887-38.223-0.829-57.557
	c-0.058-8.333,5.523-12.182,13.995-12.102c31.365,0.293,57.006,0.287,88.373-0.034c9.819-0.1,16.191,3.935,18.342,13.462
	C961.777,548.586,964.464,563.861,967.368,578.618z"/>
</svg>
