<?xml version="1.0" encoding="utf-8"?>
<!-- Generator: Adobe Illustrator 16.0.1, SVG Export Plug-In . SVG Version: 6.00 Build 0)  -->
<!DOCTYPE svg PUBLIC "-//W3C//DTD SVG 1.1//EN" "http://www.w3.org/Graphics/SVG/1.1/DTD/svg11.dtd">
<svg version="1.1" xmlns="http://www.w3.org/2000/svg" xmlns:xlink="http://www.w3.org/1999/xlink" x="0px" y="0px"
	 width="1417.32px" height="1417.32px" viewBox="0 0 1417.32 1417.32" enable-background="new 0 0 1417.32 1417.32"
	 xml:space="preserve">
<g id="Layer_2">
	<rect x="-15.093" y="-24.093" fill="#FFFFFF" width="1456.28" height="1470.147"/>
</g>
<g id="Layer_1">
	<g display="none">
		<linearGradient id="SVGID_1_" gradientUnits="userSpaceOnUse" x1="-312.8398" y1="507.4175" x2="-198.813" y2="507.4175">
			<stop  offset="0" style="stop-color:#FB1A88"/>
			<stop  offset="1" style="stop-color:#FFCA22"/>
		</linearGradient>
		<circle display="inline" fill="url(#SVGID_1_)" cx="-255.826" cy="507.417" r="57.013"/>
		<circle display="inline" fill="#FFCA22" cx="-255.826" cy="638.848" r="57.014"/>
		<linearGradient id="SVGID_2_" gradientUnits="userSpaceOnUse" x1="-312.8398" y1="788.0781" x2="-198.8125" y2="788.0781">
			<stop  offset="0" style="stop-color:#6549D4"/>
			<stop  offset="1" style="stop-color:#38B1FD"/>
		</linearGradient>
		<circle display="inline" fill="url(#SVGID_2_)" cx="-255.826" cy="788.078" r="57.014"/>
		<circle display="inline" fill="#38B1FD" cx="-255.826" cy="919.508" r="57.014"/>
	</g>
	<g>
		<linearGradient id="SVGID_3_" gradientUnits="userSpaceOnUse" x1="380.1382" y1="249.4985" x2="380.1381" y2="1417.3208">
			<stop  offset="0" style="stop-color:#6549D4"/>
			<stop  offset="1" style="stop-color:#38B1FD"/>
		</linearGradient>
		<path fill="url(#SVGID_3_)" d="M714.184,398.558 M714.1,1417.32V249.603c-31.32-0.74-60.826,2.465-89.485,9.854
			c-37.94,9.79-71.64,28.24-101.09,55.36c-4.46,4.06-12.66,11.99-24.6,23.8c-8.54,8.431-15.55,16.86-21.02,25.28
			c-5.37,7.75-9.64,16.08-12.82,24.97c-2.97,8.33-5.4,16.811-7.28,25.431c-1.63,7.489-2.87,16.199-3.72,26.12
			c-1.71,19.789-2.05,39.63-1.04,59.529c1.61,27.72,4.61,55.28,9,82.7l0.52,5.44c0.04,0.39-0.23,0.76-0.63,0.85
			c-7.34,1.85-13.53,5.29-18.56,10.32c-4.09,4.061-7.32,9.39-9.68,15.97c-2.13,5.95-3.38,12.16-3.74,18.61
			c-0.43,7.88-0.16,15.73,0.81,23.56c1.51,12.19,3.98,24.181,7.4,35.97c5.4,20.7,13.83,39.471,25.29,56.321
			c5.2,7.65,12.1,13.939,20.69,18.869c0.37,0.211,0.62,0.58,0.69,1.01l3.16,17.58c6.91,35.17,19.02,68.301,36.32,99.381
			c4.6,8.271,9.5,16.08,14.7,23.431c6.83,9.649,14.29,19,22.38,28.04c0.31,0.35,0.46,0.81,0.41,1.25l-3.33,29.909
			c-2.79,18.971-7.26,37.54-13.41,55.71c-3.13,8.961-7.18,17.41-12.16,25.37c-4.44,7.091-9.21,12.71-14.28,16.86
			c-5.57,4.54-12.02,8.32-19.35,11.32c-20.05,8.199-38.04,14.569-53.95,19.109c-36.79,10.36-77.49,21.32-122.09,32.87
			c-11.89,3.09-25.75,7.01-41.58,11.771c-17.3,4.689-35.31,10.54-54.01,17.56c-8.51,3.19-16.11,6.561-22.81,10.12
			c-3.17,1.5-6.29,3.11-9.34,4.85c-4.11,2.32-7.17,4.021-9.19,5.101c-28.56,15.26-53.39,35.22-74.5,59.89
			c-13.64,15.771-25.2,32.95-34.67,51.53c-13.41,26.33-23.02,53.92-28.86,82.77c-1.28,6.33-1.99,13.091-2.13,20.271
			c-0.15,7.66,0.075,15.33,0.125,23L714.1,1417.32z M479.134,364.598v-0.05c0,0.069,0.01,0.149,0.03,0.22
			C479.144,364.718,479.134,364.657,479.134,364.598z M479.584,365.268c-0.01-0.01-0.03-0.01-0.04-0.03
			c0.02,0.021,0.05,0.03,0.08,0.04C479.614,365.277,479.594,365.277,479.584,365.268z M713.074,734.678h-0.05
			c0.02,0,0.04,0,0.069-0.01C713.084,734.678,713.084,734.678,713.074,734.678z"/>
		<linearGradient id="SVGID_4_" gradientUnits="userSpaceOnUse" x1="1042.6328" y1="249.5391" x2="1042.6328" y2="1417.3208">
			<stop  offset="0" style="stop-color:#FB1A88"/>
			<stop  offset="1" style="stop-color:#FFCA22"/>
		</linearGradient>
		<path fill="url(#SVGID_4_)" d="M1370.747,1417.32c0.4-14.08,0.55-28.17,0.45-42.26c-0.03-4.5-0.561-8.801-1.59-12.881
			c-2.391-9.449-5.23-18.77-8.5-27.96c-7.55-23.439-17.721-45.68-30.511-66.729c-7.949-13.42-17.05-26.01-27.279-37.771
			c-13.601-16.369-28.94-30.899-46.021-43.6c-9.26-7.32-18.05-13.04-26.38-17.16c-8.37-4.14-19.1-8.35-32.18-12.649
			c-29.5-9.69-59.351-18.17-89.54-25.44c-40.16-9.79-80.271-19.76-120.33-29.9c-4.79-1.22-16.12-4.439-34-9.659
			c-16.54-4.73-32.5-10.96-47.86-18.67c-5.89-2.961-10.55-6.431-13.989-10.431c-8.53-9.92-15.23-21.649-20.101-35.21
			c-4.92-13.8-8.72-27.859-11.42-42.18c-2.729-14.48-4.75-29.45-6.05-44.92c-0.07-0.82,0.21-1.641,0.76-2.25
			c7.93-8.8,15.12-17.88,21.561-27.26c15.71-22.221,28.029-46.19,36.97-71.921c4.729-12.56,8.63-25.38,11.7-38.46l5.939-30.119
			c0.141-0.721,0.57-1.32,1.16-1.65c5.59-3.08,10.45-7.07,14.58-11.971c10-11.84,17.69-25.07,23.06-39.689
			c10.7-26.01,16.11-53.09,16.221-81.25c-0.32-7.73-1.87-15.05-4.641-21.949c-2.609-6.531-6.05-11.691-10.319-15.461
			c-4.74-4.189-10.45-7.119-17.141-8.789c-0.55-0.141-0.899-0.681-0.83-1.261l3.12-22.12c3.37-22.73,5.57-45.561,6.57-68.509
			c0.72-11.53,0.84-23.061,0.35-34.6c-0.22-20.541-2.93-40.73-8.109-60.57c-6.221-23.021-17.71-42.94-34.471-59.78
			c-5.01-5.05-10.06-10.05-15.149-15.01c-7.33-7.32-14.98-14.301-22.95-20.94c-16.07-13.35-33.63-24.45-52.68-33.3
			c-37.36-15.78-76.4-23.61-117.11-23.5l0.08,1167.78H1370.747z M716.487,366.34c-0.04,0-0.08-0.01-0.11-0.02
			c0.08,0.01,0.15,0.02,0.23,0.02H716.487z"/>
	</g>
</g>
</svg>
