<?xml version="1.0" encoding="utf-8"?>
<!-- Generator: Adobe Illustrator 16.0.0, SVG Export Plug-In . SVG Version: 6.00 Build 0)  -->
<!DOCTYPE svg PUBLIC "-//W3C//DTD SVG 1.1//EN" "http://www.w3.org/Graphics/SVG/1.1/DTD/svg11.dtd">
<svg version="1.1" id="Layer_1" xmlns="http://www.w3.org/2000/svg" xmlns:xlink="http://www.w3.org/1999/xlink" x="0px" y="0px"
	 width="1417.32px" height="1417.32px" viewBox="0 0 1417.32 1417.32" enable-background="new 0 0 1417.32 1417.32"
	 xml:space="preserve">
<rect fill="#FFFFFF" width="1417.32" height="1417.32"/>
<g>
	<path fill="#07BCF9" d="M125.841,712.99c0-119.194,0.069-238.388-0.04-357.582c-0.037-39.633,7.94-77.304,26.979-112.142
		c6.53-11.948,13.677-23.903,22.48-34.175c20.693-24.153,43.802-45.502,72.539-60.355c26.419-13.655,54.109-22.457,83.534-23.766
		c34.863-1.549,69.818-1.246,104.733-1.347c58.5-0.169,117.002-0.018,175.502-0.012c8.894,0.001,17.803-0.35,26.672,0.104
		c2.43,0.125,5.281,2.096,7.016,4.049c10.844,12.202,21.421,24.642,32.096,36.998c13.878,16.061,27.727,32.148,41.657,48.162
		c15.797,18.161,31.734,36.197,47.486,54.395c9.768,11.286,19.277,22.8,28.969,34.155c3.516,4.119,6.039,8.464,3.633,13.997
		c-2.594,5.967-7.018,8.955-13.775,8.944c-24.311-0.038-48.621,0.207-72.93,0.316c-42.354,0.191-84.705,0.518-127.057,0.507
		c-64.385-0.014-128.768-0.302-193.152-0.386c-12.627-0.017-24.964,1.601-36.286,7.925c-14.915,8.331-24.615,21.408-27.014,37.71
		c-2.759,18.74-2.6,107.643-2.943,324.263c0.06,40.289,0.274,305.269,1.615,345.526c0.994,29.855,21.484,49.752,49.29,49.967
		c111.674,0.863,223.352,1.033,335.028,1.207c85.092,0.131,170.184-0.059,255.279-0.246c20.883-0.047,41.764-0.639,62.645-0.998
		c21.115-0.365,35.848-11.582,47.063-28.41c7.359-11.047,8.84-23.621,8.826-36.619c-0.143-120.531-0.184-241.061-0.25-361.591
		c-0.008-14.329-0.033-28.653,0.021-42.979c0.031-7.566,12.189-14.802,18.164-10.317c7.305,5.485,28.791,23.109,32.441,26.106
		c21.131,17.353,42.166,34.828,63.186,52.322c21.453,17.857,42.824,35.817,64.289,53.661c7.1,5.902,14.555,11.387,21.453,17.51
		c1.744,1.549,2.766,4.82,2.779,7.309c0.254,41.066,0.264,82.133,0.389,123.203c0.117,37.813,0.611,75.633,0.361,113.443
		c-0.184,27.854-0.682,55.736-2.166,83.543c-1.473,27.539-9.152,53.621-20.928,78.607c-10.191,21.627-23.418,41.125-39.963,58.068
		c-17.986,18.42-38.641,33.426-62.076,44.484c-20.172,9.521-40.742,17.99-62.984,20.307c-19.758,2.059-39.697,3.063-59.566,3.195
		c-63.434,0.424-126.873,0.195-190.311,0.279c-38.93,0.053-77.861,0.281-116.791,0.313c-68.18,0.057-136.362,0.129-204.544-0.006
		c-60.016-0.121-120.032-0.432-180.047-0.828c-37.752-0.248-73.653-8.619-106.537-27.488
		c-25.787-14.795-48.609-33.432-67.151-57.117c-22.046-28.162-37.229-59.635-44.055-94.701c-3.185-16.359-4.739-33.291-4.796-49.973
		c-0.398-116.51-0.211-233.023-0.211-349.535C126.209,712.99,126.024,712.99,125.841,712.99z"/>
	<path fill="#07BCF9" d="M740.018,827.553c-52.031,0-104.061-0.066-156.092,0.109c-4.847,0.016-6.125-1.561-6.145-6.178
		c-0.207-45.631-0.788-91.26-0.867-136.89c-0.099-57.675,0.16-115.351,0.305-173.025c0.011-4.333-0.818-10.395,4.042-11.339
		c3.456-0.673,8.639,2.285,11.584,5.147c24.658,23.968,48.974,48.288,73.395,72.504c0.405,0.402,0.785,0.831,1.204,1.216
		c7.932,7.318,8.906,7.385,16.596-0.274c27.854-27.75,55.595-55.614,83.485-83.328c18.148-18.033,36.434-35.928,54.754-53.783
		c5.822-5.674,6.324-5.908,12.459-0.118c18.764,17.708,37.408,35.555,55.756,53.696c20.688,20.453,41.033,41.252,61.457,61.971
		c5.979,6.066,11.826,12.272,17.533,18.594c4.979,5.519,5.223,9.198,0.121,15.015c-6.873,7.837-14.191,15.292-21.537,22.692
		c-28.967,29.175-58.053,58.23-87.018,87.408c-10.295,10.368-20.34,20.991-30.574,31.42c-2.951,3.006-3.697,5.662-0.426,9.049
		c13.055,13.516,25.949,27.189,38.965,40.746c10.244,10.672,20.795,21.053,30.697,32.031c2.182,2.418,2.559,6.77,2.947,10.32
		c0.09,0.838-3.123,2.908-4.846,2.943c-22.4,0.463-44.805,0.797-67.209,0.895c-30.195,0.135-60.393,0.033-90.588,0.033
		C740.018,828.121,740.018,827.838,740.018,827.553z"/>
	<path fill="#07BCF9" d="M1294.545,285.652c0,49.664,0.029,99.33-0.057,148.991c-0.008,3.958-0.367,8.031-1.365,11.839
		c-1.045,3.986-4.293,5.766-7.902,3.245c-5.396-3.771-54.055-50.995-73.471-70.194c-4.162-4.117-8.953-7.584-13.361-11.459
		c-3.277-2.884-5.674-2.229-8.678,0.828c-18.734,19.064-37.617,37.979-56.533,56.862c-28.625,28.57-57.361,57.024-85.91,85.671
		c-3.033,3.042-5.484,2.953-8.223,0.399c-10.674-9.96-21.447-19.823-31.842-30.074c-14.334-14.135-28.332-28.618-42.525-42.899
		c-19.973-20.101-40.15-40-59.926-60.296c-8.654-8.885-8.578-13.188,0.049-22.19c12.873-13.435,26.17-26.458,39.334-39.61
		c13.66-13.654,27.314-27.318,41.09-40.856c14.588-14.337,29.305-28.547,43.994-42.784c4.631-4.488,9.582-8.669,13.936-13.407
		c2.613-2.841,3.947-6.179,0.193-9.86c-13.135-12.874-26.166-25.859-39.002-39.032c-11.074-11.362-34.41-36.67-35.02-37.84
		c-2.506-4.8-0.898-7.836,4.479-8.059c9.479-0.39,18.967-0.771,28.451-0.773c94.592-0.007,189.186,0.06,283.777,0.124
		c8.098,0.006,8.307,0.124,8.314,8.368c0.053,51.002,0.027,102.003,0.027,153.006
		C1294.432,285.652,1294.488,285.652,1294.545,285.652z"/>
</g>
</svg>
