<?xml version="1.0" encoding="utf-8"?>
<!-- Generator: Adobe Illustrator 16.0.0, SVG Export Plug-In . SVG Version: 6.00 Build 0)  -->
<!DOCTYPE svg PUBLIC "-//W3C//DTD SVG 1.1//EN" "http://www.w3.org/Graphics/SVG/1.1/DTD/svg11.dtd">
<svg version="1.1" xmlns="http://www.w3.org/2000/svg" xmlns:xlink="http://www.w3.org/1999/xlink" x="0px" y="0px"
	 width="1417.32px" height="1417.32px" viewBox="0 0 1417.32 1417.32" enable-background="new 0 0 1417.32 1417.32"
	 xml:space="preserve">
<g id="Layer_4">
	<linearGradient id="SVGID_1_" gradientUnits="userSpaceOnUse" x1="1416.8193" y1="-0.6255" x2="135.7865" y2="1282.2191">
		<stop  offset="0" style="stop-color:#07C8FE"/>
		<stop  offset="1" style="stop-color:#F43C99"/>
	</linearGradient>
	<rect y="-0.125" fill="url(#SVGID_1_)" width="1417.32" height="1417.32"/>
</g>
<g id="Layer_6">
	<path fill="#FFFFFF" d="M612.47,1084.86c0,58.34-36.95,107.94-88.46,126.12c-13.6,4.81-28.23,7.42-43.45,7.42
		c-15.12,0-29.65-2.58-43.18-7.32c-51.65-18.109-88.73-67.779-88.73-126.22c0-8.97-1.08-495.01-1.08-495.01s9.91,100.79,27.9,145.77
		c15.22,38.07,36.23,73.12,61.91,103.99c0,0-3.652,186.715,0,248.32c1.5,25.301,23.66,41.39,42.95,41.39
		c19.98,0,42.273-17.491,43.68-44.01c2.211-41.675,0-168.83,0-168.83c27.76,17.95,57.96,32.31,89.99,42.46
		C614,958.94,612.47,1075.89,612.47,1084.86z"/>
	<path fill="#FFFFFF" d="M933,265.51c-7.55-5.01-15.29-9.74-23.2-14.19c-54.27-30.55-116.66-47.94-183.04-47.94
		s-128.78,17.39-183.05,47.94c-6.7,3.76-13.27,7.73-19.7,11.9c-32.58,21.03-61.78,47-86.63,76.87
		c-18.43,22.16-34.46,46.47-47.66,72.51c-24.75,48.77-39.6,103.61-41.85,161.75c-0.2,5.14-0.3,10.31-0.3,15.5
		c0,51.57,9.91,100.79,27.9,145.77c15.22,38.07,36.23,73.12,61.91,103.99c17.62,21.18,37.44,40.4,59.09,57.29
		c8.88,6.93,18.06,13.47,27.54,19.58c27.76,17.95,57.96,32.31,89.99,42.46c35.62,11.3,73.49,17.38,112.76,17.38
		c3.66,0,7.311-0.05,10.95-0.17c33.82-0.97,66.53-6.46,97.58-15.89c34.95-10.631,67.79-26.25,97.71-46.07
		c104.09-68.88,172.94-188.42,172.94-324.34C1105.94,453.93,1037.09,334.39,933,265.51z M933,777.82
		c-26.9,30.6-60.18,55.25-97.71,71.77c-30.15,13.28-63.05,21.311-97.58,22.971c-4.45,0.22-8.93,0.33-13.44,0.33
		c-39.149,0-76.43-8.19-110.27-22.971c-33.99-14.84-64.51-36.33-89.99-62.88c-14.92-15.52-28.1-32.77-39.25-51.42
		c-25.88-43.28-40.78-94.13-40.78-148.53c0-4.27,0.09-8.52,0.28-12.74c2.61-60.77,23.83-116.62,58-161.75
		c6.76-8.92,14.02-17.43,21.75-25.47c25.48-26.54,56-48.04,89.99-62.88c33.84-14.78,71.12-22.97,110.27-22.97
		c4.511,0,8.99,0.11,13.44,0.33c34.53,1.66,67.43,9.69,97.58,22.97c37.53,16.52,70.81,41.17,97.71,71.77
		c44.49,50.59,71.55,117.44,71.55,190.74S977.49,727.23,933,777.82z"/>
	<path fill="#FFFFFF" d="M930.72,574.35c-4.7-68.13-41.45-127.24-94.979-161.75h-0.45v-0.29c-28.55-18.31-61.85-29.62-97.58-31.6
		c-3.729-0.21-7.49-0.31-11.27-0.31c-40.181,0-77.67,11.81-109.291,32.2c-1.06,0.68-2.11,1.37-3.15,2.06
		c-47.39,31.81-81.06,83.14-89.99,142.77c-0.84,5.57-1.45,11.21-1.84,16.92c-0.35,4.91-0.52,9.88-0.52,14.88
		c0,10.81,0.81,21.43,2.36,31.8c6.64,44.32,26.94,84.05,56.38,114.59c10.17,10.55,21.44,20.01,33.61,28.181
		c32.28,21.659,70.92,34.26,112.44,34.26c3.779,0,7.54-0.101,11.27-0.311c35.73-1.979,69.03-13.29,97.58-31.6
		c13.55-8.68,26.04-18.94,37.21-30.53c36.33-37.68,58.74-89.37,58.74-146.39C931.24,584.23,931.07,579.26,930.72,574.35z
		 M737.71,694.74c-3.85,0.43-7.75,0.64-11.71,0.64c-59.09,0-107-47.58-107-106.27c0-5.01,0.35-9.94,1.03-14.76
		c7.23-51.7,51.92-91.5,105.97-91.5c3.96,0,7.86,0.21,11.71,0.64c48.68,5.25,87.56,42.95,94.26,90.86
		c0.681,4.82,1.03,9.75,1.03,14.76C833,643.87,791.29,688.96,737.71,694.74z"/>
</g>
</svg>
