<?xml version="1.0" encoding="utf-8"?>
<!-- Generator: Adobe Illustrator 16.0.0, SVG Export Plug-In . SVG Version: 6.00 Build 0)  -->
<!DOCTYPE svg PUBLIC "-//W3C//DTD SVG 1.1//EN" "http://www.w3.org/Graphics/SVG/1.1/DTD/svg11.dtd">
<svg version="1.1" xmlns="http://www.w3.org/2000/svg" xmlns:xlink="http://www.w3.org/1999/xlink" x="0px" y="0px"
	 width="1417.32px" height="1417.32px" viewBox="0 0 1417.32 1417.32" enable-background="new 0 0 1417.32 1417.32"
	 xml:space="preserve">
<g id="Layer_2">
	<rect fill="#A71E25" width="1417.32" height="1417.32"/>
</g>
<g id="Layer_1">
	<g>
		<g>
			<path fill-rule="evenodd" clip-rule="evenodd" fill="#A61E25" d="M2.768,19.504c472.24,0,944.479,0,1417.019,0
				c0,460.925,0,921.979,0,1383.502c-472.139,0-944.578,0-1417.019,0C2.768,942.135,2.768,480.883,2.768,19.504z M615.243,876.35
				c0-6.435,0-11.352,0-16.269c0.001-31.824-0.643-63.669,0.366-95.463c0.339-10.673,3.525-21.811,7.864-31.653
				c5.328-12.089,16.841-16.923,29.738-15.863c13.193,1.082,22.431,8.551,25.688,21.595c1.876,7.507,2.81,15.428,2.88,23.176
				c0.301,33.667,0.585,67.35-0.123,101.004c-0.237,11.257,3.414,14.601,14.231,13.719c10.997-0.895,22.181-0.905,33.176-0.008
				c11.742,0.96,16.192-2.246,15.856-15.084c-0.882-33.646-1.196-67.384,0.493-100.973c0.583-11.548,5.415-24.578,12.462-33.731
				c12.03-15.634,33.935-13.625,43.767,3.46c5.41,9.402,8.669,21.248,9.035,32.124c1.149,34.094,0.745,68.253,0.301,102.377
				c-0.119,9.148,2.692,12.263,11.849,11.8c13.342-0.67,26.78,0.385,40.092-0.54c3.368-0.235,9.176-5.163,9.187-7.953
				c0.202-47.035,1.041-94.138-1.297-141.078c-1.159-23.238-12.549-43.535-36.193-53.183c-28.041-11.44-65.878-2.046-86.103,20.878
				c-2.853,3.23-5.782,6.396-10.385,11.476c-8.487-27.779-32.431-31.864-52.396-41.039c-4.02-1.846-10.789-1.303-14.745,0.906
				c-18.641,10.416-36.744,21.792-55.76,33.262c0-2.433-0.479-7.24,0.096-11.917c1.333-10.862-2.559-14.93-13.879-13.86
				c-11.427,1.081-23.073,0.776-34.559,0.06c-9.84-0.614-14.295,1.841-13.858,12.852c0.785,19.799,0.136,39.655,0.128,59.486
				c-0.018,39.206-0.04,78.41,0.03,117.616c0.009,5.777-1.511,12.819,7.979,12.825C578.563,876.355,595.963,876.35,615.243,876.35z
				 M1105.697,409.645c-7.428,43.845-13.671,85.417-21.748,126.629c-4.939,25.203-2.179,30.829,23.09,33.437
				c3.207,0.33,6.445,0.665,9.568,1.411c7.166,1.714,9.918-1.284,10.922-8.286c4.803-33.502,10.268-66.91,14.912-100.434
				c3.425-24.714,4.299-49.906,9.477-74.209c3.213-15.079-3.366-15.993-14.131-17.41c-41.098-5.401-82.183-10.938-123.198-16.936
				c-83.271-12.176-166.473-24.83-249.744-37.006c-46.768-6.839-93.646-12.919-140.404-19.813
				c-8.909-1.313-11.959,0.676-13.194,10.002c-5.318,40.204-11.713,80.265-17.439,120.417
				c-6.111,42.853-11.764,85.774-17.996,128.611c-1.008,6.929,0.45,11.483,7.584,11.354c11.726-0.21,23.554,9.478,35.087-0.197
				c0.811-0.678,0.599-2.622,0.791-3.987c8.598-61.354,16.556-122.807,26.006-184.029c6.151-39.85-2.504-33.905,37.189-28.506
				c36.079,4.909,71.947,11.354,107.967,16.72c55.647,8.286,111.339,16.277,167.025,24.295c22.392,3.225,44.783,6.499,67.241,9.2
				C1050.633,404.028,1076.635,406.539,1105.697,409.645z M329.871,876.341c0.793-1.319,1.586-2.639,2.38-3.957
				c-31.2-40.748-49.303-90.8-91.845-123.485c1.58-1.206,2.217-1.966,3.025-2.266c39.9-14.825,61.151-47.157,56.519-86.058
				c-4.525-38.017-27.966-60.522-72.61-64.139c-38.514-3.12-77.367-1.865-116.038-3.344c-11.09-0.424-14.149,2.893-14.091,13.922
				c0.461,85.795,0.297,171.593,0.387,257.392c0.004,3.517,0.607,7.036,0.973,10.997c20.99,0,41.023,0,62.65,0
				c0-5.964,0-10.943,0-15.923c-0.001-25.83,0.593-51.683-0.265-77.485c-0.406-12.208,4.314-14.936,15.366-14.258
				c15.863,0.977,25.154,10.763,32.523,22.754c15.01,24.422,29.034,49.452,44.112,73.831c3.042,4.917,8.772,11.191,13.583,11.479
				C287.585,877.058,308.75,876.341,329.871,876.341z M556.971,1012.657c0.949-7.077,1.802-12.027,2.249-17.012
				c2.628-29.234,2.479-28.664-25.875-34.422c-11.465-2.327-14.352,1.436-15.713,11.903c-2.772,21.315-6.632,42.496-10.458,63.66
				c-2.641,14.611-0.792,17.152,14.753,17.429c4.583,0.081,9.256-0.668,13.744-0.027c59.875,8.534,119.722,17.25,179.578,25.919
				c40.125,5.813,80.246,11.651,120.376,17.435c66.583,9.597,133.196,18.979,199.726,28.934c9.367,1.4,13.366-0.581,14.699-10.262
				c5.529-40.158,11.757-80.222,17.201-120.393c0.472-3.479-2.301-10.273-4.605-10.778c-11.971-2.62-24.279-3.698-37.62-5.467
				c-3.969,29.213-7.909,56.962-11.422,84.766c-1.183,9.362-3.775,13.555-14.939,11.679c-44.648-7.502-89.453-14.104-134.271-20.537
				c-21.32-3.063-42.856-4.591-64.193-7.54c-56.236-7.774-112.426-15.885-168.614-23.991
				C607.04,1020.407,582.542,1016.539,556.971,1012.657z M1078.325,706.143c0-8.883-0.457-13.771,0.092-18.545
				c1.24-10.778-2.632-14.99-13.928-14.073c-12.363,1.003-24.875,0.467-37.312,0.17c-7.381-0.173-11.04,2.252-11.021,10.235
				c0.145,60.835-0.084,121.674,0.482,182.504c0.03,3.322,5.872,9.089,9.423,9.432c12.33,1.192,24.907-0.278,37.27,0.735
				c11.719,0.965,15.26-3.379,15.065-14.741c-0.55-32.251-0.683-64.531,0.095-96.773c0.242-10.07,1.752-21.245,6.479-29.817
				c8.063-14.617,23.092-18.71,38.924-15.645c15.48,2.995,21.567,15.212,23.831,29.493c1.003,6.331,1.276,12.83,1.304,19.256
				c0.127,31.802,0.311,63.606-0.092,95.403c-0.119,9.375,2.644,13.387,12.561,12.838c12.866-0.708,25.808-0.497,38.701-0.116
				c7.673,0.225,10.833-2.617,10.71-10.395c-0.714-45.143-0.454-90.315-2.041-135.426c-0.92-26.141-12.507-48.157-38.379-57.016
				c-28.876-9.886-56.442-5.19-79.276,16.96C1087.448,694.275,1084.446,698.711,1078.325,706.143z M390.009,792.433
				c31.79,0,62.567,0,93.344,0c39.705,0,39.851-0.014,36.327-40.209c-6.518-74.355-72.246-96.406-127.821-76.039
				C346.423,692.837,328.566,730.418,328,776.53c-0.472,38.408,10.069,72.8,47.354,91.632
				c39.688,20.042,80.345,15.479,120.537,0.654c3.079-1.136,6.72-5.623,6.939-8.772c0.82-11.809,0.328-23.711,0.328-37.666
				c-5.515,1.333-9.736,1.4-12.885,3.269c-20.644,12.254-42.819,12.72-65.397,8.559C402.929,830.161,392.332,817.49,390.009,792.433
				z M548.724,373.875c0-11.919-0.734-21.61,0.194-31.137c1.06-10.889-3.472-13.054-13.443-12.984
				c-58.583,0.414-117.173,0.495-175.754-0.049c-11.23-0.103-13.906,3.358-13.821,14.185c0.508,65.039,0.285,130.086,0.301,195.128
				c0.008,30.647,0.021,30.01,30.114,30.902c12.292,0.365,14.387-4.161,14.29-15.112c-0.486-54.888,0.287-109.795-0.588-164.676
				c-0.223-13.96,4.328-16.771,17.193-16.542c41.965,0.76,83.953,0.284,125.932,0.284
				C537.675,373.875,542.208,373.875,548.724,373.875z M1312.896,876.333c1.231-2.206,2.055-2.992,2.057-3.785
				c0.207-63.547,0.471-127.099,0.087-190.646c-0.018-2.76-5.894-7.621-9.287-7.851c-13.756-0.933-27.617-0.157-41.422-0.576
				c-7.634-0.232-10.8,2.474-10.782,10.311c0.13,60.795-0.103,121.593,0.338,182.385c0.024,3.406,4.848,9.56,7.685,9.708
				C1278.909,876.791,1296.318,876.333,1312.896,876.333z M911.719,773.674c-0.043,0-0.088,0-0.131,0
				c0,29.502,0.523,59.017-0.257,88.499c-0.313,11.806,3.622,15.236,14.98,14.36c12.37-0.952,24.88-0.359,37.319-0.063
				c6.736,0.159,10.188-1.773,10.167-9.318c-0.167-61.309,0.065-122.617-0.5-183.92c-0.029-3.206-5.973-8.78-9.53-9.094
				c-12.81-1.13-25.802,0.024-38.674-0.659c-9.951-0.527-13.917,2.184-13.633,13.081
				C912.218,715.581,911.719,744.633,911.719,773.674z M390.394,1008.056c0-11.39,0.203-20.105-0.035-28.81
				c-1.06-38.761,8.109-30.98-34.121-32.059c-7.96-0.203-10.262,3.003-10.177,10.638c0.307,27.598,0.422,55.212-0.158,82.803
				c-0.203,9.672,3.855,11.575,12.346,11.37c18.852-0.46,37.722-0.151,56.584-0.154c15.958,0,31.916,0,48.695,0
				c0-15.192,0-28.68,0-43.788C438.98,1008.056,415.276,1008.056,390.394,1008.056z M1326.93,555.892
				c-0.136-23.048-19.267-41.974-42.385-41.928c-23.078,0.043-42.397,19.355-42.154,42.139
				c0.244,22.608,19.945,42.286,42.417,42.367C1307.051,598.548,1327.061,578.322,1326.93,555.892z M1000.841,557.563
				c-31.107-8.059-45.855-28.025-56.959-53.423c-5.582,30.059-26.98,43.578-52.771,53.791c28.849,7.731,42.752,28.901,53.128,54.05
				C951.247,582.604,971.131,567.706,1000.841,557.563z"/>
			<path fill-rule="evenodd" clip-rule="evenodd" fill="#FAF6F6" d="M615.243,876.35c-19.28,0-36.68,0.005-54.08,0
				c-9.49-0.006-7.969-7.048-7.979-12.825c-0.069-39.206-0.047-78.41-0.03-117.616c0.008-19.831,0.657-39.688-0.128-59.486
				c-0.437-11.011,4.019-13.465,13.858-12.852c11.486,0.716,23.132,1.021,34.559-0.06c11.32-1.07,15.212,2.998,13.879,13.86
				c-0.574,4.677-0.096,9.483-0.096,11.917c19.017-11.47,37.119-22.846,55.76-33.262c3.956-2.209,10.725-2.752,14.745-0.906
				c19.965,9.175,43.909,13.26,52.396,41.039c4.603-5.08,7.532-8.245,10.385-11.476c20.225-22.924,58.062-32.318,86.103-20.878
				c23.645,9.648,35.034,29.945,36.193,53.183c2.338,46.94,1.499,94.043,1.297,141.078c-0.011,2.79-5.818,7.718-9.187,7.953
				c-13.312,0.925-26.75-0.13-40.092,0.54c-9.156,0.463-11.968-2.651-11.849-11.8c0.444-34.124,0.849-68.283-0.301-102.377
				c-0.366-10.876-3.625-22.722-9.035-32.124c-9.832-17.085-31.736-19.094-43.767-3.46c-7.047,9.153-11.879,22.184-12.462,33.731
				c-1.689,33.589-1.375,67.327-0.493,100.973c0.336,12.838-4.114,16.044-15.856,15.084c-10.995-0.897-22.179-0.887-33.176,0.008
				c-10.817,0.882-14.468-2.462-14.231-13.719c0.708-33.654,0.424-67.337,0.123-101.004c-0.07-7.748-1.004-15.669-2.88-23.176
				c-3.258-13.044-12.495-20.513-25.688-21.595c-12.896-1.06-24.41,3.774-29.738,15.863c-4.339,9.843-7.525,20.98-7.864,31.653
				c-1.009,31.794-0.365,63.639-0.366,95.463C615.243,864.999,615.243,869.916,615.243,876.35z"/>
			<path fill-rule="evenodd" clip-rule="evenodd" fill="#FAF6F6" d="M1105.697,409.645c-29.063-3.106-55.064-5.617-80.993-8.737
				c-22.458-2.701-44.85-5.975-67.241-9.2c-55.687-8.018-111.378-16.009-167.025-24.295c-36.021-5.366-71.889-11.811-107.967-16.72
				c-39.694-5.398-31.038-11.343-37.189,28.506c-9.45,61.222-17.408,122.674-26.006,184.029c-0.192,1.365,0.02,3.309-0.791,3.987
				c-11.534,9.675-23.362-0.013-35.087,0.197c-7.134,0.13-8.593-4.425-7.584-11.354c6.232-42.837,11.885-85.758,17.996-128.611
				c5.726-40.152,12.121-80.213,17.439-120.417c1.234-9.326,4.285-11.316,13.194-10.002c46.758,6.894,93.636,12.974,140.404,19.813
				c83.271,12.176,166.474,24.83,249.744,37.006c41.016,5.999,82.101,11.535,123.198,16.936c10.765,1.417,17.344,2.331,14.131,17.41
				c-5.178,24.303-6.052,49.495-9.477,74.209c-4.645,33.524-10.109,66.932-14.912,100.434c-1.004,7.002-3.756,10-10.922,8.286
				c-3.123-0.746-6.361-1.081-9.568-1.411c-25.269-2.608-28.029-8.234-23.09-33.437
				C1092.026,495.062,1098.27,453.49,1105.697,409.645z"/>
			<path fill-rule="evenodd" clip-rule="evenodd" fill="#FAF6F6" d="M329.871,876.341c-21.121,0-42.286,0.717-63.333-0.54
				c-4.811-0.287-10.54-6.562-13.583-11.479c-15.078-24.379-29.102-49.409-44.112-73.831c-7.369-11.991-16.66-21.777-32.523-22.754
				c-11.051-0.678-15.771,2.05-15.366,14.258c0.858,25.803,0.264,51.655,0.265,77.485c0,4.979,0,9.959,0,15.923
				c-21.627,0-41.66,0-62.65,0c-0.366-3.961-0.969-7.48-0.973-10.997c-0.089-85.799,0.074-171.597-0.387-257.392
				c-0.058-11.029,3.001-14.346,14.091-13.922c38.671,1.479,77.523,0.224,116.038,3.344c44.644,3.617,68.084,26.123,72.61,64.139
				c4.632,38.901-16.619,71.232-56.519,86.058c-0.808,0.3-1.445,1.06-3.025,2.266c42.542,32.686,60.645,82.737,91.845,123.485
				C331.457,873.703,330.664,875.022,329.871,876.341z M161.226,679.813c-0.038,0-0.074,0-0.111,0
				c0,10.097-0.581,20.246,0.325,30.261c0.303,3.36,4.344,9.064,6.753,9.104c12.303,0.206,25.01,0.535,36.865-2.228
				c19.825-4.622,32.407-27.166,28.396-47.308c-4.45-22.337-28.292-34.608-64.782-28.077c-16.338,2.922-3.658,20.927-7.342,31.396
				C160.61,675.006,161.226,677.518,161.226,679.813z"/>
			<path fill-rule="evenodd" clip-rule="evenodd" fill="#FAF6F6" d="M556.971,1012.657c25.571,3.882,50.068,7.75,74.615,11.295
				c56.188,8.106,112.378,16.217,168.614,23.991c21.337,2.949,42.873,4.477,64.193,7.54c44.818,6.434,89.623,13.035,134.271,20.537
				c11.164,1.876,13.757-2.316,14.939-11.679c3.513-27.804,7.453-55.553,11.422-84.766c13.341,1.769,25.649,2.847,37.62,5.467
				c2.305,0.505,5.077,7.299,4.605,10.778c-5.444,40.171-11.672,80.234-17.201,120.393c-1.333,9.681-5.332,11.662-14.699,10.262
				c-66.529-9.954-133.143-19.337-199.726-28.934c-40.13-5.783-80.251-11.622-120.376-17.435
				c-59.856-8.669-119.704-17.385-179.578-25.919c-4.488-0.641-9.16,0.108-13.744,0.027c-15.545-0.276-17.395-2.817-14.753-17.429
				c3.825-21.164,7.686-42.345,10.458-63.66c1.361-10.468,4.249-14.23,15.713-11.903c28.354,5.758,28.502,5.188,25.875,34.422
				C558.773,1000.629,557.92,1005.58,556.971,1012.657z"/>
			<path fill-rule="evenodd" clip-rule="evenodd" fill="#FAF6F6" d="M1078.325,706.143c6.121-7.432,9.123-11.868,12.888-15.52
				c22.834-22.151,50.4-26.847,79.276-16.96c25.872,8.859,37.459,30.875,38.379,57.016c1.587,45.11,1.327,90.283,2.041,135.426
				c0.123,7.777-3.037,10.619-10.71,10.395c-12.894-0.381-25.835-0.592-38.701,0.116c-9.917,0.549-12.68-3.463-12.561-12.838
				c0.402-31.797,0.219-63.602,0.092-95.403c-0.027-6.426-0.301-12.925-1.304-19.256c-2.264-14.281-8.351-26.498-23.831-29.493
				c-15.832-3.065-30.861,1.027-38.924,15.645c-4.728,8.572-6.237,19.747-6.479,29.817c-0.777,32.242-0.645,64.522-0.095,96.773
				c0.194,11.362-3.347,15.706-15.065,14.741c-12.362-1.014-24.939,0.457-37.27-0.735c-3.551-0.343-9.393-6.109-9.423-9.432
				c-0.566-60.83-0.338-121.669-0.482-182.504c-0.019-7.983,3.641-10.408,11.021-10.235c12.437,0.297,24.948,0.833,37.312-0.17
				c11.296-0.917,15.168,3.295,13.928,14.073C1077.868,692.373,1078.325,697.26,1078.325,706.143z"/>
			<path fill-rule="evenodd" clip-rule="evenodd" fill="#FAF6F6" d="M390.009,792.433c2.323,25.057,12.92,37.728,34.867,41.771
				c22.578,4.161,44.753,3.695,65.397-8.559c3.149-1.868,7.371-1.936,12.885-3.269c0,13.955,0.492,25.857-0.328,37.666
				c-0.219,3.149-3.86,7.637-6.939,8.772c-40.192,14.824-80.85,19.388-120.537-0.654C338.068,849.33,327.528,814.938,328,776.53
				c0.566-46.111,18.423-83.692,63.859-100.345c55.575-20.367,121.304,1.684,127.821,76.039
				c3.524,40.195,3.378,40.209-36.327,40.209C452.576,792.433,421.798,792.433,390.009,792.433z M389.788,754.297
				c22.538,0,43.961,0.205,65.368-0.284c2.435-0.057,6.43-3.72,6.887-6.223c2.303-12.625-6.912-28.102-19.041-33.454
				C418.943,703.718,394.507,721.06,389.788,754.297z"/>
			<path fill-rule="evenodd" clip-rule="evenodd" fill="#FAF6F6" d="M548.724,373.875c-6.515,0-11.049,0-15.582,0
				c-41.979,0-83.967,0.476-125.932-0.284c-12.865-0.23-17.417,2.582-17.193,16.542c0.875,54.88,0.102,109.788,0.588,164.676
				c0.098,10.951-1.998,15.477-14.29,15.112c-30.093-0.892-30.105-0.254-30.114-30.902c-0.016-65.042,0.207-130.089-0.301-195.128
				c-0.085-10.827,2.591-14.287,13.821-14.185c58.581,0.543,117.171,0.462,175.754,0.049c9.971-0.07,14.503,2.095,13.443,12.984
				C547.989,352.264,548.724,361.956,548.724,373.875z"/>
			<path fill-rule="evenodd" clip-rule="evenodd" fill="#FAF6F6" d="M1312.896,876.333c-16.578,0-33.987,0.457-51.325-0.454
				c-2.837-0.148-7.66-6.302-7.685-9.708c-0.44-60.792-0.208-121.59-0.338-182.385c-0.018-7.837,3.148-10.543,10.782-10.311
				c13.805,0.419,27.666-0.357,41.422,0.576c3.394,0.23,9.27,5.09,9.287,7.851c0.384,63.547,0.12,127.099-0.087,190.646
				C1314.951,873.341,1314.128,874.127,1312.896,876.333z"/>
			<path fill-rule="evenodd" clip-rule="evenodd" fill="#FAF6F6" d="M911.719,773.674c0-29.041,0.499-58.094-0.258-87.114
				c-0.284-10.897,3.682-13.608,13.633-13.081c12.872,0.684,25.864-0.471,38.674,0.659c3.558,0.314,9.501,5.888,9.53,9.094
				c0.565,61.303,0.333,122.612,0.5,183.92c0.021,7.545-3.431,9.478-10.167,9.318c-12.439-0.297-24.949-0.89-37.319,0.063
				c-11.358,0.876-15.293-2.555-14.98-14.36c0.78-29.482,0.257-58.997,0.257-88.499
				C911.631,773.674,911.676,773.674,911.719,773.674z"/>
			<path fill-rule="evenodd" clip-rule="evenodd" fill="#FAF6F6" d="M390.394,1008.056c24.883,0,48.587,0,73.135,0
				c0,15.108,0,28.596,0,43.788c-16.78,0-32.737,0-48.695,0c-18.862,0.003-37.733-0.306-56.584,0.154
				c-8.491,0.205-12.549-1.698-12.346-11.37c0.58-27.591,0.465-55.205,0.158-82.803c-0.085-7.635,2.217-10.841,10.177-10.638
				c42.23,1.078,33.062-6.702,34.121,32.059C390.597,987.951,390.394,996.667,390.394,1008.056z"/>
			<path fill-rule="evenodd" clip-rule="evenodd" fill="#FAF6F6" d="M1326.93,555.892c0.131,22.43-19.879,42.656-42.122,42.578
				c-22.472-0.081-42.173-19.759-42.417-42.367c-0.243-22.784,19.076-42.096,42.154-42.139
				C1307.663,513.918,1326.794,532.844,1326.93,555.892z"/>
			<path fill-rule="evenodd" clip-rule="evenodd" fill="#FAF6F6" d="M1000.841,557.563c-29.71,10.143-49.594,25.041-56.603,54.418
				c-10.376-25.149-24.279-46.319-53.128-54.05c25.791-10.213,47.189-23.732,52.771-53.791
				C954.985,529.538,969.733,549.504,1000.841,557.563z"/>
			<path fill-rule="evenodd" clip-rule="evenodd" fill="#A61E25" d="M161.226,679.813c0-2.295-0.616-4.806,0.103-6.85
				c3.685-10.47-8.996-28.474,7.342-31.396c36.491-6.531,60.333,5.739,64.782,28.077c4.012,20.143-8.571,42.686-28.396,47.308
				c-11.855,2.763-24.563,2.434-36.865,2.228c-2.409-0.04-6.45-5.744-6.753-9.104c-0.906-10.016-0.325-20.164-0.325-30.261
				C161.152,679.813,161.188,679.813,161.226,679.813z"/>
			<path fill-rule="evenodd" clip-rule="evenodd" fill="#A61E25" d="M389.788,754.297c4.719-33.237,29.155-50.579,53.214-39.961
				c12.128,5.353,21.344,20.829,19.041,33.454c-0.457,2.503-4.452,6.166-6.887,6.223
				C433.75,754.502,412.326,754.297,389.788,754.297z"/>
		</g>
	</g>
</g>
</svg>
