<?xml version="1.0" encoding="utf-8"?>
<!DOCTYPE svg PUBLIC "-//W3C//DTD SVG 1.1//EN" "http://www.w3.org/Graphics/SVG/1.1/DTD/svg11.dtd">
<svg version="1.1" id="Layer_1" xmlns="http://www.w3.org/2000/svg" xmlns:xlink="http://www.w3.org/1999/xlink" x="0px" y="0px"
	 width="1417.32px" height="1417.32px" viewBox="0 0 1417.32 1417.32" enable-background="new 0 0 1417.32 1417.32"
	 xml:space="preserve">
<g>
	<path fill="#FEFEFE" d="M0,0c472.542,0,945.127,0,1417.75,0c0,472.4,0,944.838,0,1417.32c-472.542,0-945.126,0-1417.75,0
		C0,944.92,0,472.483,0,0z"/>
	<linearGradient id="SVGID_1_" gradientUnits="userSpaceOnUse" x1="641.749" y1="814.6709" x2="1096.8575" y2="1202.7633">
		<stop  offset="0.4335" style="stop-color:#A6A6A6"/>
		<stop  offset="1" style="stop-color:#CCCCCC"/>
	</linearGradient>
	<path fill="url(#SVGID_1_)" d="M1158.72,1182.44c0.07,18.63-11.05,36.179-19.649,44.91c-9.743,9.893-40.38,21.6-51.021,21.67
		c-111.63,0.737-223.27,0.479-334.909,0.5c-69.831,0.01-139.661,0.069-209.49,0.05c-5.96-0.01-11.91-0.5-17.86-0.76
		c20.65-16.15,41.3-32.301,61.96-48.45l-0.2-0.15c5.64-5.41,11.29-10.819,16.93-16.229l-0.4-0.221c2.05-1.01,4.1-2.029,6.15-3.05
		c3.46-3.42,6.92-6.83,10.38-10.24c3.01-3.02,6.03-6.029,9.04-9.05c3.42-3.46,6.83-6.92,10.25-10.38c0.99-2.01,1.98-4.03,2.97-6.05
		c0.92-0.94,1.85-1.87,2.77-2.811l0.27,0.32c4.7-4.729,9.4-9.46,14.09-14.189c0.64-0.771,1.28-1.54,1.92-2.301
		c1.03-2.01,2.04-4.01,3.07-6.01l0.1,0.37c2.68-2.88,5.36-5.76,8.04-8.64l-0.14,0.029c1.02-1.84,2.04-3.68,3.06-5.529l0.08,0.31
		c1.85-2.81,3.7-5.62,5.55-8.439l-0.28,0.05c0.95-0.98,1.9-1.95,2.85-2.931l0.16,0.29c1.85-2.819,3.7-5.63,5.55-8.449l-0.24,0.119
		c2.81-3.739,5.62-7.489,8.43-11.229l0.05,0.24c1.83-2.84,3.65-5.681,5.47-8.521l0.05,0.271c2.28-2.96,4.55-5.91,6.83-8.87
		c4.88-8.37,9.771-16.75,14.66-25.13c1.01-1.721,2.03-3.44,3.04-5.15l-0.13,0.17c0.96-1.899,1.92-3.8,2.88-5.7l-0.12,0.181
		c1.011-1.87,2.011-3.75,3.011-5.62l-0.131,0.17c0.971-1.9,1.931-3.79,2.9-5.69l-0.14,0.17c0.97-1.89,1.93-3.79,2.899-5.689
		l-0.14,0.18c0.96-1.899,1.93-3.8,2.89-5.7l-0.13,0.181c0.96-1.9,1.93-3.79,2.89-5.7l-0.149,0.16c1.05-2.09,2.11-4.181,3.17-6.271
		l-0.49-0.729c0.931-1.41,1.88-2.83,2.82-4.24l0.02-0.03c0.92-1.84,1.851-3.67,2.78-5.51l-0.12,0.17c0.851-1.93,1.7-3.87,2.561-5.8
		c1.979-4.11,4.21-8.11,5.92-12.32c35.33-87.22,48.739-177.95,43.319-271.68c0.091-1.84,0.181-3.69,0.271-5.54
		c6.5,0.05,13.01,0.09,19.51,0.14c87.72-0.06,175.44-0.5,263.16-0.03c40.16,0.22,70.69,32.32,70.71,72.62
		C1158.47,898.601,1158.23,1040.521,1158.72,1182.44z"/>
	<linearGradient id="SVGID_2_" gradientUnits="userSpaceOnUse" x1="578.6274" y1="1090.2051" x2="773.9333" y2="1256.7516">
		<stop  offset="0.4335" style="stop-color:#A6A6A6"/>
		<stop  offset="1" style="stop-color:#CCCCCC"/>
	</linearGradient>
	<path fill="url(#SVGID_2_)" d="M642.78,1145.08l0.15-0.21l-0.06,0.12C642.84,1145.021,642.81,1145.05,642.78,1145.08z"/>
	<path fill="#A2CF6F" d="M805.033,683.951c-0.09,1.849-0.18,3.697-0.269,5.543c-4.356,3.065-9.274,5.568-12.991,9.277
		c-84.405,84.191-168.672,168.521-253.007,252.787c-3.865,3.861-8.133,7.321-12.213,10.971c-1.017-1.896-2.034-3.786-3.053-5.679
		c-0.104-49.923-0.183-99.843-0.331-149.766c-0.068-23.295-0.279-46.59-0.413-69.884c-0.226-39.797-0.442-79.594-0.664-119.391
		c0.479-0.95,0.958-1.901,1.438-2.854c0.981-1.021,1.963-2.04,2.941-3.06c3.324-3.747,6.465-7.677,9.997-11.215
		c57.287-57.361,114.61-114.689,171.978-171.972c3.537-3.53,7.504-6.628,11.271-9.93c39.704,64.82,64.381,135.185,77.121,209.89
		C799.972,647.032,802.324,665.521,805.033,683.951z"/>
	<path fill="#23A565" d="M523.529,614.958c-0.479,0.951-0.958,1.902-1.429,2.851c-1.271,4.454-3.622,8.9-3.665,13.371
		C518.122,664.739,360.9,799.69,358.24,802.433c-36.689-36.251-73.421-72.458-109.972-108.846c-2.433-2.422-3.488-6.231-5.183-9.396
		c0.544-6.025,1.09-12.051,1.634-18.075c-0.143-0.717-0.063-1.42,0.233-2.103c3.927-56.865,18.568-111.249,40.478-163.508
		c11.666-27.827,26.728-54.23,40.256-81.277c4.326,3.153,9.156,5.8,12.903,9.531c56.231,56.014,112.306,112.18,168.472,168.256
		c3.537,3.53,7.524,6.604,11.305,9.893c0.69,0.103,1.388,0.159,2.087,0.17c0.16,0.736,0.317,1.471,0.477,2.207
		c0.644,1.042,1.287,2.083,1.932,3.125l0.594,0.051C523.302,613.298,523.327,614.131,523.529,614.958z"/>
	<path fill="#C9F595" d="M520.929,609.284c-0.159-0.736-0.316-1.472-0.473-2.212c0.284-2.064,0.563-4.123,0.842-6.182
		c0.001-124.982,0.002-249.97,0.004-374.953c-0.035-1.878-0.069-3.756-0.104-5.634c0.721-1.584,1.44-3.168,2.162-4.753
		c18.767,12.605,38.715,23.774,56.08,38.08c55.144,45.417,101.679,98.598,138.442,160.063c0.909,1.521,1.236,3.39,1.836,5.096
		c-3.769,3.298-7.734,6.396-11.271,9.927c-57.367,57.282-114.69,114.609-171.978,171.972c-3.532,3.538-6.673,7.468-9.996,11.219
		c-1.006,0.186-2.014,0.372-3.021,0.558c0,0-0.594-0.051-0.589-0.051C522.223,611.367,521.576,610.326,520.929,609.284z"/>
	<path fill="#68C195" d="M521.302,225.937c-0.001,124.983-0.002,249.97-0.007,374.956c-0.978,2.006-1.955,4.011-2.93,6.015
		c-3.779-3.287-7.768-6.362-11.305-9.893c-56.166-56.077-112.241-112.243-168.472-168.256c-3.747-3.731-8.577-6.378-12.903-9.531
		c30.245-54.298,69.29-101.688,115.369-143.027c22.16-19.884,46.635-37.205,70.28-55.396c3.367-2.592,7.989-3.552,12.029-5.26
		c-0.725,1.59-1.444,3.174-2.167,4.758C521.231,222.181,521.267,224.059,521.302,225.937z"/>
	<path fill="#16854C" d="M521.082,1246.989c-54.636-32.378-99.764-75.593-139.986-124.124
		c-36.794-44.395-67.483-92.676-89.199-146.344c-30.295-81.631,183.961-27.664,201.626-36.115
		c9.041,7.381,18.082,14.759,27.126,22.139c0.359,1.032,0.717,2.064,1.074,3.097c0.063,90.899,0.124,181.8,0.187,272.698
		c0.556,1.902,1.113,3.805,1.668,5.707C522.747,1245.027,521.914,1246.008,521.082,1246.989z"/>
	<path fill="#1B8750" d="M493.521,940.406c-16.072,7.688-188.025,32.277-201.625,36.116
		c-25.127-53.64-40.928-110.181-46.219-168.891c-3.685-40.893-1.922-82.278-2.592-123.441c1.695,3.163,2.75,6.974,5.183,9.396
		c36.551,36.388,73.282,72.595,109.972,108.846l0.034,0.05c0.904,0.904,1.808,1.808,2.712,2.713l0.047,0.046
		c0.904,0.905,1.808,1.809,2.712,2.714l0.047,0.046c0.904,0.905,1.808,1.808,2.712,2.713l0.047,0.046
		c0.904,0.905,1.808,1.809,2.712,2.714l0.047,0.045c0.904,0.906,1.808,1.81,2.712,2.715l0.047,0.046
		c0.904,0.905,1.808,1.808,2.712,2.714l0.047,0.046c0.904,0.905,1.808,1.811,2.712,2.713l0.047,0.046
		c0.904,0.905,1.808,1.812,2.712,2.714l0.047,0.045c0.904,0.906,1.808,1.813,2.712,2.715l0.047,0.046
		c0.904,0.904,1.808,1.811,2.712,2.713l0.047,0.046c0.904,0.906,1.808,1.812,2.712,2.714l0.047,0.046
		c0.904,0.905,1.808,1.812,2.712,2.714l0.047,0.045c0.904,0.906,1.808,1.813,2.712,2.715l0.047,0.046
		c0.904,0.904,1.808,1.811,2.712,2.713l0.047,0.046c0.903,0.905,1.808,1.812,2.712,2.714l0.047,0.046
		c0.903,0.905,1.808,1.812,2.712,2.713l0.047,0.046c0.904,0.905,1.809,1.813,2.712,2.714l0.047,0.047
		c0.904,0.904,1.809,1.811,2.712,2.713l0.047,0.046c0.904,0.905,1.809,1.812,2.713,2.714l0.047,0.046
		c0.903,0.905,1.808,1.812,2.712,2.713l0.047,0.046c0.904,0.905,1.808,1.812,2.712,2.715l0.047,0.046
		c0.904,0.904,1.809,1.811,2.712,2.713l0.047,0.046c0.904,0.905,1.809,1.812,2.712,2.714l0.048,0.046
		c0.903,0.905,1.808,1.809,2.712,2.713l0.047,0.046c0.904,0.905,1.808,1.81,2.712,2.714l0.047,0.047
		c0.905,0.901,1.809,1.805,2.714,2.705l0.053,0.051c0.901,0.902,1.805,1.809,2.706,2.711l0.053,0.052
		c0.902,0.902,1.804,1.805,2.707,2.708l0.052,0.051c0.902,0.902,1.804,1.807,2.707,2.708l0.051,0.053
		c0.903,0.901,1.806,1.805,2.708,2.708l0.051,0.051c0.903,0.903,1.807,1.806,2.708,2.708l0.051,0.052
		c0.903,0.902,1.807,1.805,2.709,2.708l0.051,0.051c0.902,0.902,1.806,1.807,2.708,2.708l0.051,0.053
		c0.903,0.901,1.806,1.805,2.708,2.708l0.051,0.051c0.903,0.901,1.807,1.806,2.708,2.708l0.051,0.052
		c0.903,0.902,1.807,1.805,2.708,2.708l0.054,0.051c0.902,0.902,1.805,1.807,2.708,2.705l0.051,0.056
		c0.902,0.898,1.805,1.8,2.708,2.696C473.229,918.316,483.376,929.361,493.521,940.406z"/>
	<path fill="#75A24B" d="M521.082,1246.989c0.833-0.98,1.665-1.962,2.499-2.942c0.09-0.973,0.179-1.945,0.267-2.918
		c13.024-8.868,25.905-17.957,39.127-26.521c7.984-5.171,16.498-9.522,24.773-14.244c-20.653,16.15-41.307,32.301-61.961,48.448
		C524.216,1248.204,522.649,1247.598,521.082,1246.989z"/>
	<path fill="#1B8750" d="M244.953,664.013c-0.298,0.683-0.376,1.386-0.233,2.103C244.076,665.372,244.154,664.674,244.953,664.013z"
		/>
	<path fill="#82B64A" d="M587.747,1200.364c-8.275,4.722-16.789,9.073-24.773,14.244c-13.222,8.563-26.103,17.651-39.127,26.521
		c-0.646-0.93-1.292-1.859-1.937-2.789c-0.063-90.898-0.124-181.799-0.193-272.701c0.783-0.161,1.575-0.291,2.373-0.391
		c0.822-0.908,1.645-1.813,2.464-2.719c4.081-3.648,8.349-7.108,12.213-10.97c84.335-84.267,168.602-168.597,253.007-252.788
		c3.717-3.708,8.635-6.211,12.991-9.277c5.415,93.726-7.991,184.453-43.323,271.672c-1.707,4.214-3.938,8.218-5.922,12.319
		c-0.854,1.938-1.709,3.875-2.563,5.81l0.12-0.178c-0.961,1.898-1.92,3.799-2.881,5.699c0,0,0.101-0.185,0.101-0.182
		c-0.945,1.423-1.894,2.847-2.841,4.269c0,0,0.489,0.723,0.483,0.729c-1.056,2.094-2.107,4.184-3.159,6.271
		c0,0,0.153-0.159,0.151-0.159c-0.966,1.9-1.931,3.797-2.896,5.694c0,0,0.138-0.177,0.136-0.177c-0.966,1.9-1.931,3.797-2.896,5.694
		c0,0,0.138-0.176,0.137-0.176c-0.966,1.898-1.931,3.797-2.896,5.693c0,0,0.136-0.176,0.134-0.176
		c-0.968,1.899-1.931,3.797-2.896,5.693c0,0,0.128-0.176,0.127-0.176c-1.001,1.877-2.002,3.752-3.003,5.627l0.121-0.181
		c-0.961,1.899-1.92,3.799-2.881,5.698c0,0,0.125-0.172,0.124-0.172c-1.014,1.719-2.026,3.436-3.038,5.152
		c-4.888,8.377-9.776,16.755-14.66,25.132c-2.271,2.956-4.55,5.911-6.825,8.868c0,0-0.05-0.272-0.054-0.274
		c-1.826,2.843-3.647,5.683-5.468,8.524c0,0-0.051-0.241-0.056-0.241c-2.812,3.739-5.619,7.484-8.427,11.228
		c0,0,0.238-0.113,0.233-0.115c-1.854,2.813-3.701,5.63-5.548,8.444c0,0-0.152-0.283-0.155-0.283
		c-0.953,0.977-1.902,1.951-2.854,2.928c0,0,0.283-0.05,0.278-0.052c-1.854,2.813-3.701,5.629-5.548,8.444
		c0,0-0.074-0.315-0.078-0.315c-1.021,1.847-2.042,3.689-3.063,5.535c0,0,0.147-0.029,0.146-0.029
		c-2.684,2.878-5.365,5.756-8.047,8.634c0,0-0.101-0.369-0.104-0.366c-1.021,2.002-2.04,4.001-3.059,6.004
		c-0.641,0.769-1.281,1.535-1.925,2.305c-4.698,4.73-9.396,9.463-14.09,14.191c0,0-0.271-0.318-0.272-0.318
		c-0.955,0.966-1.908,1.931-2.86,2.893c0,0,0.152-0.205,0.149-0.205c-1.012,2.059-2.021,4.115-3.03,6.174
		c-3.416,3.46-6.83,6.917-10.248,10.377c-3.017,3.016-6.028,6.03-9.043,9.045c-3.458,3.414-6.917,6.828-10.381,10.245
		c-2.052,1.02-4.1,2.034-6.146,3.053c0,0,0.402,0.212,0.396,0.205c-5.646,5.408-11.285,10.824-16.925,16.24L587.747,1200.364z"/>
	<path fill="#75A24B" d="M587.55,1200.21c5.641-5.416,11.278-10.832,16.925-16.24C598.836,1189.386,593.194,1194.8,587.55,1200.21z"
		/>
	<path fill="#75A24B" d="M645.91,1142.503c4.695-4.729,9.392-9.461,14.09-14.192C655.306,1133.042,650.608,1137.774,645.91,1142.503
		z"/>
	<path fill="#75A24B" d="M689.72,1087.18c2.809-3.741,5.616-7.487,8.427-11.228C695.341,1079.695,692.53,1083.438,689.72,1087.18z"
		/>
	<path fill="#75A24B" d="M665.086,1120.37c2.683-2.878,5.363-5.756,8.047-8.634C670.452,1114.614,667.77,1117.492,665.086,1120.37z"
		/>
	<path fill="#75A24B" d="M620.606,1170.467c3.014-3.015,6.026-6.029,9.043-9.045
		C626.637,1164.438,623.622,1167.453,620.606,1170.467z"/>
	<path fill="#75A24B" d="M703.724,1067.944c2.275-2.956,4.554-5.912,6.825-8.868
		C708.271,1062.029,705.998,1064.988,703.724,1067.944z"/>
	<path fill="#75A24B" d="M698.202,1076.195c1.82-2.844,3.642-5.684,5.468-8.525C701.85,1070.512,700.025,1073.355,698.202,1076.195z
		"/>
	<path fill="#75A24B" d="M684.405,1095.509c1.847-2.814,3.693-5.632,5.548-8.443
		C688.107,1089.883,686.256,1092.697,684.405,1095.509z"/>
	<path fill="#75A24B" d="M676.127,1106.546c1.847-2.814,3.694-5.632,5.548-8.444C679.829,1100.92,677.979,1103.734,676.127,1106.546
		z"/>
	<path fill="#75A24B" d="M742.038,1001.439c0.965-1.897,1.93-3.795,2.896-5.694C743.97,997.645,743.004,999.542,742.038,1001.439z"
		/>
	<path fill="#75A24B" d="M725.209,1033.944c1.012-1.718,2.025-3.435,3.038-5.152
		C727.235,1030.507,726.222,1032.224,725.209,1033.944z"/>
	<path fill="#75A24B" d="M752.958,979.294c0.853-1.935,1.707-3.872,2.562-5.81C754.665,975.419,753.811,977.357,752.958,979.294z"/>
	<path fill="#75A24B" d="M750.197,984.816c0.961-1.9,1.92-3.801,2.881-5.699C752.118,981.016,751.158,982.916,750.197,984.816z"/>
	<path fill="#75A24B" d="M744.781,995.904c1.052-2.088,2.104-4.178,3.16-6.271C746.891,991.719,745.836,993.81,744.781,995.904z"/>
	<path fill="#75A24B" d="M739.278,1006.958c0.965-1.897,1.93-3.794,2.896-5.694C741.211,1003.164,740.245,1005.06,739.278,1006.958z
		"/>
	<path fill="#75A24B" d="M736.52,1012.476c0.966-1.896,1.931-3.795,2.896-5.693C738.451,1008.681,737.485,1010.579,736.52,1012.476z
		"/>
	<path fill="#75A24B" d="M733.759,1017.994c0.965-1.896,1.929-3.794,2.896-5.693
		C735.689,1014.198,734.725,1016.094,733.759,1017.994z"/>
	<path fill="#75A24B" d="M730.883,1023.445c1.001-1.875,2.002-3.75,3.003-5.626C732.886,1019.695,731.885,1021.57,730.883,1023.445z
		"/>
	<path fill="#75A24B" d="M728.123,1028.963c0.961-1.898,1.92-3.799,2.881-5.698C730.044,1025.165,729.084,1027.064,728.123,1028.963
		z"/>
	<path fill="#75A24B" d="M672.986,1111.766c1.02-1.846,2.04-3.688,3.063-5.535C675.03,1108.077,674.009,1109.92,672.986,1111.766z"
		/>
	<path fill="#75A24B" d="M661.925,1126.007c1.02-2.003,2.037-4.002,3.06-6.004C663.965,1122.002,662.945,1124.004,661.925,1126.007z
		"/>
	<path fill="#75A24B" d="M639.896,1151.045c1.01-2.059,2.019-4.115,3.03-6.174C641.919,1146.93,640.907,1148.987,639.896,1151.045z"
		/>
	<path fill="#75A24B" d="M604.078,1183.765c2.048-1.019,4.096-2.034,6.146-3.053
		C608.179,1181.729,606.128,1182.747,604.078,1183.765z"/>
	<path fill="#75A24B" d="M747.457,988.903c0.947-1.422,1.895-2.846,2.841-4.269C749.352,986.055,748.404,987.479,747.457,988.903z"
		/>
	<path fill="#75A24B" d="M681.396,1098.153c0.95-0.977,1.9-1.951,2.854-2.928C683.3,1096.202,682.349,1097.177,681.396,1098.153z"/>
	<path fill="#75A24B" d="M642.777,1145.077c0.953-0.962,1.904-1.927,2.859-2.892C644.688,1143.15,643.731,1144.115,642.777,1145.077
		z"/>
	<path fill="#1DA362" d="M493.521,940.406c-10.146-11.045-20.293-22.09-30.438-33.133c-0.903-0.899-1.807-1.801-2.709-2.699
		c0,0-0.051-0.055-0.051-0.052c-0.903-0.902-1.806-1.807-2.708-2.708c0,0-0.053-0.052-0.051-0.052
		c-0.903-0.902-1.806-1.806-2.709-2.708l-0.052-0.052c-0.9-0.902-1.805-1.806-2.708-2.708l-0.051-0.051
		c-0.901-0.903-1.805-1.807-2.708-2.708l-0.051-0.052c-0.902-0.902-1.806-1.807-2.708-2.708l-0.051-0.052
		c-0.901-0.902-1.806-1.806-2.708-2.708l-0.052-0.052c-0.902-0.902-1.806-1.805-2.708-2.708l-0.051-0.051
		c-0.9-0.903-1.806-1.807-2.708-2.708l-0.051-0.052c-0.901-0.902-1.804-1.807-2.707-2.708l-0.052-0.052
		c-0.901-0.902-1.804-1.806-2.707-2.708c0,0-0.052-0.052-0.051-0.052c-0.902-0.902-1.806-1.805-2.707-2.711l-0.054-0.051
		c-0.904-0.9-1.809-1.804-2.714-2.705l-0.047-0.046c-0.904-0.903-1.808-1.81-2.712-2.714l-0.047-0.047
		c-0.904-0.901-1.809-1.808-2.712-2.713l-0.047-0.046c-0.904-0.901-1.809-1.809-2.712-2.714l-0.048-0.046
		c-0.903-0.902-1.808-1.808-2.712-2.713l-0.047-0.046c-0.904-0.903-1.808-1.81-2.712-2.714l-0.047-0.047
		c-0.904-0.901-1.808-1.808-2.712-2.713l-0.047-0.046c-0.904-0.901-1.809-1.809-2.712-2.714l-0.048-0.046
		c-0.903-0.902-1.808-1.808-2.712-2.713l-0.047-0.046c-0.903-0.902-1.808-1.81-2.712-2.714l-0.047-0.047
		c-0.904-0.901-1.808-1.808-2.712-2.713l-0.047-0.046c-0.904-0.901-1.808-1.809-2.712-2.714l-0.047-0.046
		c-0.904-0.902-1.809-1.808-2.712-2.713l-0.047-0.046c-0.904-0.902-1.808-1.809-2.712-2.714l-0.047-0.045
		c-0.904-0.903-1.808-1.81-2.712-2.715l-0.047-0.046c-0.904-0.901-1.808-1.808-2.712-2.714l-0.047-0.046
		c-0.904-0.902-1.808-1.808-2.712-2.713l-0.047-0.046c-0.904-0.902-1.808-1.809-2.712-2.714l-0.047-0.045
		c-0.904-0.903-1.808-1.81-2.712-2.715l-0.047-0.046c-0.904-0.901-1.808-1.808-2.712-2.713l-0.047-0.046
		c-0.904-0.903-1.808-1.809-2.712-2.714l-0.047-0.046c-0.904-0.902-1.808-1.809-2.712-2.714l-0.047-0.045
		c-0.904-0.903-1.808-1.81-2.712-2.715l-0.047-0.046c-0.904-0.901-1.808-1.808-2.712-2.713l-0.047-0.046
		c-0.904-0.903-1.808-1.809-2.712-2.714l-0.047-0.046c-0.904-0.902-1.808-1.809-2.712-2.713l-0.034-0.049
		c2.66-2.743,162.589-180.171,163.861-184.624c0.213,39.799,0.43,79.596,0.655,119.393c0.134,23.294,0.345,46.589,0.413,69.884
		c0.148,49.923,0.227,99.844,0.334,149.767c-0.247,1.752-0.496,3.5-0.745,5.249c-0.702,0.147-1.407,0.297-2.112,0.443
		C511.604,955.165,502.564,947.787,493.521,940.406z"/>
	<path fill="#ABD173" d="M522.759,962.1c0.249-1.749,0.499-3.497,0.745-5.249c1.016,1.893,2.033,3.783,3.05,5.679
		c-0.82,0.904-1.643,1.811-2.467,2.719C523.644,964.2,523.202,963.148,522.759,962.1z"/>
	<path fill="#ABD173" d="M523.454,612.46c1.006-0.186,2.014-0.372,3.021-0.558c-0.98,1.016-1.962,2.033-2.943,3.056
		C523.327,614.131,523.302,613.298,523.454,612.46z"/>
	<path fill="#5EBA91" d="M518.365,606.907c0.976-2.004,1.952-4.009,2.93-6.015c-0.276,2.057-0.555,4.115-0.839,6.18
		C519.753,607.066,519.057,607.009,518.365,606.907z"/>
	<path fill="#68C195" d="M520.929,609.284c0.646,1.042,1.293,2.083,1.937,3.125C522.216,611.367,521.572,610.326,520.929,609.284z"
		/>
	<path fill="#5EBA91" d="M521.302,225.937c-0.035-1.878-0.07-3.756-0.104-5.634C521.232,222.181,521.267,224.059,521.302,225.937z"
		/>
	<path fill="#57AC66" d="M521.91,1238.339c0.645,0.931,1.291,1.859,1.937,2.789c-0.087,0.973-0.176,1.945-0.267,2.918
		C523.023,1242.145,522.466,1240.242,521.91,1238.339z"/>
	<path fill="#57AC66" d="M522.759,962.1c0.443,1.049,0.885,2.101,1.328,3.147c-0.794,0.1-1.587,0.229-2.37,0.391
		c-0.352-1.028-0.708-2.062-1.067-3.094C521.351,962.396,522.056,962.249,522.759,962.1z"/>
	<path fill="#23A565" d="M416.219,860.425c0.904,0.905,1.809,1.812,2.712,2.713C418.027,862.236,417.123,861.331,416.219,860.425z"
		/>
	<path fill="#23A565" d="M418.979,863.184c0.903,0.905,1.808,1.813,2.712,2.715C420.786,864.996,419.882,864.089,418.979,863.184z"
		/>
	<path fill="#23A565" d="M424.496,868.703c0.904,0.905,1.808,1.811,2.712,2.714C426.304,870.511,425.4,869.608,424.496,868.703z"/>
	<path fill="#23A565" d="M438.298,882.5c0.903,0.902,1.808,1.805,2.708,2.708C440.104,884.304,439.201,883.402,438.298,882.5z"/>
	<path fill="#23A565" d="M441.057,885.258c0.903,0.903,1.807,1.807,2.708,2.708C442.863,887.064,441.96,886.162,441.057,885.258z"/>
	<path fill="#23A565" d="M443.816,888.018c0.902,0.902,1.807,1.806,2.708,2.708C445.622,889.823,444.719,888.92,443.816,888.018z"/>
	<path fill="#23A565" d="M446.576,890.777c0.902,0.901,1.806,1.806,2.708,2.708C448.381,892.583,447.479,891.679,446.576,890.777z"
		/>
	<path fill="#23A565" d="M449.335,893.537c0.903,0.902,1.807,1.805,2.708,2.708C451.141,895.341,450.238,894.439,449.335,893.537z"
		/>
	<path fill="#23A565" d="M452.094,896.295c0.903,0.902,1.808,1.806,2.708,2.708C453.9,898.101,452.997,897.198,452.094,896.295z"/>
	<path fill="#23A565" d="M454.854,899.055c0.904,0.902,1.808,1.806,2.709,2.708C456.659,900.86,455.756,899.958,454.854,899.055z"/>
	<path fill="#23A565" d="M369.311,813.517c0.904,0.906,1.808,1.813,2.712,2.715C371.119,815.326,370.215,814.423,369.311,813.517z"
		/>
	<path fill="#23A565" d="M460.374,904.574c0.903,0.898,1.807,1.8,2.709,2.699C462.179,906.374,461.276,905.473,460.374,904.574z"/>
	<path fill="#23A565" d="M435.54,879.74c0.903,0.901,1.806,1.806,2.707,2.708C437.344,881.545,436.443,880.642,435.54,879.74z"/>
	<path fill="#23A565" d="M358.274,802.481c0.904,0.904,1.808,1.811,2.712,2.713C360.082,804.289,359.178,803.386,358.274,802.481z"
		/>
	<path fill="#23A565" d="M457.614,901.814c0.902,0.901,1.805,1.806,2.708,2.708C459.419,903.62,458.517,902.716,457.614,901.814z"/>
	<path fill="#23A565" d="M361.033,805.24c0.904,0.904,1.808,1.811,2.712,2.714C362.841,807.048,361.938,806.145,361.033,805.24z"/>
	<path fill="#23A565" d="M363.792,808c0.904,0.905,1.808,1.811,2.712,2.713C365.601,809.807,364.697,808.905,363.792,808z"/>
	<path fill="#23A565" d="M366.552,810.758c0.904,0.905,1.808,1.812,2.712,2.714C368.36,812.566,367.456,811.664,366.552,810.758z"/>
	<path fill="#23A565" d="M372.07,816.277c0.904,0.904,1.808,1.811,2.712,2.714C373.878,818.084,372.975,817.182,372.07,816.277z"/>
	<path fill="#23A565" d="M374.83,819.037c0.904,0.905,1.808,1.811,2.712,2.713C376.638,820.847,375.733,819.942,374.83,819.037z"/>
	<path fill="#23A565" d="M432.781,876.981c0.902,0.901,1.806,1.805,2.707,2.708C434.585,878.786,433.684,877.883,432.781,876.981z"
		/>
	<path fill="#23A565" d="M377.589,821.795c0.904,0.905,1.808,1.811,2.712,2.714C379.397,823.606,378.493,822.701,377.589,821.795z"
		/>
	<path fill="#23A565" d="M380.348,824.554c0.904,0.906,1.808,1.813,2.712,2.714C382.156,826.366,381.252,825.46,380.348,824.554z"/>
	<path fill="#23A565" d="M383.107,827.314c0.904,0.904,1.808,1.811,2.712,2.713C384.916,829.125,384.011,828.219,383.107,827.314z"
		/>
	<path fill="#23A565" d="M385.867,830.073c0.904,0.905,1.808,1.812,2.712,2.714C387.675,831.884,386.771,830.979,385.867,830.073z"
		/>
	<path fill="#23A565" d="M388.626,832.833c0.904,0.905,1.808,1.811,2.712,2.714C390.434,834.643,389.53,833.738,388.626,832.833z"/>
	<path fill="#23A565" d="M391.385,835.591c0.904,0.906,1.808,1.813,2.712,2.714C393.193,837.403,392.289,836.498,391.385,835.591z"
		/>
	<path fill="#23A565" d="M394.145,838.351c0.904,0.905,1.808,1.812,2.712,2.714C395.953,840.162,395.048,839.256,394.145,838.351z"
		/>
	<path fill="#23A565" d="M396.904,841.11c0.903,0.904,1.808,1.812,2.712,2.714C398.712,842.921,397.808,842.015,396.904,841.11z"/>
	<path fill="#23A565" d="M407.941,852.146c0.903,0.905,1.808,1.813,2.712,2.715C409.749,853.958,408.845,853.052,407.941,852.146z"
		/>
	<path fill="#23A565" d="M421.737,865.944c0.903,0.904,1.808,1.811,2.712,2.713C423.545,867.751,422.641,866.849,421.737,865.944z"
		/>
	<path fill="#23A565" d="M399.663,843.87c0.904,0.905,1.808,1.811,2.712,2.713C401.471,845.68,400.567,844.775,399.663,843.87z"/>
	<path fill="#23A565" d="M402.422,846.628c0.904,0.905,1.809,1.813,2.712,2.714C404.23,848.44,403.326,847.534,402.422,846.628z"/>
	<path fill="#23A565" d="M405.182,849.388c0.904,0.905,1.809,1.812,2.713,2.713C406.99,851.199,406.085,850.293,405.182,849.388z"/>
	<path fill="#23A565" d="M430.023,874.218c0.9,0.906,1.804,1.81,2.707,2.711C431.827,876.027,430.924,875.122,430.023,874.218z"/>
	<path display="none" fill="#23A565" d="M427.256,871.462c0.905,0.902,1.81,1.805,2.714,2.705
		C429.065,873.267,428.161,872.365,427.256,871.462z"/>
	<path fill="#23A565" d="M410.7,854.907c0.903,0.905,1.808,1.811,2.712,2.713C412.508,856.717,411.604,855.813,410.7,854.907z"/>
	<path fill="#23A565" d="M413.459,857.666c0.904,0.905,1.808,1.811,2.712,2.714C415.268,859.476,414.363,858.571,413.459,857.666z"
		/>
</g>
</svg>
