<?xml version="1.0" encoding="utf-8"?>
<!-- Generator: Adobe Illustrator 16.0.0, SVG Export Plug-In . SVG Version: 6.00 Build 0)  -->
<!DOCTYPE svg PUBLIC "-//W3C//DTD SVG 1.1//EN" "http://www.w3.org/Graphics/SVG/1.1/DTD/svg11.dtd">
<svg version="1.1" id="Layer_1" xmlns="http://www.w3.org/2000/svg" xmlns:xlink="http://www.w3.org/1999/xlink" x="0px" y="0px"
	 width="1417.32px" height="1417.32px" viewBox="0 0 1417.32 1417.32" enable-background="new 0 0 1417.32 1417.32"
	 xml:space="preserve">
<g>
	<path fill="#FFFFFF" d="M2.768,1417.32c0-472.204,0-944.507,0-1417.32c472.11,0,944.22,0,1416.826,0c0,471.931,0,944.372,0,1417.32
		C947.979,1417.32,475.869,1417.32,2.768,1417.32z M712.695,1258.981c289.201,0.106,524.238-239.136,524.699-534.089
		c0.47-298.941-232.889-540.534-522.575-541.019c-290.373-0.485-526.542,240.543-526.589,537.429
		C188.184,1018.259,422.886,1258.877,712.695,1258.981z"/>
	<path d="M712.695,1258.981c-289.81-0.105-524.512-240.723-524.465-537.679c0.047-296.886,236.216-537.915,526.589-537.429
		c289.688,0.485,523.045,242.077,522.575,541.019C1236.936,1019.846,1001.896,1259.088,712.695,1258.981z M994.945,723.492
		c1.212-158.704-123.771-289.31-278.115-290.625c-156.477-1.333-284.278,125.894-285.612,284.329
		c-1.361,161.867,122.638,291.952,279.616,293.341C867.453,1011.921,993.716,884.354,994.945,723.492z M478.31,924.253
		c-21.201,17.259-44.201,35.978-68.047,55.39c34.391,41.642,74.198,74.568,121.375,99.63c13.558-28.597,26.333-55.546,37.814-79.769
		C538.399,973.867,508.838,949.459,478.31,924.253z M550.74,1089.136c48.527,22.736,98.095,34.06,150.876,35.259
		c0-30.993,0-60.87,0-87.76c-38.268-9.299-75.041-18.235-112.83-27.419C576.973,1034.032,564.288,1060.68,550.74,1089.136z
		 M874.434,354.085c-49.179-22.3-98.514-34.475-151.086-33.909c0,31.426,0,60.977,0,87.793c38.208,8.8,75.146,17.311,113.062,26.045
		C848.268,409.084,860.957,382.409,874.434,354.085z M331.245,819.752c13.891,53.392,35.054,100.392,67.303,143.466
		c23.827-19.713,46.593-38.551,66.953-55.396c-16.973-36.563-33.106-71.313-49.976-107.651
		C389.738,806.165,361.18,812.797,331.245,819.752z M958.574,533.345c17.461,36.559,33.947,71.075,50.962,106.698
		c26.347-6.14,54.917-12.796,84.16-19.61c-13.007-52.844-35.246-99.294-67.076-142.421
		C1002.8,497.38,979.818,516.072,958.574,533.345z M1013.903,461.449c-34.313-41.117-73.608-73.551-120.354-98.529
		c-13.427,28.319-26.354,55.586-37.941,80.019c30.802,25.366,59.725,49.182,90.047,74.153
		C966.729,499.91,989.995,480.943,1013.903,461.449z M1098.883,641.301c-29.89,6.964-57.969,13.507-84.634,19.721
		c0,40.347,0,79.196,0,119.232c26.903,6.253,54.984,12.777,84.276,19.582C1108.596,746.819,1109.087,695.163,1098.883,641.301z
		 M836.221,1010.209c-38.463,8.875-75.41,17.398-112.434,25.941c0,28.27,0,58.154,0,88.377
		c52.304-1.656,101.381-12.208,149.451-34.342C860.313,1062.26,847.773,1035.167,836.221,1010.209z M1014.893,980.766
		c-23.641-19.519-46.384-38.3-66.981-55.31c-31.036,25.506-60.646,49.837-91.406,75.114c11.629,24.962,24.36,52.284,37.256,79.959
		C940.722,1054.27,980.386,1022.043,1014.893,980.766z M467.609,533.351c-20.811-17.18-43.645-36.035-67.084-55.387
		c-32.886,42.98-54.611,89.986-67.941,142.57c29.888,6.904,58.399,13.489,84.006,19.403
		C433.854,603.867,450.183,569.754,467.609,533.351z M412.313,659.682c-26.468-6.1-54.924-12.654-84.171-19.393
		c-10.017,53.652-11.307,105.397-0.875,158.573c29.689-6.906,58.189-13.535,85.048-19.785
		C412.313,739.153,412.313,700.754,412.313,659.682z M589.95,433.234c37.864-8.867,74.354-17.413,111.688-26.155
		c0-27.524,0-57.019,0-87.685c-52.158,0.488-100.754,12.376-148.787,33.713C565.879,381.241,578.426,408.342,589.95,433.234z
		 M1094.661,820.679c-29.921-6.879-58.413-13.433-83.816-19.273c-17.127,36.838-33.229,71.479-50.063,107.688
		c20.344,16.785,43.21,35.652,66.937,55.229C1058.866,920.393,1080.86,873.374,1094.661,820.679z M533.57,362.927
		c-46.402,25.215-86.142,56.826-120.107,97.696c23.983,19.754,46.715,38.48,67.139,55.303
		c30.914-25.021,59.969-48.536,90.111-72.933C559.104,417.968,546.527,390.858,533.57,362.927z M236.003,895.313
		c30.611-11.809,57.82-22.304,84.395-32.554c-6.412-27.217-12.41-52.674-18.735-79.525c-29.03,3.589-57.954,7.157-89.8,11.095
		C220,828.371,227.7,860.576,236.003,895.313z M959.407,268.949c-15.052,29.281-28.507,55.458-41.97,81.65
		c21.946,15.948,43.154,31.361,65.088,47.299c19.399-22.667,38.729-45.249,59.651-69.695
		C1014.396,308.313,987.729,289.224,959.407,268.949z M487.939,1185.528c32.292,12.46,62.65,24.173,94.498,36.459
		c7.831-31.879,14.943-60.839,21.939-89.327c-25.79-10.055-49.737-19.386-74.354-28.982
		C516.546,1129.889,503.071,1156.098,487.939,1185.528z M804.627,306.188c7.225-29.542,14.195-58.047,21.842-89.32
		c-34.699-4.251-67.204-8.235-100.57-12.324c0,32.649,0,62.011,0,90.964C752.33,299.094,777.738,302.54,804.627,306.188z
		 M845.846,1222.145c32.113-12.438,62.697-24.283,94.492-36.602c-15.22-29.549-28.855-56.028-42.245-82.026
		c-25.446,10.008-49.354,19.413-74.27,29.211C830.957,1161.696,838.005,1190.311,845.846,1222.145z M321.279,580.539
		c-26.95-10.397-53.892-20.791-83.994-32.403c-8.002,34.175-15.7,67.06-23.677,101.136c32.227,3.909,60.77,7.369,88.645,10.748
		C308.787,632.724,314.878,607.28,321.279,580.539z M488.046,258.084c14.978,29.106,28.59,55.564,42.084,81.784
		c25.222-9.904,49.118-19.283,74.343-29.189c-7.203-29.054-14.357-57.918-22.143-89.319
		C550.042,233.936,519.768,245.729,488.046,258.084z M291.944,1006.294c26.333-18.479,50.082-35.146,73.893-51.855
		c-12.604-24.525-24.691-48.048-36.964-71.93c-27.733,11.068-54.595,21.789-84.214,33.61
		C260.669,946.651,275.939,975.772,291.944,1006.294z M1214.121,774.355c0-35.456,0-68.524,0-103.023
		c-31.044,3.746-59.654,7.197-88.292,10.652c0,27.563,0,53.775,0,81.462C1154.386,766.975,1182.979,770.508,1214.121,774.355z
		 M430.598,409.76c-19.39-22.323-38.589-44.424-59.862-68.913c-22.261,26.108-43.779,51.351-66.138,77.58
		c26.666,19.083,50.536,36.167,73.686,52.735C396.221,450.108,412.803,430.645,430.598,409.76z M825.9,311.881
		c24.742,9.776,48.568,19.192,73.383,28.996c13.979-26.252,27.918-52.434,43.117-80.98c-32.371-12.71-62.889-24.691-94.588-37.135
		C839.979,254.618,832.944,283.229,825.9,311.881z M915.37,1093.95c13.708,26.645,27.194,52.857,41.977,81.589
		c27.847-19.876,54.789-39.103,82.862-59.139c-21.407-24.586-40.889-46.963-59.884-68.778
		C958.227,1063.384,937.499,1078.166,915.37,1093.95z M430.038,1034.131c-18.2-21.173-35.161-40.904-52.543-61.126
		c-23.804,16.757-47.542,33.464-73.371,51.644c22.471,26.621,43.863,51.966,66.104,78.316
		C391.336,1078.673,410.504,1056.615,430.038,1034.131z M511.896,349.476c-13.737-26.639-27.217-52.77-42.028-81.486
		c-28.103,20.112-54.885,39.281-82.694,59.183c21.421,24.646,40.609,46.725,59.609,68.587
		C468.662,380.208,489.75,365.218,511.896,349.476z M1124.141,420.863c-22.511-26.61-43.98-51.994-66.182-78.239
		c-21.213,24.432-40.445,46.578-59.57,68.604c17.953,20.926,35.139,40.958,52.521,61.219
		C1074.923,455.531,1098.387,439.005,1124.141,420.863z M1189.827,550.39c-30.236,11.637-57.498,22.129-84.01,32.334
		c6.38,26.754,12.354,51.808,18.709,78.465c28.777-3.506,57.697-7.027,89.374-10.886
		C1205.682,616.188,1197.949,584.099,1189.827,550.39z M469.798,1175.611c14.989-29.133,28.609-55.608,41.896-81.435
		c-22.189-15.751-43.282-30.726-65.185-46.276c-19.124,22.065-38.512,44.438-59.446,68.594
		C415.077,1136.509,441.426,1155.339,469.798,1175.611z M210.703,670.231c0,33.073-0.211,63.628,0.361,94.168
		c0.051,2.711,5.434,7.851,7.926,7.596c26.867-2.728,53.648-6.315,80.164-9.632c0-27.998,0-54.557,0-81.523
		C269.99,677.34,241.78,673.957,210.703,670.231z M725.818,1147.621c0,30.058,0,59.923,0,92.521
		c33.149-4.313,65.063-8.466,98.66-12.837c-7.657-32.231-14.529-61.158-21.233-89.375
		C776.57,1141.269,752.012,1144.344,725.818,1147.621z M1104.709,862.809c27.066,10.387,54.29,20.836,84.122,32.288
		c8.174-34.245,15.832-66.335,23.847-99.909c-32.258-3.89-60.824-7.334-89.199-10.754
		C1117.05,811.276,1111.056,836.305,1104.709,862.809z M244.648,527.412c30.303,11.608,57.235,21.921,83.955,32.153
		c12.627-24.363,24.554-47.378,36.798-71.005c-23.857-17.054-47.438-33.91-73.552-52.575
		C275.853,466.97,260.744,496.233,244.648,527.412z M1134.201,1007.383c16.211-31.445,31.325-60.761,47.155-91.469
		c-30.027-11.506-57.303-21.957-83.837-32.126c-12.793,24.534-24.654,47.289-36.94,70.853
		C1084.055,971.459,1107.703,988.4,1134.201,1007.383z M702.787,1147.661c-26.756-3.335-52.064-6.487-77.968-9.718
		c-7.22,29.245-14.279,57.839-22.046,89.298c34.041,3.84,66.514,7.505,100.014,11.283
		C702.787,1206.266,702.787,1177.207,702.787,1147.661z M1098.343,561.965c27.318-10.674,53.852-21.041,82.84-32.364
		c-15.689-30.955-30.646-60.465-46.259-91.261c-25.98,18.286-50.027,35.212-73.37,51.645
		C1074.195,514.717,1085.909,537.64,1098.343,561.965z M1122.004,1025.59c-26.217-18.762-49.917-35.72-73.348-52.485
		c-17.706,20.345-34.778,39.961-52.391,60.195c19.604,22.485,39.078,44.822,59.836,68.633
		C1078.505,1075.979,1099.773,1051.339,1122.004,1025.59z M703.574,203.99c-33.772,4.002-65.404,7.754-98.844,11.719
		c7.699,32.428,14.573,61.368,21.332,89.836c26.995-3.487,51.967-6.712,77.512-10.011
		C703.574,266.063,703.574,237.021,703.574,203.99z"/>
	<path fill="#FFFFFF" d="M994.945,723.492c-1.229,160.861-127.492,288.429-284.111,287.043
		c-156.979-1.388-280.979-131.474-279.616-293.341c1.334-158.434,129.135-285.661,285.612-284.329
		C871.175,434.182,996.157,564.788,994.945,723.492z"/>
	<path fill="#FFFFFF" d="M478.31,924.253c30.528,25.206,60.09,49.614,91.144,75.251c-11.481,24.223-24.257,51.172-37.814,79.769
		c-47.177-25.062-86.984-57.988-121.375-99.63C434.108,960.23,457.108,941.512,478.31,924.253z"/>
	<path fill="#FFFFFF" d="M550.74,1089.136c13.547-28.457,26.232-55.104,38.046-79.919c37.79,9.184,74.563,18.12,112.83,27.419
		c0,26.889,0,56.766,0,87.76C648.835,1123.195,599.269,1111.872,550.74,1089.136z"/>
	<path fill="#FFFFFF" d="M874.434,354.085c-13.477,28.325-26.166,55-38.024,79.928c-37.914-8.733-74.854-17.244-113.062-26.045
		c0-26.815,0-56.368,0-87.793C775.92,319.61,825.255,331.785,874.434,354.085z"/>
	<path fill="#FFFFFF" d="M331.245,819.752c29.935-6.955,58.493-13.588,84.28-19.579c16.869,36.337,33.003,71.089,49.976,107.65
		c-20.36,16.844-43.126,35.682-66.953,55.396C366.299,920.144,345.136,873.144,331.245,819.752z"/>
	<path fill="#FFFFFF" d="M958.574,533.345c21.244-17.273,44.226-35.965,68.046-55.334c31.83,43.125,54.069,89.577,67.076,142.421
		c-29.243,6.813-57.813,13.47-84.16,19.609C992.521,604.421,976.035,569.904,958.574,533.345z"/>
	<path fill="#FFFFFF" d="M1013.903,461.449c-23.908,19.494-47.177,38.462-68.248,55.643c-30.322-24.971-59.245-48.786-90.047-74.153
		c11.587-24.433,24.516-51.7,37.941-80.019C940.295,387.897,979.59,420.331,1013.903,461.449z"/>
	<path fill="#FFFFFF" d="M1098.883,641.301c10.204,53.862,9.713,105.519-0.356,158.537c-29.292-6.807-57.373-13.331-84.276-19.582
		c0-40.037,0-78.885,0-119.234C1040.914,654.807,1068.993,648.265,1098.883,641.301z"/>
	<path fill="#FFFFFF" d="M836.221,1010.209c11.553,24.958,24.092,52.051,37.019,79.978c-48.07,22.134-97.147,32.684-149.451,34.342
		c0-30.223,0-60.106,0-88.377C760.811,1027.607,797.758,1019.084,836.221,1010.209z"/>
	<path fill="#FFFFFF" d="M1014.893,980.766c-34.507,41.276-74.171,73.504-121.133,99.764
		c-12.896-27.676-25.627-54.997-37.256-79.959c30.762-25.277,60.37-49.608,91.406-75.114
		C968.509,942.466,991.252,961.247,1014.893,980.766z"/>
	<path fill="#FFFFFF" d="M467.609,533.351c-17.427,36.403-33.756,70.516-51.021,106.586c-25.607-5.914-54.118-12.499-84.006-19.403
		c13.33-52.583,35.056-99.59,67.941-142.57C423.965,497.316,446.799,516.171,467.609,533.351z"/>
	<path fill="#FFFFFF" d="M412.313,659.682c0,41.072,0,79.471,0,119.395c-26.858,6.251-55.358,12.879-85.047,19.786
		c-10.431-53.176-9.142-104.92,0.875-158.573C357.388,647.029,385.844,653.583,412.313,659.682z"/>
	<path fill="#FFFFFF" d="M589.95,433.234c-11.524-24.893-24.071-51.993-37.099-80.127c48.033-21.337,96.629-33.226,148.787-33.713
		c0,30.667,0,60.161,0,87.685C664.305,415.821,627.814,424.368,589.95,433.234z"/>
	<path fill="#FFFFFF" d="M1094.661,820.679c-13.801,52.696-35.795,99.715-66.944,143.645
		c-23.727-19.576-46.593-38.444-66.937-55.229c16.834-36.21,32.938-70.851,50.063-107.688
		C1036.248,807.245,1064.74,813.8,1094.661,820.679z"/>
	<path fill="#FFFFFF" d="M533.57,362.927c12.957,27.932,25.533,55.041,37.143,80.066c-30.144,24.397-59.198,47.913-90.111,72.933
		c-20.424-16.823-43.155-35.549-67.139-55.303C447.429,419.752,487.167,388.142,533.57,362.927z"/>
	<path fill="#FFFFFF" d="M236.003,895.313C227.7,860.576,220,828.371,211.862,794.328c31.846-3.936,60.771-7.506,89.8-11.095
		c6.326,26.852,12.323,52.31,18.735,79.525C293.823,873.009,266.614,883.503,236.003,895.313z"/>
	<path fill="#FFFFFF" d="M959.407,268.949c28.321,20.274,54.989,39.364,82.771,59.254c-20.924,24.445-40.252,47.028-59.651,69.695
		c-21.934-15.937-43.142-31.351-65.089-47.299C930.9,324.408,944.355,298.23,959.407,268.949z"/>
	<path fill="#FFFFFF" d="M487.939,1185.528c15.132-29.431,28.606-55.64,42.082-81.851c24.618,9.597,48.565,18.929,74.355,28.982
		c-6.997,28.488-14.109,57.448-21.94,89.327C550.59,1209.699,520.23,1197.988,487.939,1185.528z"/>
	<path fill="#FFFFFF" d="M804.627,306.188c-26.889-3.649-52.297-7.094-78.729-10.679c0-28.953,0-58.315,0-90.964
		c33.366,4.089,65.871,8.072,100.57,12.325C818.822,248.142,811.852,276.647,804.627,306.188z"/>
	<path fill="#FFFFFF" d="M845.846,1222.145c-7.841-31.834-14.889-60.448-22.021-89.417c24.914-9.798,48.822-19.203,74.27-29.211
		c13.39,25.998,27.025,52.478,42.245,82.026C908.543,1197.861,877.959,1209.706,845.846,1222.145z"/>
	<path fill="#FFFFFF" d="M321.279,580.539c-6.401,26.74-12.492,52.184-19.026,79.48c-27.875-3.379-56.418-6.838-88.645-10.748
		c7.978-34.076,15.675-66.961,23.677-101.136C267.387,559.749,294.33,570.143,321.279,580.539z"/>
	<path fill="#FFFFFF" d="M488.046,258.084c31.722-12.355,61.997-24.148,94.284-36.725c7.785,31.4,14.939,60.266,22.143,89.319
		c-25.225,9.906-49.121,19.286-74.343,29.189C516.636,313.648,503.021,287.19,488.046,258.084z"/>
	<path fill="#FFFFFF" d="M291.944,1006.294c-16.005-30.521-31.275-59.643-47.285-90.175c29.619-11.821,56.48-22.542,84.214-33.61
		c12.273,23.883,24.359,47.405,36.964,71.93C342.026,971.149,318.277,987.815,291.944,1006.294z"/>
	<path fill="#FFFFFF" d="M1214.121,774.355c-31.145-3.848-59.735-7.38-88.292-10.91c0-27.688,0-53.899,0-81.463
		c28.638-3.453,57.248-6.905,88.292-10.651C1214.121,705.832,1214.121,738.899,1214.121,774.355z"/>
	<path fill="#FFFFFF" d="M430.598,409.76c-17.795,20.884-34.376,40.348-52.314,61.401c-23.15-16.568-47.02-33.652-73.686-52.735
		c22.359-26.228,43.877-51.471,66.138-77.58C392.009,365.337,411.208,387.437,430.598,409.76z"/>
	<path fill="#FFFFFF" d="M825.9,311.881c7.044-28.651,14.078-57.262,21.912-89.12c31.699,12.445,62.217,24.425,94.588,37.135
		c-15.199,28.546-29.139,54.728-43.117,80.98C874.47,331.072,850.643,321.657,825.9,311.881z"/>
	<path fill="#FFFFFF" d="M915.37,1093.95c22.129-15.784,42.856-30.566,64.955-46.328c18.995,21.815,38.477,44.192,59.884,68.778
		c-28.073,20.036-55.017,39.263-82.862,59.139C942.564,1146.808,929.078,1120.595,915.37,1093.95z"/>
	<path fill="#FFFFFF" d="M430.038,1034.131c-19.534,22.483-38.702,44.542-59.81,68.834c-22.242-26.351-43.633-51.694-66.104-78.316
		c25.829-18.18,49.567-34.888,73.371-51.644C394.877,993.227,411.838,1012.958,430.038,1034.131z"/>
	<path fill="#FFFFFF" d="M511.896,349.476c-22.146,15.743-43.235,30.732-65.113,46.284c-19-21.863-38.188-43.94-59.609-68.587
		c27.81-19.902,54.592-39.071,82.694-59.183C484.68,296.706,498.159,322.837,511.896,349.476z"/>
	<path fill="#FFFFFF" d="M1124.141,420.863c-25.754,18.142-49.218,34.668-73.23,51.583c-17.383-20.262-34.567-40.293-52.521-61.219
		c19.125-22.025,38.357-44.172,59.57-68.604C1080.159,368.869,1101.63,394.253,1124.141,420.863z"/>
	<path fill="#FFFFFF" d="M1189.827,550.39c8.122,33.708,15.854,65.797,24.073,99.914c-31.677,3.859-60.597,7.379-89.374,10.886
		c-6.355-26.657-12.329-51.711-18.709-78.465C1132.329,572.52,1159.591,562.027,1189.827,550.39z"/>
	<path fill="#FFFFFF" d="M469.798,1175.611c-28.373-20.272-54.722-39.103-82.734-59.116c20.935-24.156,40.323-46.528,59.446-68.594
		c21.902,15.551,42.995,30.526,65.185,46.278C498.408,1120.003,484.787,1146.479,469.798,1175.611z"/>
	<path fill="#FFFFFF" d="M210.703,670.231c31.077,3.725,59.288,7.109,88.451,10.608c0,26.966,0,53.523,0,81.523
		c-26.516,3.316-53.297,6.904-80.164,9.632c-2.493,0.255-7.875-4.885-7.926-7.596C210.492,733.859,210.703,703.306,210.703,670.231z
		"/>
	<path fill="#FFFFFF" d="M725.818,1147.621c26.192-3.277,50.752-6.353,77.427-9.691c6.704,28.217,13.576,57.144,21.233,89.375
		c-33.597,4.372-65.511,8.523-98.66,12.837C725.818,1207.544,725.818,1177.679,725.818,1147.621z"/>
	<path fill="#FFFFFF" d="M1104.709,862.809c6.347-26.504,12.341-51.532,18.77-78.375c28.375,3.42,56.941,6.864,89.199,10.754
		c-8.015,33.574-15.673,65.664-23.847,99.909C1158.999,883.645,1131.775,873.195,1104.709,862.809z"/>
	<path fill="#FFFFFF" d="M244.648,527.412c16.096-31.178,31.205-60.442,47.2-91.427c26.114,18.666,49.695,35.522,73.552,52.575
		c-12.244,23.627-24.17,46.642-36.798,71.005C301.883,549.333,274.951,539.02,244.648,527.412z"/>
	<path fill="#FFFFFF" d="M1134.201,1007.383c-26.498-18.981-50.146-35.924-73.622-52.742c12.286-23.563,24.147-46.316,36.94-70.853
		c26.534,10.169,53.81,20.62,83.837,32.126C1165.526,946.622,1150.412,975.938,1134.201,1007.383z"/>
	<path fill="#FFFFFF" d="M702.787,1147.661c0,29.545,0,58.603,0,90.862c-33.5-3.779-65.973-7.443-100.014-11.283
		c7.767-31.458,14.826-60.053,22.046-89.298C650.723,1141.174,676.031,1144.327,702.787,1147.661z"/>
	<path fill="#FFFFFF" d="M1098.343,561.965c-12.434-24.326-24.146-47.249-36.789-71.98c23.343-16.433,47.39-33.359,73.37-51.645
		c15.611,30.797,30.568,60.308,46.259,91.261C1152.193,540.925,1125.661,551.291,1098.343,561.965z"/>
	<path fill="#FFFFFF" d="M1122.004,1025.59c-22.229,25.75-43.499,50.391-65.9,76.343c-20.759-23.81-40.232-46.146-59.836-68.633
		c17.61-20.234,34.684-39.852,52.39-60.195C1072.087,989.869,1095.787,1006.828,1122.004,1025.59z"/>
	<path fill="#FFFFFF" d="M703.574,203.99c0,33.031,0,62.072,0,91.544c-25.545,3.299-50.517,6.524-77.512,10.011
		c-6.76-28.469-13.633-57.41-21.332-89.836C638.169,211.744,669.801,207.992,703.574,203.99z"/>
</g>
</svg>
